<svg width="316" height="194" viewBox="0 0 316 194" fill="none" xmlns="http://www.w3.org/2000/svg">
<g opacity="0.3" filter="url(#filter0_f)">
<ellipse rx="105.277" ry="108.411" transform="matrix(0.903359 0.428886 -0.901809 0.432135 192.868 97)" fill="url(#paint0_radial)" fill-opacity="0.4"/>
</g>
<g filter="url(#filter1_i)">
<path d="M271.044 125.316L131.766 134.938C126.267 135.318 122.175 133.375 121.668 131.181V89.4756L136.216 91.2987L137.862 90.497L104.26 74.4801C102.394 73.5909 101.588 72.4723 101.66 71.383V30.1084L258.544 20.0984L258.68 62.0323C258.617 63.02 257.808 64.0214 256.062 64.8546L210.179 86.7537L235.638 84.0997L278.726 79.6326L278.642 121.196C278.561 123.136 275.69 124.995 271.044 125.316Z" fill="url(#paint1_linear)"/>
</g>
<path d="M122.417 131.086V90.3237L136.123 92.0414L136.344 92.069L136.544 91.9716L138.19 91.1699L139.586 90.4897L138.184 89.8214L104.582 73.8044C102.813 72.9613 102.365 72.0563 102.407 71.4322L102.408 71.4076V71.383V30.8106L257.798 20.896L257.932 62.0063C257.883 62.5838 257.377 63.3973 255.739 64.1791L209.857 86.0783L210.257 87.4982L235.715 84.8442L235.716 84.8441L277.976 80.4629L277.894 121.178C277.862 121.77 277.386 122.526 276.183 123.213C274.998 123.89 273.235 124.414 270.993 124.569L131.715 134.191C129.059 134.375 126.777 133.994 125.124 133.33C123.479 132.67 122.625 131.805 122.417 131.086Z" stroke="#FDC007" stroke-width="1.49691"/>
<g filter="url(#filter2_bi)">
<path d="M104.26 32.9594L170.12 64.3528L124.238 86.2519C118.216 89.1259 123.337 93.9998 131.766 93.4175L271.044 83.7952C278.261 83.2966 281.196 79.0845 276.04 76.6265L210.179 45.2331L256.062 23.334C262.083 20.4599 256.962 15.5861 248.533 16.1684L109.255 25.7907C102.038 26.2893 99.1029 30.5014 104.26 32.9594Z" fill="url(#paint2_linear)"/>
<path d="M170.443 65.0282L171.859 64.3523L170.442 63.6772L104.582 32.2838C103.374 31.7081 102.767 31.0872 102.532 30.565C102.318 30.0892 102.365 29.5944 102.731 29.0682C103.118 28.5137 103.861 27.9373 104.992 27.4665C106.113 26.9998 107.568 26.6575 109.306 26.5374L248.585 16.9151C252.691 16.6314 255.832 17.6946 257.201 18.9972C257.868 19.6321 258.027 20.2232 257.89 20.721C257.739 21.2671 257.163 21.9792 255.739 22.6585L209.857 44.5577L208.441 45.2336L209.857 45.9087L275.718 77.3021C276.925 77.8778 277.532 78.4987 277.767 79.0209C277.982 79.4967 277.935 79.9915 277.568 80.5177C277.182 81.0722 276.438 81.6486 275.307 82.1194C274.186 82.5861 272.731 82.9284 270.993 83.0485L131.715 92.6708C127.609 92.9545 124.467 91.8913 123.099 90.5887C122.432 89.9538 122.272 89.3627 122.41 88.8649C122.56 88.3188 123.137 87.6067 124.56 86.9274L170.443 65.0282Z" stroke="#FDC30D" stroke-width="1.49691"/>
</g>
<g style="mix-blend-mode:multiply" opacity="0.2" filter="url(#filter3_f)">
<path d="M170.484 106.549L171.9 105.873L170.483 105.198L104.623 73.8043C103.415 73.2287 102.808 72.6077 102.573 72.0855C102.359 71.6097 102.406 71.1149 102.772 70.5887C103.159 70.0342 103.902 69.4578 105.033 68.987C106.154 68.5203 107.609 68.178 109.347 68.0579L248.626 58.4356C252.732 58.1519 255.873 59.2151 257.242 60.5177C257.909 61.1526 258.068 61.7437 257.931 62.2415C257.78 62.7876 257.204 63.4997 255.78 64.179L209.898 86.0782L208.482 86.7541L209.898 87.4293L275.759 118.823C276.966 119.398 277.573 120.019 277.808 120.541C278.023 121.017 277.976 121.512 277.609 122.038C277.223 122.593 276.479 123.169 275.348 123.64C274.227 124.107 272.772 124.449 271.034 124.569L131.756 134.191C127.65 134.475 124.508 133.412 123.14 132.109C122.473 131.474 122.313 130.883 122.451 130.385C122.601 129.839 123.178 129.127 124.601 128.448L170.484 106.549Z" stroke="url(#paint3_linear)" stroke-width="1.49691"/>
</g>
<g filter="url(#filter4_f)">
<path d="M211.482 46.884L232.128 56.499L139.404 48.2L118.758 39.0054L211.482 46.884Z" fill="url(#paint4_linear)"/>
</g>
<g filter="url(#filter5_f)">
<path d="M243.635 62.0226L274.822 76.8803L165.078 67.9978L171.372 64.2857L152.843 54.9497L243.635 62.0226Z" fill="url(#paint5_linear)"/>
</g>
<path d="M170.443 65.0282L171.859 64.3523L170.442 63.6772L104.582 32.2838C103.374 31.7081 102.767 31.0872 102.532 30.565C102.318 30.0892 102.365 29.5944 102.731 29.0682C103.118 28.5137 103.861 27.9373 104.992 27.4665C106.113 26.9998 107.568 26.6575 109.306 26.5374L248.585 16.9151C252.691 16.6314 255.832 17.6946 257.201 18.9972C257.868 19.6321 258.027 20.2232 257.89 20.721C257.739 21.2671 257.163 21.9792 255.739 22.6585L209.857 44.5577L208.441 45.2336L209.857 45.9087L275.718 77.3021C276.925 77.8778 277.532 78.4987 277.767 79.0209C277.982 79.4967 277.935 79.9915 277.568 80.5177C277.182 81.0722 276.438 81.6486 275.307 82.1194C274.186 82.5861 272.731 82.9284 270.993 83.0485L131.715 92.6708C127.609 92.9545 124.467 91.8913 123.099 90.5887C122.432 89.9538 122.272 89.3627 122.41 88.8649C122.56 88.3188 123.137 87.6067 124.56 86.9274L170.443 65.0282Z" stroke="#FDC30D" stroke-width="1.49691"/>
<g filter="url(#filter6_d)">
<path d="M298.889 103.088C305.413 106.205 301.7 111.547 292.569 112.18L116.366 124.382C105.702 125.121 99.2233 118.94 106.841 115.295L117.845 110.406" stroke="#FFDD47" stroke-opacity="0.6" stroke-width="1.01471" stroke-linecap="round" stroke-linejoin="round" stroke-dasharray="0.34 6.76"/>
</g>
<g filter="url(#filter7_d)">
<path d="M298.551 83.8088C305.075 86.9261 301.362 92.2679 292.232 92.9002L116.028 105.103C105.364 105.842 98.8855 99.6606 106.503 96.0158L117.507 91.127" stroke="#FFDD47" stroke-opacity="0.5" stroke-width="0.676471" stroke-linecap="round" stroke-linejoin="round" stroke-dasharray="3.38 6.76 13.53 3.38 6.76 13.53"/>
</g>
<g filter="url(#filter8_d)">
<path d="M298.889 93.5715C305.413 96.6888 301.7 102.031 292.569 102.663L116.366 114.866C105.702 115.604 99.2233 109.423 106.841 105.778L117.845 100.89" stroke="#FFDD47" stroke-width="1.01471"/>
</g>
<g filter="url(#filter9_d)">
<path d="M102.456 47.0282L87.8869 48.0429C78.7567 48.6752 75.0434 54.017 81.5672 57.1342L133.067 82.0908M258.044 36.5164L264.09 35.8399C274.754 35.1014 281.233 41.2824 273.615 44.9273L241.302 60.1324" stroke="#FFDD47" stroke-opacity="0.6" stroke-width="1.01471" stroke-linecap="round" stroke-linejoin="round" stroke-dasharray="0.34 6.76"/>
</g>
<g filter="url(#filter10_d)">
<path d="M102.117 30.7931L87.548 31.8078C78.4178 32.4401 74.7046 37.7819 81.2284 40.8991L132.728 65.8557M257.705 20.2813L263.751 19.6048C274.416 18.8663 280.894 25.0473 273.276 28.6922L240.963 43.8973" stroke="#FFDD47" stroke-opacity="0.5" stroke-width="0.676471" stroke-linecap="round" stroke-linejoin="round" stroke-dasharray="3.38 6.76 13.53 3.38 6.76 13.53"/>
</g>
<g filter="url(#filter11_d)">
<path d="M237.074 53.706L273.615 36.8098C281.233 33.165 274.754 26.984 264.09 27.7225L258.044 28.399M102.456 38.9107L87.8869 39.9254C78.7567 40.5577 75.0434 45.8996 81.5672 49.0168L118.015 66.5589" stroke="#FFDD47" stroke-width="1.01471" stroke-linecap="round" stroke-linejoin="round"/>
</g>
<g style="mix-blend-mode:screen" filter="url(#filter12_f)">
<path d="M209.141 17.3584L210.692 38.9558C210.866 41.3902 212.664 43.3987 215.065 43.8409L221.017 44.9375L215.118 46.0243C212.693 46.471 210.886 48.5154 210.741 50.977L209.141 78.0587L207.545 51.0424C207.398 48.5507 205.549 46.4908 203.088 46.0757L196.341 44.9375L203.142 43.7902C205.579 43.3792 207.418 41.3555 207.595 38.8911L209.141 17.3584Z" fill="white"/>
</g>
<g style="mix-blend-mode:screen" filter="url(#filter13_f)">
<path d="M198.41 31.7988C198.929 34.6167 201.134 36.8216 203.952 37.3407C201.134 37.8598 198.929 40.0647 198.41 42.8825C197.891 40.0647 195.686 37.8598 192.868 37.3407C195.686 36.8216 197.891 34.6167 198.41 31.7988Z" fill="white"/>
</g>
<defs>
<filter id="filter0_f" x="25.3512" y="0.809694" width="335.035" height="192.381" filterUnits="userSpaceOnUse" color-interpolation-filters="sRGB">
<feFlood flood-opacity="0" result="BackgroundImageFix"/>
<feBlend mode="normal" in="SourceGraphic" in2="BackgroundImageFix" result="shape"/>
<feGaussianBlur stdDeviation="15.5627" result="effect1_foregroundBlur"/>
</filter>
<filter id="filter1_i" x="101.655" y="20.0984" width="181.777" height="115.963" filterUnits="userSpaceOnUse" color-interpolation-filters="sRGB">
<feFlood flood-opacity="0" result="BackgroundImageFix"/>
<feBlend mode="normal" in="SourceGraphic" in2="BackgroundImageFix" result="shape"/>
<feColorMatrix in="SourceAlpha" type="matrix" values="0 0 0 0 0 0 0 0 0 0 0 0 0 0 0 0 0 0 127 0" result="hardAlpha"/>
<feOffset dx="4.70574" dy="1.0756"/>
<feGaussianBlur stdDeviation="3.96627"/>
<feComposite in2="hardAlpha" operator="arithmetic" k2="-1" k3="1"/>
<feColorMatrix type="matrix" values="0 0 0 0 1 0 0 0 0 1 0 0 0 0 1 0 0 0 1 0"/>
<feBlend mode="normal" in2="shape" result="effect1_innerShadow"/>
</filter>
<filter id="filter2_bi" x="97.3529" y="11.8182" width="185.594" height="87.1595" filterUnits="userSpaceOnUse" color-interpolation-filters="sRGB">
<feFlood flood-opacity="0" result="BackgroundImageFix"/>
<feGaussianBlur in="BackgroundImage" stdDeviation="2.1512"/>
<feComposite in2="SourceAlpha" operator="in" result="effect1_backgroundBlur"/>
<feBlend mode="normal" in="SourceGraphic" in2="effect1_backgroundBlur" result="shape"/>
<feColorMatrix in="SourceAlpha" type="matrix" values="0 0 0 0 0 0 0 0 0 0 0 0 0 0 0 0 0 0 127 0" result="hardAlpha"/>
<feOffset dy="5.51244"/>
<feGaussianBlur stdDeviation="3.15957"/>
<feComposite in2="hardAlpha" operator="arithmetic" k2="-1" k3="1"/>
<feColorMatrix type="matrix" values="0 0 0 0 1 0 0 0 0 1 0 0 0 0 1 0 0 0 0.71 0"/>
<feBlend mode="normal" in2="shape" result="effect2_innerShadow"/>
</filter>
<filter id="filter3_f" x="100.217" y="56.1622" width="179.947" height="80.3026" filterUnits="userSpaceOnUse" color-interpolation-filters="sRGB">
<feFlood flood-opacity="0" result="BackgroundImageFix"/>
<feBlend mode="normal" in="SourceGraphic" in2="BackgroundImageFix" result="shape"/>
<feGaussianBlur stdDeviation="0.739473" result="effect1_foregroundBlur"/>
</filter>
<filter id="filter4_f" x="117.682" y="37.9298" width="115.522" height="19.6448" filterUnits="userSpaceOnUse" color-interpolation-filters="sRGB">
<feFlood flood-opacity="0" result="BackgroundImageFix"/>
<feBlend mode="normal" in="SourceGraphic" in2="BackgroundImageFix" result="shape"/>
<feGaussianBlur stdDeviation="0.537799" result="effect1_foregroundBlur"/>
</filter>
<filter id="filter5_f" x="151.767" y="53.8741" width="124.13" height="24.0818" filterUnits="userSpaceOnUse" color-interpolation-filters="sRGB">
<feFlood flood-opacity="0" result="BackgroundImageFix"/>
<feBlend mode="normal" in="SourceGraphic" in2="BackgroundImageFix" result="shape"/>
<feGaussianBlur stdDeviation="0.537799" result="effect1_foregroundBlur"/>
</filter>
<filter id="filter6_d" x="100.648" y="99.8747" width="203.328" height="27.7317" filterUnits="userSpaceOnUse" color-interpolation-filters="sRGB">
<feFlood flood-opacity="0" result="BackgroundImageFix"/>
<feColorMatrix in="SourceAlpha" type="matrix" values="0 0 0 0 0 0 0 0 0 0 0 0 0 0 0 0 0 0 127 0"/>
<feOffset/>
<feGaussianBlur stdDeviation="1.35294"/>
<feColorMatrix type="matrix" values="0 0 0 0 1 0 0 0 0 0.960784 0 0 0 0 0.698039 0 0 0 1 0"/>
<feBlend mode="normal" in2="BackgroundImageFix" result="effect1_dropShadow"/>
<feBlend mode="normal" in="SourceGraphic" in2="effect1_dropShadow" result="shape"/>
</filter>
<filter id="filter7_d" x="100.142" y="80.7646" width="204.738" height="27.4227" filterUnits="userSpaceOnUse" color-interpolation-filters="sRGB">
<feFlood flood-opacity="0" result="BackgroundImageFix"/>
<feColorMatrix in="SourceAlpha" type="matrix" values="0 0 0 0 0 0 0 0 0 0 0 0 0 0 0 0 0 0 127 0"/>
<feOffset/>
<feGaussianBlur stdDeviation="1.35294"/>
<feColorMatrix type="matrix" values="0 0 0 0 1 0 0 0 0 0.960784 0 0 0 0 0.698039 0 0 0 1 0"/>
<feBlend mode="normal" in2="BackgroundImageFix" result="effect1_dropShadow"/>
<feBlend mode="normal" in="SourceGraphic" in2="effect1_dropShadow" result="shape"/>
</filter>
<filter id="filter8_d" x="92.5303" y="82.6285" width="220.647" height="43.2905" filterUnits="userSpaceOnUse" color-interpolation-filters="sRGB">
<feFlood flood-opacity="0" result="BackgroundImageFix"/>
<feColorMatrix in="SourceAlpha" type="matrix" values="0 0 0 0 0 0 0 0 0 0 0 0 0 0 0 0 0 0 127 0"/>
<feOffset/>
<feGaussianBlur stdDeviation="5.24265"/>
<feColorMatrix type="matrix" values="0 0 0 0 1 0 0 0 0 0.960784 0 0 0 0 0.698039 0 0 0 1 0"/>
<feBlend mode="normal" in2="BackgroundImageFix" result="effect1_dropShadow"/>
<feBlend mode="normal" in="SourceGraphic" in2="effect1_dropShadow" result="shape"/>
</filter>
<filter id="filter9_d" x="76.4806" y="32.6159" width="203.328" height="52.6882" filterUnits="userSpaceOnUse" color-interpolation-filters="sRGB">
<feFlood flood-opacity="0" result="BackgroundImageFix"/>
<feColorMatrix in="SourceAlpha" type="matrix" values="0 0 0 0 0 0 0 0 0 0 0 0 0 0 0 0 0 0 127 0"/>
<feOffset/>
<feGaussianBlur stdDeviation="1.35294"/>
<feColorMatrix type="matrix" values="0 0 0 0 1 0 0 0 0 0.960784 0 0 0 0 0.698039 0 0 0 1 0"/>
<feBlend mode="normal" in2="BackgroundImageFix" result="effect1_dropShadow"/>
<feBlend mode="normal" in="SourceGraphic" in2="effect1_dropShadow" result="shape"/>
</filter>
<filter id="filter10_d" x="74.9006" y="16.5207" width="204.738" height="52.3792" filterUnits="userSpaceOnUse" color-interpolation-filters="sRGB">
<feFlood flood-opacity="0" result="BackgroundImageFix"/>
<feColorMatrix in="SourceAlpha" type="matrix" values="0 0 0 0 0 0 0 0 0 0 0 0 0 0 0 0 0 0 127 0"/>
<feOffset/>
<feGaussianBlur stdDeviation="1.35294"/>
<feColorMatrix type="matrix" values="0 0 0 0 1 0 0 0 0 0.960784 0 0 0 0 0.698039 0 0 0 1 0"/>
<feBlend mode="normal" in2="BackgroundImageFix" result="effect1_dropShadow"/>
<feBlend mode="normal" in="SourceGraphic" in2="effect1_dropShadow" result="shape"/>
</filter>
<filter id="filter11_d" x="67.2794" y="16.6692" width="220.647" height="60.8824" filterUnits="userSpaceOnUse" color-interpolation-filters="sRGB">
<feFlood flood-opacity="0" result="BackgroundImageFix"/>
<feColorMatrix in="SourceAlpha" type="matrix" values="0 0 0 0 0 0 0 0 0 0 0 0 0 0 0 0 0 0 127 0"/>
<feOffset/>
<feGaussianBlur stdDeviation="5.24265"/>
<feColorMatrix type="matrix" values="0 0 0 0 1 0 0 0 0 0.960784 0 0 0 0 0.698039 0 0 0 1 0"/>
<feBlend mode="normal" in2="BackgroundImageFix" result="effect1_dropShadow"/>
<feBlend mode="normal" in="SourceGraphic" in2="effect1_dropShadow" result="shape"/>
</filter>
<filter id="filter12_f" x="192" y="13.0171" width="33.3593" height="69.3829" filterUnits="userSpaceOnUse" color-interpolation-filters="sRGB">
<feFlood flood-opacity="0" result="BackgroundImageFix"/>
<feBlend mode="normal" in="SourceGraphic" in2="BackgroundImageFix" result="shape"/>
<feGaussianBlur stdDeviation="2.17066" result="effect1_foregroundBlur"/>
</filter>
<filter id="filter13_f" x="185.476" y="24.4066" width="25.8681" height="25.8681" filterUnits="userSpaceOnUse" color-interpolation-filters="sRGB">
<feFlood flood-opacity="0" result="BackgroundImageFix"/>
<feBlend mode="normal" in="SourceGraphic" in2="BackgroundImageFix" result="shape"/>
<feGaussianBlur stdDeviation="3.69611" result="effect1_foregroundBlur"/>
</filter>
<radialGradient id="paint0_radial" cx="0" cy="0" r="1" gradientUnits="userSpaceOnUse" gradientTransform="translate(105.277 108.411) rotate(44.0074) scale(126.692 112.987)">
<stop offset="0.195875" stop-color="white"/>
<stop offset="0.556926" stop-color="#FFEA31"/>
</radialGradient>
<linearGradient id="paint1_linear" x1="91.7941" y1="148.313" x2="268.711" y2="157.267" gradientUnits="userSpaceOnUse">
<stop stop-color="#FDC007"/>
<stop offset="0.237143" stop-color="#FFE051"/>
<stop offset="0.50689" stop-color="#FFD735"/>
<stop offset="0.671667" stop-color="#FEC107"/>
<stop offset="0.881931" stop-color="#E9B71D"/>
<stop offset="1" stop-color="#F3D167"/>
</linearGradient>
<linearGradient id="paint2_linear" x1="181.52" y1="81.0487" x2="196.754" y2="7.35515" gradientUnits="userSpaceOnUse">
<stop stop-color="#FFFAC0"/>
<stop offset="1" stop-color="#FFDD47"/>
</linearGradient>
<linearGradient id="paint3_linear" x1="190.191" y1="53.7598" x2="190.191" y2="134.986" gradientUnits="userSpaceOnUse">
<stop stop-color="#FDC30D"/>
<stop offset="0.496526" stop-color="#FDC30D" stop-opacity="0"/>
<stop offset="1" stop-color="#FDC30D"/>
</linearGradient>
<linearGradient id="paint4_linear" x1="80.1838" y1="54.6547" x2="231.096" y2="76.4308" gradientUnits="userSpaceOnUse">
<stop stop-color="white"/>
<stop offset="1" stop-color="white" stop-opacity="0"/>
</linearGradient>
<linearGradient id="paint5_linear" x1="110.071" y1="69.2097" x2="260.983" y2="90.9858" gradientUnits="userSpaceOnUse">
<stop stop-color="white"/>
<stop offset="1" stop-color="white" stop-opacity="0"/>
</linearGradient>
</defs>
</svg>

