<svg width="54" height="40" viewBox="0 0 54 40" fill="none" xmlns="http://www.w3.org/2000/svg">
<path fill-rule="evenodd" clip-rule="evenodd" d="M41.6022 5.82666H12.3638V29.5459H12.3709C12.6 32.6842 19.0548 35.2002 26.9838 35.2002C34.9129 35.2002 41.3676 32.6842 41.5968 29.5459H41.6022V29.4363C41.6028 29.4153 41.6031 29.3943 41.6031 29.3732C41.6031 29.3522 41.6028 29.3311 41.6022 29.3101V5.82666Z" fill="url(#paint0_linear)"/>
<path fill-rule="evenodd" clip-rule="evenodd" d="M41.6022 5.82666H12.3638V29.5459H12.3709C12.6 32.6842 19.0548 35.2002 26.9838 35.2002C34.9129 35.2002 41.3676 32.6842 41.5968 29.5459H41.6022V29.4363C41.6028 29.4153 41.6031 29.3943 41.6031 29.3732C41.6031 29.3522 41.6028 29.3311 41.6022 29.3101V5.82666Z" fill="url(#paint1_radial)"/>
<ellipse cx="26.983" cy="5.82692" rx="14.6192" ry="5.82692" fill="url(#paint2_linear)"/>
<mask id="mask0" mask-type="alpha" maskUnits="userSpaceOnUse" x="12" y="5" width="30" height="31">
<path fill-rule="evenodd" clip-rule="evenodd" d="M41.6022 5.82666H12.3638V29.5459H12.3709C12.6 32.6842 19.0548 35.2002 26.9838 35.2002C34.9129 35.2002 41.3676 32.6842 41.5968 29.5459H41.6022V29.4363C41.6028 29.4153 41.6031 29.3943 41.6031 29.3732C41.6031 29.3522 41.6028 29.3311 41.6022 29.3101V5.82666Z" fill="url(#paint3_linear)"/>
</mask>
<g mask="url(#mask0)">
<path d="M12.9999 15.1681L12.3257 14.1087L11.873 22.1119L12.3835 22.6705L13.8281 24.25L15.7928 25.4346L18.5568 26.4266L21.2342 27.0333L24.8458 27.3511H29.1218L33.8698 26.6962L36.3738 26.1473L38.9164 24.9241L40.2069 24.1055L41.17 23.2869L41.7575 22.555L41.873 13.9932L41.2085 14.8214L39.5424 16.3623L36.4894 17.701C35.3851 17.9707 33.1668 18.5139 33.1283 18.5293C33.0897 18.5447 30.7366 18.8246 29.5649 18.9627L26.2326 19.1168L23.093 18.8471L19.2888 18.1826L16.1877 17.2869L12.9999 15.1681Z" fill="url(#paint4_linear)"/>
<path d="M12.9999 15.1681L12.3257 14.1087L11.873 22.1119L12.3835 22.6705L13.8281 24.25L15.7928 25.4346L18.5568 26.4266L21.2342 27.0333L24.8458 27.3511H29.1218L33.8698 26.6962L36.3738 26.1473L38.9164 24.9241L40.2069 24.1055L41.17 23.2869L41.7575 22.555L41.873 13.9932L41.2085 14.8214L39.5424 16.3623L36.4894 17.701C35.3851 17.9707 33.1668 18.5139 33.1283 18.5293C33.0897 18.5447 30.7366 18.8246 29.5649 18.9627L26.2326 19.1168L23.093 18.8471L19.2888 18.1826L16.1877 17.2869L12.9999 15.1681Z" fill="url(#paint5_linear)"/>
<g filter="url(#filter0_f)">
<path d="M41.7976 21.4418C41.7976 19.8427 40.134 18.3941 37.4694 17.3412M12.1743 21.4418C12.1743 19.8497 13.8235 18.4066 16.4679 17.3549" stroke="url(#paint6_linear)" stroke-width="0.541085"/>
</g>
<path d="M41.7976 13.238C41.7976 16.4562 35.0599 19.065 26.986 19.065C18.912 19.065 12.1743 16.4562 12.1743 13.238" stroke="#3AC43F" stroke-width="0.541085"/>
<path d="M41.7976 21.5771C41.7976 24.7953 35.0599 27.4041 26.986 27.4041C18.912 27.4041 12.1743 24.7953 12.1743 21.5771" stroke="#3AC43F" stroke-width="0.541085"/>
</g>
<g opacity="0.6" filter="url(#filter1_f)">
<path d="M13.1263 15.0399L12.4522 13.9806L11.9995 21.9838L12.5099 22.5424L13.9546 24.1218L15.9193 25.3064L18.6833 26.2984L21.3607 26.9051L24.9722 27.2229H29.2483L33.9963 26.568L36.5003 26.0191L39.0429 24.796L40.3334 23.9774L41.2965 23.1587L41.8839 22.4268L41.9995 13.865L41.335 14.6932L39.6689 16.2342L36.6159 17.5729C35.5116 17.8425 33.2933 18.3857 33.2547 18.4011C33.2162 18.4165 30.8631 18.6965 29.6913 18.8345L26.3591 18.9886L23.2194 18.7189L19.4152 18.0544L16.3141 17.1587L13.1263 15.0399Z" fill="url(#paint7_linear)"/>
</g>
<path opacity="0.3" d="M41.4219 14.5283L41.4393 22.8028" stroke="#3BC740" stroke-width="0.541085"/>
<g filter="url(#filter2_i)">
<path d="M26.2655 1.91942C26.5346 1.65984 26.9835 1.85054 26.9835 2.22442V6.91401H22.1376C21.7564 6.91401 21.569 6.44991 21.8434 6.18524L26.2655 1.91942Z" fill="url(#paint8_linear)"/>
<path d="M27.7015 9.73409C27.4324 9.99366 26.9835 9.80297 26.9835 9.42909V4.73949H31.8295C32.2107 4.73949 32.3981 5.20359 32.1237 5.46827L27.7015 9.73409Z" fill="url(#paint9_linear)"/>
</g>
<defs>
<filter id="filter0_f" x="11.4709" y="16.6567" width="31.0301" height="5.21798" filterUnits="userSpaceOnUse" color-interpolation-filters="sRGB">
<feFlood flood-opacity="0" result="BackgroundImageFix"/>
<feBlend mode="normal" in="SourceGraphic" in2="BackgroundImageFix" result="shape"/>
<feGaussianBlur stdDeviation="0.216434" result="effect1_foregroundBlur"/>
</filter>
<filter id="filter1_f" x="0.0956326" y="1.96111" width="53.8078" height="37.1657" filterUnits="userSpaceOnUse" color-interpolation-filters="sRGB">
<feFlood flood-opacity="0" result="BackgroundImageFix"/>
<feBlend mode="normal" in="SourceGraphic" in2="BackgroundImageFix" result="shape"/>
<feGaussianBlur stdDeviation="5.95194" result="effect1_foregroundBlur"/>
</filter>
<filter id="filter2_i" x="21.7129" y="1.7998" width="10.5411" height="8.05392" filterUnits="userSpaceOnUse" color-interpolation-filters="sRGB">
<feFlood flood-opacity="0" result="BackgroundImageFix"/>
<feBlend mode="normal" in="SourceGraphic" in2="BackgroundImageFix" result="shape"/>
<feColorMatrix in="SourceAlpha" type="matrix" values="0 0 0 0 0 0 0 0 0 0 0 0 0 0 0 0 0 0 127 0" result="hardAlpha"/>
<feOffset dy="1.08217"/>
<feComposite in2="hardAlpha" operator="arithmetic" k2="-1" k3="1"/>
<feColorMatrix type="matrix" values="0 0 0 0 0.796078 0 0 0 0 0.843137 0 0 0 0 0.894118 0 0 0 1 0"/>
<feBlend mode="normal" in2="shape" result="effect1_innerShadow"/>
</filter>
<linearGradient id="paint0_linear" x1="39.6013" y1="24.62" x2="8.41722" y2="24.4698" gradientUnits="userSpaceOnUse">
<stop stop-color="#CED8E4"/>
<stop offset="0.665987" stop-color="white"/>
<stop offset="0.800848" stop-color="white"/>
<stop offset="1" stop-color="#BDCDDE"/>
</linearGradient>
<radialGradient id="paint1_radial" cx="0" cy="0" r="1" gradientUnits="userSpaceOnUse" gradientTransform="translate(21.4695 20.5134) rotate(-176.607) scale(19.0231 19.8001)">
<stop stop-color="#44D049" stop-opacity="0.21"/>
<stop offset="0.968694" stop-color="#44D049" stop-opacity="0"/>
</radialGradient>
<linearGradient id="paint2_linear" x1="62.3835" y1="-0.505894" x2="16.3815" y2="8.74133" gradientUnits="userSpaceOnUse">
<stop stop-color="#C4D2E1"/>
<stop offset="1" stop-color="#FCFDFE"/>
</linearGradient>
<linearGradient id="paint3_linear" x1="39.6013" y1="24.62" x2="8.41722" y2="24.4698" gradientUnits="userSpaceOnUse">
<stop stop-color="#CED8E4"/>
<stop offset="0.665987" stop-color="#FDFDFE"/>
<stop offset="0.800848" stop-color="#FDFDFE"/>
<stop offset="1" stop-color="#BDCDDE"/>
</linearGradient>
<linearGradient id="paint4_linear" x1="42.7593" y1="18.9372" x2="11.873" y2="19.6277" gradientUnits="userSpaceOnUse">
<stop stop-color="#6AEB6E"/>
<stop offset="0.0805294" stop-color="#10D414"/>
<stop offset="0.791522" stop-color="#78EF7A"/>
<stop offset="0.907232" stop-color="#77EF7A"/>
<stop offset="1" stop-color="#3AC43F"/>
</linearGradient>
<linearGradient id="paint5_linear" x1="43.0254" y1="18.4121" x2="12.4837" y2="19.6196" gradientUnits="userSpaceOnUse">
<stop stop-color="white"/>
<stop offset="0.193368" stop-color="#10D414"/>
<stop offset="0.791522" stop-color="#A4F4A6"/>
<stop offset="0.907232" stop-color="#A9F4AB"/>
<stop offset="1" stop-color="#3AC43F"/>
</linearGradient>
<linearGradient id="paint6_linear" x1="13.4389" y1="20.3657" x2="41.3936" y2="19.0269" gradientUnits="userSpaceOnUse">
<stop stop-color="#3ACC3F"/>
<stop offset="0.123246" stop-color="#3ACC3F" stop-opacity="0"/>
<stop offset="0.912857" stop-color="#3ACC3F" stop-opacity="0.118365"/>
<stop offset="1" stop-color="#3ACC3F"/>
</linearGradient>
<linearGradient id="paint7_linear" x1="41.5355" y1="18.7357" x2="12.7681" y2="19.2769" gradientUnits="userSpaceOnUse">
<stop stop-color="#6AEB6E"/>
<stop offset="0.110357" stop-color="#10D414"/>
<stop offset="0.791522" stop-color="#78EF7A"/>
<stop offset="0.907232" stop-color="#77EF7A"/>
<stop offset="1" stop-color="#3AC43F"/>
</linearGradient>
<linearGradient id="paint8_linear" x1="35.9613" y1="5.35882" x2="18.006" y2="4.44128" gradientUnits="userSpaceOnUse">
<stop stop-color="#FBFCFE"/>
<stop offset="1" stop-color="#CAD6E3"/>
</linearGradient>
<linearGradient id="paint9_linear" x1="35.9613" y1="5.35882" x2="18.006" y2="4.44128" gradientUnits="userSpaceOnUse">
<stop stop-color="#FBFCFE"/>
<stop offset="1" stop-color="#CAD6E3"/>
</linearGradient>
</defs>
</svg>

