<svg width="128" height="130" viewBox="0 0 128 130" fill="none" xmlns="http://www.w3.org/2000/svg">
<path d="M1.449 120V105.3H10.815V107.589H3.99V111.453H10.227V113.742H3.99V117.711H10.92V120H1.449ZM12.2989 120L16.1629 114.771L12.3619 109.626H15.1759L17.7169 113.217H18.0739L20.6149 109.626H23.4079L19.6069 114.771L23.4709 120H20.6359L18.0739 116.346H17.7169L15.1549 120H12.2989ZM29.5777 120C28.9057 120 28.3667 119.804 27.9607 119.412C27.5687 119.006 27.3727 118.46 27.3727 117.774V111.621H24.6637V109.626H27.3727V106.287H29.7877V109.626H32.7697V111.621H29.7877V117.375C29.7877 117.795 29.9837 118.005 30.3757 118.005H32.4547V120H29.5777ZM39.6042 120.294C38.5682 120.294 37.6512 120.077 36.8532 119.643C36.0692 119.195 35.4532 118.572 35.0052 117.774C34.5712 116.962 34.3542 116.017 34.3542 114.939V114.687C34.3542 113.595 34.5712 112.65 35.0052 111.852C35.4392 111.054 36.0482 110.438 36.8322 110.004C37.6162 109.556 38.5192 109.332 39.5412 109.332C40.5492 109.332 41.4312 109.556 42.1872 110.004C42.9432 110.438 43.5312 111.054 43.9512 111.852C44.3712 112.65 44.5812 113.581 44.5812 114.645V115.506H36.7902C36.8182 116.318 37.1052 116.969 37.6512 117.459C38.1972 117.949 38.8692 118.194 39.6672 118.194C40.4512 118.194 41.0322 118.026 41.4102 117.69C41.7882 117.34 42.0752 116.948 42.2712 116.514L44.2662 117.543C44.0702 117.921 43.7832 118.327 43.4052 118.761C43.0412 119.181 42.5512 119.545 41.9352 119.853C41.3192 120.147 40.5422 120.294 39.6042 120.294ZM36.8112 113.679H42.1242C42.0682 112.993 41.8022 112.447 41.3262 112.041C40.8642 111.635 40.2622 111.432 39.5202 111.432C38.7502 111.432 38.1342 111.635 37.6722 112.041C37.2102 112.447 36.9232 112.993 36.8112 113.679ZM47.0603 120V109.626H49.4333V111.075H49.7903C49.9723 110.683 50.3013 110.312 50.7773 109.962C51.2533 109.612 51.9743 109.437 52.9403 109.437C53.7383 109.437 54.4453 109.619 55.0613 109.983C55.6773 110.347 56.1533 110.851 56.4893 111.495C56.8393 112.139 57.0143 112.902 57.0143 113.784V120H54.5993V113.973C54.5993 113.133 54.3893 112.51 53.9693 112.104C53.5633 111.684 52.9823 111.474 52.2263 111.474C51.3723 111.474 50.7003 111.761 50.2103 112.335C49.7203 112.895 49.4753 113.7 49.4753 114.75V120H47.0603ZM64.2643 120.294C62.9203 120.294 61.8143 120 60.9463 119.412C60.0783 118.824 59.5533 117.963 59.3713 116.829L61.5973 116.262C61.6953 116.794 61.8703 117.214 62.1223 117.522C62.3743 117.83 62.6823 118.047 63.0463 118.173C63.4243 118.299 63.8303 118.362 64.2643 118.362C64.9223 118.362 65.4123 118.243 65.7343 118.005C66.0703 117.767 66.2383 117.466 66.2383 117.102C66.2383 116.724 66.0773 116.444 65.7553 116.262C65.4473 116.08 64.9713 115.926 64.3273 115.8L63.6763 115.695C62.9623 115.555 62.3113 115.366 61.7233 115.128C61.1353 114.876 60.6593 114.54 60.2953 114.12C59.9453 113.686 59.7703 113.14 59.7703 112.482C59.7703 111.474 60.1413 110.697 60.8833 110.151C61.6393 109.605 62.6263 109.332 63.8443 109.332C65.0063 109.332 65.9653 109.591 66.7213 110.109C67.4773 110.627 67.9673 111.32 68.1913 112.188L65.9653 112.86C65.8533 112.272 65.6083 111.859 65.2303 111.621C64.8523 111.369 64.3903 111.243 63.8443 111.243C63.2843 111.243 62.8503 111.341 62.5423 111.537C62.2483 111.733 62.1013 112.013 62.1013 112.377C62.1013 112.741 62.2553 113.014 62.5633 113.196C62.8713 113.378 63.2843 113.511 63.8023 113.595L64.4533 113.721C65.2233 113.861 65.9163 114.043 66.5323 114.267C67.1623 114.491 67.6593 114.813 68.0233 115.233C68.3873 115.653 68.5693 116.22 68.5693 116.934C68.5693 118.012 68.1773 118.845 67.3933 119.433C66.6233 120.007 65.5803 120.294 64.2643 120.294ZM71.0135 120V109.626H73.4285V120H71.0135ZM72.2105 108.303C71.7765 108.303 71.3985 108.163 71.0765 107.883C70.7685 107.589 70.6145 107.204 70.6145 106.728C70.6145 106.252 70.7685 105.874 71.0765 105.594C71.3985 105.3 71.7765 105.153 72.2105 105.153C72.6725 105.153 73.0505 105.3 73.3445 105.594C73.6525 105.874 73.8065 106.252 73.8065 106.728C73.8065 107.204 73.6525 107.589 73.3445 107.883C73.0505 108.163 72.6725 108.303 72.2105 108.303ZM82.6211 120.294C81.6411 120.294 80.8851 120.126 80.3531 119.79C79.8351 119.44 79.4571 119.055 79.2191 118.635H78.8621V120H76.4891V105.3H78.9041V110.928H79.2611C79.4151 110.648 79.6251 110.389 79.8911 110.151C80.1711 109.913 80.5281 109.717 80.9621 109.563C81.4101 109.409 81.9631 109.332 82.6211 109.332C83.4751 109.332 84.2591 109.542 84.9731 109.962C85.6871 110.368 86.2611 110.97 86.6951 111.768C87.1291 112.566 87.3461 113.525 87.3461 114.645V114.981C87.3461 116.101 87.1291 117.06 86.6951 117.858C86.2611 118.656 85.6801 119.265 84.9521 119.685C84.2381 120.091 83.4611 120.294 82.6211 120.294ZM81.9071 118.194C82.7751 118.194 83.4961 117.914 84.0701 117.354C84.6441 116.78 84.9311 115.968 84.9311 114.918V114.708C84.9311 113.644 84.6441 112.832 84.0701 112.272C83.5101 111.712 82.7891 111.432 81.9071 111.432C81.0391 111.432 80.3111 111.712 79.7231 112.272C79.1491 112.832 78.8621 113.644 78.8621 114.708V114.918C78.8621 115.968 79.1491 116.78 79.7231 117.354C80.3111 117.914 81.0391 118.194 81.9071 118.194ZM89.9012 120V109.626H92.3162V120H89.9012ZM91.0982 108.303C90.6642 108.303 90.2862 108.163 89.9642 107.883C89.6562 107.589 89.5022 107.204 89.5022 106.728C89.5022 106.252 89.6562 105.874 89.9642 105.594C90.2862 105.3 90.6642 105.153 91.0982 105.153C91.5602 105.153 91.9382 105.3 92.2322 105.594C92.5402 105.874 92.6942 106.252 92.6942 106.728C92.6942 107.204 92.5402 107.589 92.2322 107.883C91.9382 108.163 91.5602 108.303 91.0982 108.303ZM95.3768 120V105.3H97.7918V120H95.3768ZM100.852 120V109.626H103.267V120H100.852ZM102.049 108.303C101.615 108.303 101.237 108.163 100.915 107.883C100.607 107.589 100.453 107.204 100.453 106.728C100.453 106.252 100.607 105.874 100.915 105.594C101.237 105.3 101.615 105.153 102.049 105.153C102.511 105.153 102.889 105.3 103.183 105.594C103.491 105.874 103.645 106.252 103.645 106.728C103.645 107.204 103.491 107.589 103.183 107.883C102.889 108.163 102.511 108.303 102.049 108.303ZM110.276 120C109.604 120 109.065 119.804 108.659 119.412C108.267 119.006 108.071 118.46 108.071 117.774V111.621H105.362V109.626H108.071V106.287H110.486V109.626H113.468V111.621H110.486V117.375C110.486 117.795 110.682 118.005 111.074 118.005H113.153V120H110.276ZM117.081 124.2V122.1H122.814C123.206 122.1 123.402 121.89 123.402 121.47V118.572H123.045C122.933 118.824 122.751 119.076 122.499 119.328C122.247 119.566 121.911 119.769 121.491 119.937C121.071 120.091 120.539 120.168 119.895 120.168C119.097 120.168 118.39 119.993 117.774 119.643C117.158 119.279 116.682 118.775 116.346 118.131C116.01 117.473 115.842 116.71 115.842 115.842V109.626H118.236V115.653C118.236 116.493 118.439 117.116 118.845 117.522C119.265 117.928 119.853 118.131 120.609 118.131C121.463 118.131 122.135 117.851 122.625 117.291C123.129 116.731 123.381 115.926 123.381 114.876V109.626H125.775V121.974C125.775 122.66 125.579 123.199 125.187 123.591C124.795 123.997 124.263 124.2 123.591 124.2H117.081Z" fill="#252A36"/>
<path d="M17.1222 21.7333C17.1222 18.6344 19.6344 16.1222 22.7333 16.1222H45.5111H87.7778C93.3559 16.1222 97.8778 20.6441 97.8778 26.2222V60.3947V77.2667C97.8778 80.3656 95.3656 82.8778 92.2667 82.8778H22.7333C19.6344 82.8778 17.1222 80.3656 17.1222 77.2667V21.7333Z" fill="#FDFDFE" stroke="#DBE3EB" stroke-width="2.24444"/>
<g filter="url(#filter0_ii)">
<rect x="45.6445" width="78.5556" height="65.0889" rx="6.73333" fill="url(#paint0_linear)"/>
</g>
<rect x="46.7668" y="1.12222" width="76.3111" height="62.8444" rx="5.61111" stroke="#1286F6" stroke-width="2.24444"/>
<g filter="url(#filter1_ii)">
<rect x="46.7668" y="1.12222" width="76.3111" height="62.8444" rx="5.61111" stroke="#1286F6" stroke-width="2.24444"/>
</g>
<g style="mix-blend-mode:multiply" filter="url(#filter2_f)">
<path d="M48 16L91.7003 16.2795C95.4022 16.3032 98.3906 19.3108 98.3906 23.0127V62.5" stroke="#DBE3EB" stroke-width="2.24444"/>
</g>
<g filter="url(#filter3_d)">
<path d="M84.9203 16V32.5443M84.9203 49.0887V32.5443M84.9203 32.5443H68.376M84.9203 32.5443H101.465" stroke="white" stroke-width="5"/>
</g>
<defs>
<filter id="filter0_ii" x="45.6445" y="-4.48889" width="78.5556" height="74.0667" filterUnits="userSpaceOnUse" color-interpolation-filters="sRGB">
<feFlood flood-opacity="0" result="BackgroundImageFix"/>
<feBlend mode="normal" in="SourceGraphic" in2="BackgroundImageFix" result="shape"/>
<feColorMatrix in="SourceAlpha" type="matrix" values="0 0 0 0 0 0 0 0 0 0 0 0 0 0 0 0 0 0 127 0" result="hardAlpha"/>
<feOffset dy="4.48889"/>
<feGaussianBlur stdDeviation="3.36667"/>
<feComposite in2="hardAlpha" operator="arithmetic" k2="-1" k3="1"/>
<feColorMatrix type="matrix" values="0 0 0 0 1 0 0 0 0 1 0 0 0 0 1 0 0 0 0.57 0"/>
<feBlend mode="normal" in2="shape" result="effect1_innerShadow"/>
<feColorMatrix in="SourceAlpha" type="matrix" values="0 0 0 0 0 0 0 0 0 0 0 0 0 0 0 0 0 0 127 0" result="hardAlpha"/>
<feOffset dy="-4.48889"/>
<feGaussianBlur stdDeviation="4.48889"/>
<feComposite in2="hardAlpha" operator="arithmetic" k2="-1" k3="1"/>
<feColorMatrix type="matrix" values="0 0 0 0 0.0295833 0 0 0 0 0.466067 0 0 0 0 0.8875 0 0 0 1 0"/>
<feBlend mode="normal" in2="effect1_innerShadow" result="effect2_innerShadow"/>
</filter>
<filter id="filter1_ii" x="45.6445" y="-4.48889" width="78.5556" height="74.0667" filterUnits="userSpaceOnUse" color-interpolation-filters="sRGB">
<feFlood flood-opacity="0" result="BackgroundImageFix"/>
<feBlend mode="normal" in="SourceGraphic" in2="BackgroundImageFix" result="shape"/>
<feColorMatrix in="SourceAlpha" type="matrix" values="0 0 0 0 0 0 0 0 0 0 0 0 0 0 0 0 0 0 127 0" result="hardAlpha"/>
<feOffset dy="4.48889"/>
<feGaussianBlur stdDeviation="3.36667"/>
<feComposite in2="hardAlpha" operator="arithmetic" k2="-1" k3="1"/>
<feColorMatrix type="matrix" values="0 0 0 0 1 0 0 0 0 1 0 0 0 0 1 0 0 0 0.57 0"/>
<feBlend mode="normal" in2="shape" result="effect1_innerShadow"/>
<feColorMatrix in="SourceAlpha" type="matrix" values="0 0 0 0 0 0 0 0 0 0 0 0 0 0 0 0 0 0 127 0" result="hardAlpha"/>
<feOffset dy="-4.48889"/>
<feGaussianBlur stdDeviation="4.48889"/>
<feComposite in2="hardAlpha" operator="arithmetic" k2="-1" k3="1"/>
<feColorMatrix type="matrix" values="0 0 0 0 0.0295833 0 0 0 0 0.466067 0 0 0 0 0.8875 0 0 0 1 0"/>
<feBlend mode="normal" in2="effect1_innerShadow" result="effect2_innerShadow"/>
</filter>
<filter id="filter2_f" x="45.7487" y="12.6334" width="56.0089" height="52.1111" filterUnits="userSpaceOnUse" color-interpolation-filters="sRGB">
<feFlood flood-opacity="0" result="BackgroundImageFix"/>
<feBlend mode="normal" in="SourceGraphic" in2="BackgroundImageFix" result="shape"/>
<feGaussianBlur stdDeviation="1.12222" result="effect1_foregroundBlur"/>
</filter>
<filter id="filter3_d" x="61.6426" y="9.26667" width="46.5553" height="46.5553" filterUnits="userSpaceOnUse" color-interpolation-filters="sRGB">
<feFlood flood-opacity="0" result="BackgroundImageFix"/>
<feColorMatrix in="SourceAlpha" type="matrix" values="0 0 0 0 0 0 0 0 0 0 0 0 0 0 0 0 0 0 127 0"/>
<feOffset/>
<feGaussianBlur stdDeviation="3.36667"/>
<feColorMatrix type="matrix" values="0 0 0 0 1 0 0 0 0 1 0 0 0 0 1 0 0 0 1 0"/>
<feBlend mode="normal" in2="BackgroundImageFix" result="effect1_dropShadow"/>
<feBlend mode="normal" in="SourceGraphic" in2="effect1_dropShadow" result="shape"/>
</filter>
<linearGradient id="paint0_linear" x1="51.2556" y1="7.65752" x2="123.796" y2="71.0696" gradientUnits="userSpaceOnUse">
<stop stop-color="#17B6FB"/>
<stop offset="1" stop-color="#128FF6"/>
</linearGradient>
</defs>
</svg>

