<svg width="108" height="132" viewBox="0 0 108 132" fill="none" xmlns="http://www.w3.org/2000/svg">
<path d="M72 71.0656C72 71.1758 71.9984 71.2717 71.9887 71.3814C71.8173 73.3042 69.2744 93 37 93C4.7256 93 2.18269 73.3042 2.01134 71.3814C2.00156 71.2717 2 71.1758 2 71.0656L2.00001 30.7333C2.00001 27.0146 3.10397 26.6712 4.56578 30.0906C7.31901 36.5308 14.3307 45.7691 37.3763 45.7691C59.8421 45.7691 66.8472 36.604 69.57 30.1674C71.0189 26.7426 72 27.0146 72 30.7333L72 71.0656Z" stroke="#DAE2EB" stroke-width="2.24444"/>
<path d="M3.449 122V107.3H12.605V109.589H5.99V113.474H12.08V115.784H5.99V122H3.449ZM14.7713 122V107.3H17.1863V122H14.7713ZM24.9929 122.294C23.9569 122.294 23.0399 122.077 22.2419 121.643C21.4579 121.195 20.8419 120.572 20.3939 119.774C19.9599 118.962 19.7429 118.017 19.7429 116.939V116.687C19.7429 115.595 19.9599 114.65 20.3939 113.852C20.8279 113.054 21.4369 112.438 22.2209 112.004C23.0049 111.556 23.9079 111.332 24.9299 111.332C25.9379 111.332 26.8199 111.556 27.5759 112.004C28.3319 112.438 28.9199 113.054 29.3399 113.852C29.7599 114.65 29.9699 115.581 29.9699 116.645V117.506H22.1789C22.2069 118.318 22.4939 118.969 23.0399 119.459C23.5859 119.949 24.2579 120.194 25.0559 120.194C25.8399 120.194 26.4209 120.026 26.7989 119.69C27.1769 119.34 27.4639 118.948 27.6599 118.514L29.6549 119.543C29.4589 119.921 29.1719 120.327 28.7939 120.761C28.4299 121.181 27.9399 121.545 27.3239 121.853C26.7079 122.147 25.9309 122.294 24.9929 122.294ZM22.1999 115.679H27.5129C27.4569 114.993 27.1909 114.447 26.7149 114.041C26.2529 113.635 25.6509 113.432 24.9089 113.432C24.1389 113.432 23.5229 113.635 23.0609 114.041C22.5989 114.447 22.3119 114.993 22.1999 115.679ZM30.8693 122L34.7333 116.771L30.9323 111.626H33.7463L36.2873 115.217H36.6443L39.1853 111.626H41.9783L38.1773 116.771L42.0413 122H39.2063L36.6443 118.346H36.2873L33.7253 122H30.8693ZM47.2284 122.294C46.5004 122.294 45.8424 122.168 45.2544 121.916C44.6664 121.65 44.1974 121.272 43.8474 120.782C43.5114 120.292 43.3434 119.69 43.3434 118.976C43.3434 118.276 43.5114 117.688 43.8474 117.212C44.1974 116.736 44.6734 116.379 45.2754 116.141C45.8774 115.889 46.5634 115.763 47.3334 115.763H50.3364V115.133C50.3364 114.587 50.1684 114.146 49.8324 113.81C49.4964 113.46 48.9714 113.285 48.2574 113.285C47.5574 113.285 47.0254 113.453 46.6614 113.789C46.3114 114.111 46.0804 114.531 45.9684 115.049L43.7424 114.314C43.9104 113.768 44.1764 113.271 44.5404 112.823C44.9184 112.375 45.4154 112.018 46.0314 111.752C46.6474 111.472 47.4034 111.332 48.2994 111.332C49.6574 111.332 50.7214 111.675 51.4914 112.361C52.2754 113.033 52.6674 114.013 52.6674 115.301V119.375C52.6674 119.795 52.8634 120.005 53.2554 120.005H54.1374V122H52.4364C51.9324 122 51.5194 121.874 51.1974 121.622C50.8754 121.37 50.7144 121.027 50.7144 120.593V120.551H50.3574C50.2734 120.747 50.1264 120.985 49.9164 121.265C49.7064 121.545 49.3844 121.79 48.9504 122C48.5304 122.196 47.9564 122.294 47.2284 122.294ZM47.6274 120.32C48.4254 120.32 49.0764 120.096 49.5804 119.648C50.0844 119.186 50.3364 118.57 50.3364 117.8V117.59H47.4804C46.9624 117.59 46.5424 117.702 46.2204 117.926C45.8984 118.15 45.7374 118.479 45.7374 118.913C45.7374 119.333 45.9054 119.676 46.2414 119.942C46.5774 120.194 47.0394 120.32 47.6274 120.32ZM62.2675 122.294C61.2875 122.294 60.5315 122.126 59.9995 121.79C59.4815 121.44 59.1035 121.055 58.8655 120.635H58.5085V122H56.1355V107.3H58.5505V112.928H58.9075C59.0615 112.648 59.2715 112.389 59.5375 112.151C59.8175 111.913 60.1745 111.717 60.6085 111.563C61.0565 111.409 61.6095 111.332 62.2675 111.332C63.1215 111.332 63.9055 111.542 64.6195 111.962C65.3335 112.368 65.9075 112.97 66.3415 113.768C66.7755 114.566 66.9925 115.525 66.9925 116.645V116.981C66.9925 118.101 66.7755 119.06 66.3415 119.858C65.9075 120.656 65.3265 121.265 64.5985 121.685C63.8845 122.091 63.1075 122.294 62.2675 122.294ZM61.5535 120.194C62.4215 120.194 63.1425 119.914 63.7165 119.354C64.2905 118.78 64.5775 117.968 64.5775 116.918V116.708C64.5775 115.644 64.2905 114.832 63.7165 114.272C63.1565 113.712 62.4355 113.432 61.5535 113.432C60.6855 113.432 59.9575 113.712 59.3695 114.272C58.7955 114.832 58.5085 115.644 58.5085 116.708V116.918C58.5085 117.968 58.7955 118.78 59.3695 119.354C59.9575 119.914 60.6855 120.194 61.5535 120.194ZM69.5476 122V111.626H71.9626V122H69.5476ZM70.7446 110.303C70.3106 110.303 69.9326 110.163 69.6106 109.883C69.3026 109.589 69.1486 109.204 69.1486 108.728C69.1486 108.252 69.3026 107.874 69.6106 107.594C69.9326 107.3 70.3106 107.153 70.7446 107.153C71.2066 107.153 71.5846 107.3 71.8786 107.594C72.1866 107.874 72.3406 108.252 72.3406 108.728C72.3406 109.204 72.1866 109.589 71.8786 109.883C71.5846 110.163 71.2066 110.303 70.7446 110.303ZM75.0232 122V107.3H77.4382V122H75.0232ZM80.4988 122V111.626H82.9138V122H80.4988ZM81.6958 110.303C81.2618 110.303 80.8838 110.163 80.5618 109.883C80.2538 109.589 80.0998 109.204 80.0998 108.728C80.0998 108.252 80.2538 107.874 80.5618 107.594C80.8838 107.3 81.2618 107.153 81.6958 107.153C82.1578 107.153 82.5358 107.3 82.8298 107.594C83.1378 107.874 83.2918 108.252 83.2918 108.728C83.2918 109.204 83.1378 109.589 82.8298 109.883C82.5358 110.163 82.1578 110.303 81.6958 110.303ZM89.9224 122C89.2504 122 88.7114 121.804 88.3054 121.412C87.9134 121.006 87.7174 120.46 87.7174 119.774V113.621H85.0084V111.626H87.7174V108.287H90.1324V111.626H93.1144V113.621H90.1324V119.375C90.1324 119.795 90.3284 120.005 90.7204 120.005H92.7994V122H89.9224ZM96.7271 126.2V124.1H102.46C102.852 124.1 103.048 123.89 103.048 123.47V120.572H102.691C102.579 120.824 102.397 121.076 102.145 121.328C101.893 121.566 101.557 121.769 101.137 121.937C100.717 122.091 100.185 122.168 99.5411 122.168C98.7431 122.168 98.0361 121.993 97.4201 121.643C96.8041 121.279 96.3281 120.775 95.9921 120.131C95.6561 119.473 95.4881 118.71 95.4881 117.842V111.626H97.8821V117.653C97.8821 118.493 98.0851 119.116 98.4911 119.522C98.9111 119.928 99.4991 120.131 100.255 120.131C101.109 120.131 101.781 119.851 102.271 119.291C102.775 118.731 103.027 117.926 103.027 116.876V111.626H105.421V123.974C105.421 124.66 105.225 125.199 104.833 125.591C104.441 125.997 103.909 126.2 103.237 126.2H96.7271Z" fill="#252A36"/>
<g filter="url(#filter0_ii)">
<path d="M38 21.9344C38 21.8242 38.0016 21.7283 38.0113 21.6186C38.1827 19.6958 40.7256 0 73 0C105.274 0 107.817 19.6958 107.989 21.6186C107.998 21.7283 108 21.8242 108 21.9344V63C108 66.3137 106.934 66.6721 105.715 63.5909C103.163 57.1437 96.4958 47.2309 72.6237 47.2309C49.352 47.2309 42.6702 57.0653 40.153 63.5141C38.9481 66.601 38 66.3137 38 63V21.9344Z" fill="url(#paint0_linear)"/>
</g>
<path d="M106.871 21.7181C106.876 21.7781 106.878 21.835 106.878 21.9344V63C106.878 63.1599 106.875 63.3104 106.87 63.4516C106.833 63.3648 106.796 63.2737 106.758 63.178C105.426 59.8115 103 55.5042 97.7831 52.0569C92.5797 48.6185 84.7109 46.1087 72.6237 46.1087C60.8329 46.1087 53.1098 48.6005 47.9826 52.0206C42.8634 55.4355 40.4414 59.7033 39.1224 63.0683C39.1223 63.0457 39.1222 63.0229 39.1222 63V21.9344C39.1222 21.8349 39.1238 21.7781 39.1291 21.7182C39.2032 20.8874 39.8336 15.7568 44.2977 10.8428C48.7319 5.96172 57.1062 1.12222 73 1.12222C88.8938 1.12222 97.2681 5.96172 101.702 10.8428C106.166 15.7567 106.797 20.8871 106.871 21.7181ZM106.871 21.7181L107.989 21.6186L106.871 21.7182C106.871 21.7182 106.871 21.7181 106.871 21.7181Z" stroke="#FC4059" stroke-width="2.24444"/>
<g style="mix-blend-mode:multiply" filter="url(#filter1_f)">
<path d="M39.243 45.7474C60.2363 45.2536 66.9253 36.4205 69.5708 30.1657C71.0193 26.7407 72 27.0146 72 30.7333L72 46.5" stroke="#DBE3EB" stroke-width="2.24444"/>
</g>
<g filter="url(#filter2_d)">
<path d="M56 30L62 24C65.3137 20.6863 70.6863 20.6863 74 24V24C77.3137 27.3137 82.6863 27.3137 86 24L92 18" stroke="white" stroke-width="5"/>
</g>
<path d="M106.871 21.7181C106.876 21.7781 106.878 21.835 106.878 21.9344V63C106.878 63.1599 106.875 63.3104 106.87 63.4516C106.833 63.3648 106.796 63.2737 106.758 63.178C105.426 59.8115 103 55.5042 97.7831 52.0569C92.5797 48.6185 84.7109 46.1087 72.6237 46.1087C60.8329 46.1087 53.1098 48.6005 47.9826 52.0206C42.8634 55.4355 40.4414 59.7033 39.1224 63.0683C39.1223 63.0457 39.1222 63.0229 39.1222 63V21.9344C39.1222 21.8349 39.1238 21.7781 39.1291 21.7182C39.2032 20.8874 39.8336 15.7568 44.2977 10.8428C48.7319 5.96172 57.1062 1.12222 73 1.12222C88.8938 1.12222 97.2681 5.96172 101.702 10.8428C106.166 15.7567 106.797 20.8871 106.871 21.7181ZM106.871 21.7181L107.989 21.6186L106.871 21.7182C106.871 21.7182 106.871 21.7181 106.871 21.7181Z" stroke="#FC4059" stroke-width="2.24444"/>
<defs>
<filter id="filter0_ii" x="38" y="-4.48889" width="70" height="74.6845" filterUnits="userSpaceOnUse" color-interpolation-filters="sRGB">
<feFlood flood-opacity="0" result="BackgroundImageFix"/>
<feBlend mode="normal" in="SourceGraphic" in2="BackgroundImageFix" result="shape"/>
<feColorMatrix in="SourceAlpha" type="matrix" values="0 0 0 0 0 0 0 0 0 0 0 0 0 0 0 0 0 0 127 0" result="hardAlpha"/>
<feOffset dy="4.48889"/>
<feGaussianBlur stdDeviation="3.36667"/>
<feComposite in2="hardAlpha" operator="arithmetic" k2="-1" k3="1"/>
<feColorMatrix type="matrix" values="0 0 0 0 1 0 0 0 0 1 0 0 0 0 1 0 0 0 0.57 0"/>
<feBlend mode="normal" in2="shape" result="effect1_innerShadow"/>
<feColorMatrix in="SourceAlpha" type="matrix" values="0 0 0 0 0 0 0 0 0 0 0 0 0 0 0 0 0 0 127 0" result="hardAlpha"/>
<feOffset dy="-4.48889"/>
<feGaussianBlur stdDeviation="4.48889"/>
<feComposite in2="hardAlpha" operator="arithmetic" k2="-1" k3="1"/>
<feColorMatrix type="matrix" values="0 0 0 0 0.883333 0 0 0 0 0.0772917 0 0 0 0 0.185051 0 0 0 1 0"/>
<feBlend mode="normal" in2="effect1_innerShadow" result="effect2_innerShadow"/>
</filter>
<filter id="filter1_f" x="36.9724" y="24.3941" width="38.3945" height="24.7197" filterUnits="userSpaceOnUse" color-interpolation-filters="sRGB">
<feFlood flood-opacity="0" result="BackgroundImageFix"/>
<feBlend mode="normal" in="SourceGraphic" in2="BackgroundImageFix" result="shape"/>
<feGaussianBlur stdDeviation="1.12222" result="effect1_foregroundBlur"/>
</filter>
<filter id="filter2_d" x="47.4991" y="9.49891" width="53.0022" height="29.0022" filterUnits="userSpaceOnUse" color-interpolation-filters="sRGB">
<feFlood flood-opacity="0" result="BackgroundImageFix"/>
<feColorMatrix in="SourceAlpha" type="matrix" values="0 0 0 0 0 0 0 0 0 0 0 0 0 0 0 0 0 0 127 0"/>
<feOffset/>
<feGaussianBlur stdDeviation="3.36667"/>
<feColorMatrix type="matrix" values="0 0 0 0 1 0 0 0 0 1 0 0 0 0 1 0 0 0 1 0"/>
<feBlend mode="normal" in2="BackgroundImageFix" result="effect1_dropShadow"/>
<feBlend mode="normal" in="SourceGraphic" in2="effect1_dropShadow" result="shape"/>
</filter>
<linearGradient id="paint0_linear" x1="43" y1="27.3257" x2="95.9811" y2="84.2002" gradientUnits="userSpaceOnUse">
<stop stop-color="#FF919F"/>
<stop offset="1" stop-color="#FB4059"/>
</linearGradient>
</defs>
</svg>

