<svg width="484" height="741" viewBox="0 0 484 741" fill="none" xmlns="http://www.w3.org/2000/svg">
<path d="M283 137V34C283 16.3269 268.673 2 251 2C233.327 2 219 16.3269 219 34C219 51.6731 233.327 66 251 66H405" stroke="#FF6F89" stroke-width="3" stroke-linecap="round" stroke-dasharray="2 8"/>
<path d="M195 733V566.066C195 546.175 187.098 527.098 173.033 513.033L53.8665 393.866C42.4268 382.427 36 366.911 36 350.733V297.5M36 146V181M36 207V280.5" stroke="#E3A900" stroke-width="3"/>
<path d="M229.5 741V537M141 242V301M229.5 515V492L149.257 412.211C143.972 406.955 141 399.809 141 392.356V353.5" stroke="#FFCC36" stroke-width="3"/>
<path d="M300 540V483.516C300 470.096 305.504 457.264 315.226 448.015L367.952 397.854C383.627 382.941 392.5 362.253 392.5 340.618V224.5" stroke="#E3A900" stroke-width="3"/>
<path d="M283 173L283 405.602C283 411.644 280.721 417.464 276.618 421.899L270.882 428.101C266.779 432.536 264.5 438.356 264.5 444.398L264.5 723" stroke="#FABA00" stroke-width="3"/>
<path d="M229 409L229 309" stroke="#FABA00" stroke-width="3"/>
<path d="M315 324V252" stroke="#FABA00" stroke-width="3"/>
<path d="M300 722L300 567" stroke="#FABA00" stroke-width="3"/>
<circle cx="32" cy="125" r="32" fill="#252A36"/>
<circle cx="137" cy="206" r="32" fill="#FCD76A"/>
<g opacity="0.7">
<path d="M136.5 187C133.958 187 131.561 187.491 129.308 188.473C127.055 189.426 125.091 190.74 123.416 192.416C121.74 194.091 120.426 196.055 119.473 198.308C118.491 200.561 118 202.958 118 205.5C118 208.042 118.491 210.439 119.473 212.692C120.426 214.945 121.74 216.909 123.416 218.584C125.091 220.26 127.055 221.574 129.308 222.527C131.561 223.509 133.958 224 136.5 224C139.042 224 141.439 223.509 143.692 222.527C145.945 221.574 147.909 220.26 149.584 218.584C151.26 216.909 152.574 214.945 153.527 212.692C154.509 210.439 155 208.042 155 205.5C155 202.958 154.509 200.561 153.527 198.308C152.574 196.055 151.26 194.091 149.584 192.416C147.909 190.74 145.945 189.426 143.692 188.473C141.439 187.491 139.042 187 136.5 187ZM136.5 220.274C134.449 220.274 132.529 219.884 130.738 219.104C128.947 218.353 127.38 217.306 126.037 215.963C124.694 214.62 123.647 213.053 122.896 211.262C122.116 209.471 121.726 207.551 121.726 205.5C121.726 203.449 122.116 201.529 122.896 199.738C123.647 197.947 124.694 196.38 126.037 195.037C127.38 193.694 128.947 192.647 130.738 191.896C132.529 191.116 134.449 190.726 136.5 190.726C138.551 190.726 140.471 191.116 142.262 191.896C144.053 192.647 145.62 193.694 146.963 195.037C148.306 196.38 149.353 197.947 150.104 199.738C150.884 201.529 151.274 203.449 151.274 205.5C151.274 207.551 150.884 209.471 150.104 211.262C149.353 213.053 148.306 214.62 146.963 215.963C145.62 217.306 144.053 218.353 142.262 219.104C140.471 219.884 138.551 220.274 136.5 220.274ZM132.817 202.727C132.817 203.507 132.543 204.164 131.994 204.698C131.445 205.233 130.795 205.5 130.044 205.5C129.265 205.5 128.608 205.233 128.073 204.698C127.539 204.164 127.272 203.507 127.272 202.727C127.272 201.947 127.539 201.29 128.073 200.756C128.608 200.222 129.265 199.954 130.044 199.954C130.795 199.954 131.445 200.222 131.994 200.756C132.543 201.29 132.817 201.947 132.817 202.727ZM145.728 202.727C145.728 203.478 145.454 204.121 144.905 204.655C144.356 205.19 143.706 205.457 142.956 205.457C142.205 205.457 141.555 205.19 141.006 204.655C140.457 204.121 140.183 203.478 140.183 202.727C140.183 201.947 140.457 201.29 141.006 200.756C141.555 200.222 142.205 199.954 142.956 199.954C143.706 199.954 144.356 200.222 144.905 200.756C145.454 201.29 145.728 201.947 145.728 202.727ZM129.351 214.728L128.875 211.046L143.649 209.226L144.125 212.865L129.351 214.728Z" fill="black"/>
</g>
<circle cx="229" cy="273" r="32" fill="#FABA00"/>
<path d="M218.48 267.8L214.096 274.936V276.792H219.664V279H221.776V276.792H223.6V274.872H221.776V267.8H218.48ZM219.472 269.624H219.664V274.872H216.304L219.472 269.624ZM224.183 272.088V274.712C224.183 277.656 225.911 279.224 228.471 279.224C231.031 279.224 232.759 277.656 232.759 274.712V272.088C232.759 269.24 231.031 267.576 228.471 267.576C225.911 267.576 224.183 269.24 224.183 272.088ZM226.295 271.992C226.295 270.504 227.095 269.464 228.471 269.464C229.799 269.464 230.647 270.44 230.647 271.992V274.808C230.647 276.328 229.975 277.336 228.471 277.336C227.015 277.336 226.295 276.392 226.295 274.808V271.992ZM237.714 267.8L233.33 274.936V276.792H238.898V279H241.01V276.792H242.834V274.872H241.01V267.8H237.714ZM238.706 269.624H238.898V274.872H235.538L238.706 269.624Z" fill="#8E6B04"/>
<circle cx="283" cy="134" r="32" fill="#F4BFFF"/>
<circle cx="393" cy="189" r="32" fill="#EAEFF5"/>
<path d="M390.863 184.025H394.216V192.767H390.863V184.025ZM390.863 194.532H394.216V198.02H390.863V194.532ZM395.464 173.847C395.178 173.272 394.775 172.821 394.255 172.493C393.735 172.164 393.163 172 392.539 172C391.915 172 391.344 172.164 390.824 172.493C390.304 172.821 389.901 173.272 389.615 173.847L377.371 198.144C377.111 198.691 376.988 199.265 377.001 199.867C377.014 200.469 377.176 201.044 377.488 201.591C377.774 202.111 378.171 202.521 378.678 202.822C379.185 203.123 379.737 203.274 380.335 203.274H404.744C405.342 203.274 405.894 203.123 406.401 202.822C406.908 202.521 407.304 202.111 407.59 201.591C407.902 201.044 408.065 200.469 408.078 199.867C408.091 199.265 407.967 198.691 407.707 198.144L395.464 173.847ZM380.335 199.785L392.539 175.489L404.744 199.785H380.335Z" fill="#51555E"/>
<circle cx="404" cy="66" r="32" fill="#FC536C"/>
<rect x="412.95" y="54.4501" width="3.67696" height="27.5772" transform="rotate(45 412.95 54.4501)" fill="white"/>
<rect x="415.55" y="73.9501" width="3.67696" height="27.5772" transform="rotate(135 415.55 73.9501)" fill="white"/>
<path d="M70 123H113C126.255 123 137 133.745 137 147V169" stroke="#FF6F89" stroke-width="3" stroke-linecap="round" stroke-dasharray="2 8"/>
<path d="M430 188H451C464.255 188 475 198.745 475 212V247" stroke="#EAEFF5" stroke-width="3" stroke-linecap="round"/>
<path d="M200.5 325H124C110.745 325 100 335.745 100 349V384" stroke="#EAEFF5" stroke-width="3" stroke-linecap="round"/>
<path d="M179 205L182 205C195.255 205 206 194.255 206 181L206 146" stroke="#EAEFF5" stroke-width="3" stroke-linecap="round"/>
<path d="M313 394L325 394C338.255 394 349 383.255 349 370L349 335" stroke="#EAEFF5" stroke-width="3" stroke-linecap="round"/>
<circle cx="141.5" cy="302.5" r="4.5" fill="#FFCC36"/>
<circle cx="229.5" cy="515.5" r="4.5" fill="#FFCC36"/>
<circle cx="36.5" cy="183.5" r="4.5" fill="#E3A900"/>
<circle cx="36.5" cy="283.5" r="4.5" fill="#E3A900"/>
<rect x="112.35" y="142.85" width="2.54558" height="19.0919" transform="rotate(45 112.35 142.85)" fill="#FC536C"/>
<rect x="114.15" y="156.35" width="2.54558" height="19.0919" transform="rotate(135 114.15 156.35)" fill="#FC536C"/>
<rect x="364.35" y="223.85" width="2.54558" height="19.0919" transform="rotate(45 364.35 223.85)" fill="#FC536C"/>
<rect x="366.15" y="237.35" width="2.54558" height="19.0919" transform="rotate(135 366.15 237.35)" fill="#FC536C"/>
<g clip-path="url(#clip0)">
<path d="M26.6667 120.29H36.3333V123.5H26.6667V120.29ZM26.6667 126.747H36.3333V129.957H26.6667V126.747ZM41.1667 114.513L43.9232 111.757L41.6576 109.491L39.1276 111.983C38.1207 111.077 36.9627 110.353 35.6536 109.812C34.3446 109.271 32.9601 109 31.5 109C30.0399 109 28.6554 109.271 27.3464 109.812C26.0373 110.353 24.8793 111.077 23.8724 111.983L21.3424 109.491L19.0768 111.757L21.8333 114.513C21.3299 115.369 20.9334 116.281 20.6439 117.251C20.3544 118.22 20.2096 119.233 20.2096 120.29H17V123.5H20.2096V126.747H17V129.957H20.2096C20.2096 131.518 20.5117 132.978 21.1159 134.337C21.6949 135.722 22.4941 136.924 23.5137 137.943C24.5332 138.963 25.7352 139.762 27.1198 140.341C28.4792 140.945 29.9392 141.247 31.5 141.247C33.0608 141.247 34.5208 140.945 35.8802 140.341C37.2648 139.762 38.4668 138.963 39.4863 137.943C40.5059 136.924 41.3051 135.722 41.8841 134.337C42.4883 132.978 42.7904 131.518 42.7904 129.957H46V126.747H42.7904V123.5H46V120.29H42.7904C42.7904 119.233 42.6456 118.22 42.3561 117.251C42.0666 116.281 41.6701 115.369 41.1667 114.513ZM39.543 126.747V129.957C39.543 131.065 39.3416 132.109 38.9388 133.091C38.5108 134.073 37.9319 134.929 37.2018 135.659C36.4718 136.389 35.6159 136.968 34.6341 137.396C33.6523 137.799 32.6076 138 31.5 138C30.3924 138 29.3477 137.799 28.3659 137.396C27.3841 136.968 26.5282 136.389 25.7982 135.659C25.0681 134.929 24.4892 134.073 24.0612 133.091C23.6584 132.109 23.457 131.065 23.457 129.957V120.29C23.457 119.183 23.6584 118.138 24.0612 117.156C24.4892 116.174 25.0681 115.319 25.7982 114.589C26.5282 113.859 27.3841 113.28 28.3659 112.852C29.3477 112.449 30.3924 112.247 31.5 112.247C32.6076 112.247 33.6523 112.449 34.6341 112.852C35.6159 113.28 36.4718 113.859 37.2018 114.589C37.9319 115.319 38.5108 116.174 38.9388 117.156C39.3416 118.138 39.543 119.183 39.543 120.29V126.747Z" fill="white"/>
</g>
<path d="M266.784 139L264.256 131.064H266.4L268.24 137.528H268.528L270.368 131.064H272.512L269.984 139H266.784ZM273.438 139V137.656C273.438 136.877 273.566 136.232 273.822 135.72C274.078 135.197 274.446 134.771 274.926 134.44C275.416 134.099 276.014 133.821 276.718 133.608L277.79 133.272C278.184 133.144 278.515 132.989 278.782 132.808C279.048 132.616 279.251 132.387 279.39 132.12C279.539 131.853 279.614 131.549 279.614 131.208V131.144C279.614 130.611 279.432 130.189 279.07 129.88C278.707 129.56 278.211 129.4 277.582 129.4C276.963 129.4 276.462 129.571 276.078 129.912C275.704 130.243 275.518 130.723 275.518 131.352V131.64H273.47V131.384C273.47 130.573 273.651 129.885 274.014 129.32C274.376 128.755 274.867 128.323 275.486 128.024C276.115 127.725 276.814 127.576 277.582 127.576C278.35 127.576 279.043 127.725 279.662 128.024C280.28 128.312 280.766 128.723 281.118 129.256C281.48 129.779 281.662 130.397 281.662 131.112V131.272C281.662 131.987 281.512 132.595 281.214 133.096C280.926 133.587 280.531 133.992 280.03 134.312C279.528 134.621 278.958 134.877 278.318 135.08L277.294 135.4C276.835 135.539 276.478 135.693 276.222 135.864C275.966 136.024 275.784 136.205 275.678 136.408C275.582 136.6 275.534 136.835 275.534 137.112V137.176H281.566V139H273.438ZM284.666 139.224C284.228 139.224 283.86 139.085 283.562 138.808C283.274 138.52 283.13 138.152 283.13 137.704C283.13 137.256 283.274 136.893 283.562 136.616C283.86 136.328 284.228 136.184 284.666 136.184C285.092 136.184 285.45 136.328 285.738 136.616C286.026 136.893 286.17 137.256 286.17 137.704C286.17 138.152 286.026 138.52 285.738 138.808C285.45 139.085 285.092 139.224 284.666 139.224ZM290.331 139V129.304H290.043L288.539 132.856H286.395L288.683 127.8H292.379V139H290.331ZM297.566 139V129.304H297.278L295.774 132.856H293.63L295.918 127.8H299.614V139H297.566Z" fill="#BA46DF"/>
<circle cx="475" cy="256" r="7.5" stroke="#EAEFF5" stroke-width="3"/>
<circle r="7.5" transform="matrix(-1 0 0 1 100 393)" stroke="#EAEFF5" stroke-width="3"/>
<circle r="7.5" transform="matrix(1 8.74228e-08 8.74228e-08 -1 206 137)" stroke="#EAEFF5" stroke-width="3"/>
<circle r="7.5" transform="matrix(1 8.74228e-08 8.74228e-08 -1 82 79)" stroke="#EAEFF5" stroke-width="3"/>
<circle r="7.5" transform="matrix(1 8.74228e-08 8.74228e-08 -1 441 143)" stroke="#EAEFF5" stroke-width="3"/>
<circle r="7.5" transform="matrix(1 8.74228e-08 8.74228e-08 -1 9 406)" stroke="#EAEFF5" stroke-width="3"/>
<circle r="7.5" transform="matrix(1 8.74228e-08 8.74228e-08 -1 366 508)" stroke="#EAEFF5" stroke-width="3"/>
<circle r="7.5" transform="matrix(1 8.74228e-08 8.74228e-08 -1 349 326)" stroke="#EAEFF5" stroke-width="3"/>
<path d="M160 631L160 723" stroke="#FFCC36" stroke-width="3"/>
<path d="M160 593V563.939C160 554.712 156.25 545.881 149.61 539.473L45.5 439" stroke="#EAEFF5" stroke-width="3" stroke-linecap="round"/>
<path d="M335 722V494.939C335 485.712 338.75 476.881 345.39 470.473L392.25 425.25" stroke="#E3A900" stroke-width="3" stroke-linecap="round"/>
<defs>
<clipPath id="clip0">
<rect width="29" height="32.2474" fill="white" transform="translate(17 109)"/>
</clipPath>
</defs>
</svg>

