<svg width="358" height="350" viewBox="0 0 358 350" fill="none" xmlns="http://www.w3.org/2000/svg">
<rect x="2" y="2" width="354" height="346" rx="40" fill="white" stroke="#FFCC36" stroke-width="3"/>
<path d="M107.887 221.104V263.099H115.446V247.741C115.446 242.461 118.026 239.462 122.885 239.462C127.204 239.462 129.604 241.922 129.604 246.061V263.099H137.163V245.341C137.163 237.602 132.184 232.863 125.585 232.863C120.125 232.863 117.366 235.382 116.166 238.142H115.446V221.104H107.887ZM163.452 233.343L155.774 260.699H155.054L147.375 233.343H139.216L148.335 263.099H154.814L150.674 275.097H158.833L171.611 233.343H163.452ZM175.202 275.097H182.761V258.899H183.481C185.041 261.419 187.68 263.939 192.96 263.939C200.398 263.939 206.638 257.339 206.638 248.221C206.638 239.102 200.398 232.503 192.96 232.503C187.68 232.503 185.041 235.022 183.481 237.542H182.641V233.343H175.202V275.097ZM190.92 257.219C186.24 257.219 182.761 253.86 182.761 248.221C182.761 242.581 186.24 239.222 190.92 239.222C195.479 239.222 199.079 242.461 199.079 248.221C199.079 253.98 195.479 257.219 190.92 257.219ZM209.784 247.981C209.784 257.219 216.203 263.939 225.082 263.939C233.061 263.939 236.54 259.739 238.58 256.62L232.401 253.02C231.381 255.12 229.161 257.459 224.962 257.459C220.642 257.459 217.823 254.4 217.523 250.44H239.18V247.501C239.18 238.562 233.361 232.503 224.722 232.503C215.963 232.503 209.784 238.982 209.784 247.981ZM217.583 245.161C218.183 241.502 220.402 238.982 224.662 238.982C228.561 238.982 230.961 241.382 231.501 245.161H217.583ZM251.303 233.343H243.864V263.099H251.423V246.301C251.423 242.102 254.183 240.062 258.022 240.062H262.462V233.223H259.582C255.803 233.223 253.283 234.363 252.143 237.662H251.303V233.343Z" fill="#252A36"/>
<g clip-path="url(#clip0)">
<rect x="121" y="70" width="125" height="125" rx="26.3158" fill="url(#paint0_linear)"/>
<path d="M179.633 108.065C180.87 106.412 183.5 107.286 183.5 109.351V138.82H160.922C159.154 138.82 158.144 136.803 159.202 135.387L179.633 108.065Z" fill="white"/>
<path d="M187.366 155.838C186.129 157.492 183.5 156.618 183.5 154.553V125.084H206.077C207.845 125.084 208.855 127.101 207.797 128.516L187.366 155.838Z" fill="white"/>
<g filter="url(#filter0_f)">
<path d="M179.091 95.4841C180.526 93.4669 183.705 94.4824 183.705 96.9581V144.798H148.93C146.864 144.798 145.66 142.465 146.858 140.781L179.091 95.4841Z" fill="white"/>
<path d="M188.319 172.777C186.884 174.795 183.705 173.779 183.705 171.303V123.463H218.481C220.546 123.463 221.75 125.797 220.552 127.48L188.319 172.777Z" fill="white"/>
</g>
</g>
<defs>
<filter id="filter0_f" x="121.072" y="69.1003" width="125.266" height="130.061" filterUnits="userSpaceOnUse" color-interpolation-filters="sRGB">
<feFlood flood-opacity="0" result="BackgroundImageFix"/>
<feBlend mode="normal" in="SourceGraphic" in2="BackgroundImageFix" result="shape"/>
<feGaussianBlur stdDeviation="12.6553" result="effect1_foregroundBlur"/>
</filter>
<linearGradient id="paint0_linear" x1="183.5" y1="70" x2="183.5" y2="195" gradientUnits="userSpaceOnUse">
<stop offset="1" stop-color="#FABA00"/>
</linearGradient>
<clipPath id="clip0">
<rect x="121" y="70" width="125" height="125" rx="26.3158" fill="white"/>
</clipPath>
</defs>
</svg>

