<svg width="375" height="288" viewBox="0 0 375 288" fill="none" xmlns="http://www.w3.org/2000/svg">
<path opacity="0.1" d="M112.326 253.798L40.3457 287.55L-2 264.134L69.8667 230.382L112.326 253.798Z" fill="url(#paint0_linear)"/>
<g opacity="0.3" filter="url(#filter0_f)">
<ellipse cx="269.062" cy="242.848" rx="63.8538" ry="26.0409" fill="url(#paint1_radial)"/>
</g>
<g filter="url(#filter1_d)">
<path d="M273.354 46.2401L237.747 63.4972L233.204 115.068L286.753 153.697L257.518 225.437L293.002 207.481L331.257 151.663L272.603 113.509L273.354 46.2401Z" fill="#DEC344"/>
<g filter="url(#filter2_i)">
<path d="M219.259 118.265L283.261 148.699L257.133 225.514C257.133 225.514 288.641 210.698 293.941 207.636C294.14 207.521 294.303 207.388 294.465 207.225L352.137 149.285C355.138 146.27 352.274 138.57 347.263 136.18L283.261 105.88V56.2401C283.261 49.9729 275.972 43.8003 272.319 46.5718L272.298 46.5876C272.048 46.7774 271.796 46.9688 271.513 47.1055L237.827 63.4025L214.577 104.819C214.45 105.045 214.287 105.249 214.124 105.451C211.563 108.644 214.402 115.949 219.259 118.265Z" fill="url(#paint2_linear)"/>
</g>
<path d="M257.936 224.616C258.048 224.563 258.168 224.506 258.297 224.446C259.169 224.035 260.42 223.444 261.938 222.726C264.974 221.289 269.078 219.342 273.347 217.299C281.897 213.207 291.076 208.748 293.706 207.229C293.862 207.139 293.992 207.033 294.132 206.893L351.804 148.953C353.105 147.646 353.21 145.207 352.264 142.662C351.328 140.147 349.431 137.735 347.061 136.605C347.061 136.605 347.061 136.605 347.061 136.604L283.06 106.306L282.791 106.178V105.88V56.2401C282.791 53.2777 281.057 50.2882 278.851 48.3717C277.752 47.4168 276.565 46.7543 275.46 46.4896C274.361 46.2262 273.376 46.3607 272.603 46.9468L272.582 46.9624L272.582 46.9625L272.567 46.9739C272.327 47.1564 272.043 47.3718 271.718 47.5291L238.165 63.7617L214.987 105.049C214.839 105.313 214.652 105.545 214.494 105.743L214.491 105.746L214.124 105.451L214.491 105.746C213.37 107.143 213.373 109.556 214.347 112.014C215.311 114.446 217.165 116.745 219.461 117.84L257.936 224.616ZM257.936 224.616L283.707 148.851L283.842 148.454L283.463 148.274L219.462 117.841L257.936 224.616Z" stroke="#FDC007" stroke-width="0.941194"/>
<g filter="url(#filter3_ii)">
<path d="M183.571 135.529L247.573 165.963V215.469C247.573 221.953 255.028 228.256 258.533 224.734L316.449 166.549C319.45 163.534 316.586 155.833 311.575 153.443L247.573 123.144V73.5038C247.573 67.019 240.118 60.7166 236.613 64.2381L178.697 122.423C175.696 125.438 178.56 133.139 183.571 135.529Z" fill="url(#paint3_linear)"/>
</g>
<path d="M248.043 165.666V165.963V215.469C248.043 218.543 249.821 221.616 252.042 223.494C253.15 224.431 254.334 225.041 255.418 225.22C256.487 225.396 257.448 225.157 258.199 224.402L316.115 166.217C317.417 164.909 317.522 162.471 316.575 159.926C315.64 157.411 313.743 154.999 311.373 153.868C311.373 153.868 311.372 153.868 311.372 153.868L247.371 123.569L247.102 123.442V123.144V73.5038C247.102 70.4298 245.325 67.3559 243.103 65.478C241.996 64.5415 240.811 63.9318 239.727 63.7526C238.659 63.576 237.697 63.8155 236.946 64.5701L179.03 122.755C177.729 124.063 177.624 126.501 178.57 129.046C179.506 131.561 181.403 133.973 183.773 135.104L248.043 165.666ZM248.043 165.666L247.775 165.538L183.773 135.104L248.043 165.666Z" stroke="#FDC007" stroke-width="0.941194"/>
<path d="M248.043 165.666V165.963V215.469C248.043 218.543 249.821 221.616 252.042 223.494C253.15 224.431 254.334 225.041 255.418 225.22C256.487 225.396 257.448 225.157 258.199 224.402L316.115 166.217C317.417 164.909 317.522 162.471 316.575 159.926C315.64 157.411 313.743 154.999 311.373 153.868C311.373 153.868 311.372 153.868 311.372 153.868L247.371 123.569L247.102 123.442V123.144V73.5038C247.102 70.4298 245.325 67.3559 243.103 65.478C241.996 64.5415 240.811 63.9318 239.727 63.7526C238.659 63.576 237.697 63.8155 236.946 64.5701L179.03 122.755C177.729 124.063 177.624 126.501 178.57 129.046C179.506 131.561 181.403 133.973 183.773 135.104L248.043 165.666ZM248.043 165.666L247.775 165.538L183.773 135.104L248.043 165.666Z" stroke="#FDC007" stroke-width="0.941194"/>
<g opacity="0.3" filter="url(#filter4_f)">
<path d="M283.36 199.205V148.411L218.368 116.726C216.791 115.957 215.567 114.614 214.946 112.973L214.136 110.834C213.872 110.136 213.737 109.396 213.737 108.65C213.737 106.986 214.408 105.393 215.599 104.232L245.285 75.2773L247.09 72.5661L246.528 70.3039L243.575 65.4862L238.136 63.6213L234.562 67.5068L194.653 106.995L179.801 122.126C178.648 123.3 178.002 124.88 178.002 126.526V126.572C178.002 127.721 178.317 128.849 178.914 129.832L180.562 132.546C181.2 133.597 182.133 134.438 183.244 134.964L247.991 165.608V215.25V218.707L250.65 222.342L253.753 224.913L256.767 225.622L259.071 223.938L283.36 199.205Z" fill="url(#paint4_linear)"/>
</g>
<g filter="url(#filter5_f)">
<path d="M283.732 148.348V148.645V198.151C283.732 201.225 285.509 204.299 287.731 206.177C288.838 207.113 290.023 207.723 291.107 207.902C292.175 208.079 293.137 207.839 293.888 207.084L351.804 148.899C353.105 147.592 353.21 145.153 352.264 142.608C351.328 140.093 349.431 137.681 347.061 136.551C347.061 136.55 347.061 136.55 347.061 136.55L283.06 106.252L282.791 106.124V105.826V56.186C282.791 53.112 281.013 50.0381 278.792 48.1602C277.684 47.2238 276.5 46.614 275.416 46.4349C274.347 46.2583 273.386 46.4977 272.635 47.2523L214.719 105.438C213.417 106.745 213.312 109.183 214.259 111.729C215.194 114.244 217.091 116.656 219.461 117.786L283.732 148.348ZM283.732 148.348L283.463 148.22L219.462 117.787L283.732 148.348Z" stroke="url(#paint5_linear)" stroke-width="0.941194"/>
</g>
<path d="M257.418 224.864L292.955 207.574" stroke="#FDC007" stroke-width="0.941194"/>
<path d="M247.572 123.121L283.352 105.805" stroke="#FDC007" stroke-width="0.941194"/>
<g filter="url(#filter6_f)">
<path d="M247.483 165.935L283.263 148.619" stroke="url(#paint6_linear)" stroke-width="0.941194"/>
</g>
<path d="M237.812 63.8462L273.591 46.5303" stroke="#FDC007" stroke-width="0.941194"/>
<g opacity="0.7" filter="url(#filter7_bi)">
<path d="M183.571 135.529L247.573 165.963V215.469C247.573 221.953 255.028 228.256 258.533 224.734L316.449 166.549C319.45 163.534 316.586 155.833 311.575 153.443L247.573 123.144V73.5038C247.573 67.019 240.118 60.7166 236.613 64.2381L178.697 122.423C175.696 125.438 178.56 133.139 183.571 135.529Z" fill="url(#paint7_linear)"/>
<path d="M248.043 165.666V165.963V215.469C248.043 218.543 249.821 221.616 252.042 223.494C253.15 224.431 254.334 225.041 255.418 225.22C256.487 225.396 257.448 225.157 258.199 224.402L316.115 166.217C317.417 164.909 317.522 162.471 316.575 159.926C315.64 157.411 313.743 154.999 311.373 153.868C311.373 153.868 311.372 153.868 311.372 153.868L247.371 123.569L247.102 123.442V123.144V73.5038C247.102 70.4298 245.325 67.3559 243.103 65.478C241.996 64.5415 240.811 63.9318 239.727 63.7526C238.659 63.576 237.697 63.8155 236.946 64.5701L179.03 122.755C177.729 124.063 177.624 126.501 178.57 129.046C179.506 131.561 181.403 133.973 183.773 135.104L248.043 165.666ZM248.043 165.666L247.775 165.538L183.773 135.104L248.043 165.666Z" stroke="#FDC30D" stroke-width="0.941194"/>
</g>
<g opacity="0.7" filter="url(#filter8_bi)">
<path d="M183.571 135.529L247.573 165.963V215.469C247.573 221.953 255.028 228.256 258.533 224.734L316.449 166.549C319.45 163.534 316.586 155.833 311.575 153.443L247.573 123.144V73.5038C247.573 67.019 240.118 60.7166 236.613 64.2381L178.697 122.423C175.696 125.438 178.56 133.139 183.571 135.529Z" fill="url(#paint8_linear)"/>
<path d="M248.043 165.666V165.963V215.469C248.043 218.543 249.821 221.616 252.042 223.494C253.15 224.431 254.334 225.041 255.418 225.22C256.487 225.396 257.448 225.157 258.199 224.402L316.115 166.217C317.417 164.909 317.522 162.471 316.575 159.926C315.64 157.411 313.743 154.999 311.373 153.868C311.373 153.868 311.372 153.868 311.372 153.868L247.371 123.569L247.102 123.442V123.144V73.5038C247.102 70.4298 245.325 67.3559 243.103 65.478C241.996 64.5415 240.811 63.9318 239.727 63.7526C238.659 63.576 237.697 63.8155 236.946 64.5701L179.03 122.755C177.729 124.063 177.624 126.501 178.57 129.046C179.506 131.561 181.403 133.973 183.773 135.104L248.043 165.666ZM248.043 165.666L247.775 165.538L183.773 135.104L248.043 165.666Z" stroke="#FDC30D" stroke-width="0.941194"/>
</g>
<g style="mix-blend-mode:screen" filter="url(#filter9_f)">
<path d="M315.338 130.835L316.914 152.783C317.074 155.011 318.72 156.849 320.916 157.254L327.215 158.414L320.965 159.565C318.746 159.974 317.092 161.845 316.959 164.098L315.338 191.535L313.721 164.158C313.586 161.878 311.894 159.992 309.642 159.612L302.538 158.414L309.692 157.207C311.921 156.831 313.605 154.979 313.767 152.724L315.338 130.835Z" fill="white"/>
</g>
<g style="mix-blend-mode:screen" filter="url(#filter10_f)">
<path d="M307.191 166.54C307.71 169.358 309.915 171.563 312.733 172.082C309.915 172.601 307.71 174.806 307.191 177.624C306.672 174.806 304.467 172.601 301.649 172.082C304.467 171.563 306.672 169.358 307.191 166.54Z" fill="white"/>
</g>
<g filter="url(#filter11_f)">
<path d="M262.71 130.776L253.549 127.035L235.82 159.357L244.991 163.504L262.71 130.776Z" fill="url(#paint9_linear)"/>
</g>
<g filter="url(#filter12_f)">
<path d="M284.108 141.406L270.272 134.754L248.72 177.527V210.522L284.108 141.406Z" fill="url(#paint10_linear)"/>
</g>
</g>
<path fill-rule="evenodd" clip-rule="evenodd" d="M255.937 153.473C256.148 153.41 256.353 153.326 256.55 153.22C258.915 151.943 259.242 147.964 257.281 144.331C255.321 140.698 251.814 138.788 249.449 140.065C249.407 140.087 249.365 140.111 249.324 140.136L240.972 144.123L248.075 157.059L255.937 153.473Z" fill="url(#paint11_linear)"/>
<path d="M256.55 153.22L256.315 152.784L256.315 152.784L256.55 153.22ZM255.937 153.473L255.796 152.999L255.763 153.009L255.732 153.023L255.937 153.473ZM257.281 144.331L256.846 144.566L257.281 144.331ZM249.449 140.065L249.684 140.5L249.684 140.5L249.449 140.065ZM249.324 140.136L249.537 140.582L249.558 140.572L249.578 140.56L249.324 140.136ZM240.972 144.123L240.759 143.677L240.286 143.902L240.538 144.361L240.972 144.123ZM248.075 157.059L247.641 157.297L247.862 157.699L248.28 157.508L248.075 157.059ZM256.315 152.784C256.149 152.874 255.975 152.946 255.796 152.999L256.079 153.947C256.322 153.874 256.558 153.777 256.785 153.655L256.315 152.784ZM256.846 144.566C257.788 146.31 258.168 148.118 258.045 149.618C257.921 151.124 257.302 152.252 256.315 152.784L256.785 153.655C258.163 152.911 258.89 151.411 259.031 149.699C259.172 147.982 258.736 145.984 257.717 144.096L256.846 144.566ZM249.684 140.5C250.671 139.967 251.954 140.068 253.28 140.791C254.602 141.511 255.905 142.821 256.846 144.566L257.717 144.096C256.697 142.208 255.266 140.747 253.753 139.923C252.245 139.101 250.593 138.886 249.215 139.63L249.684 140.5ZM249.578 140.56C249.613 140.539 249.648 140.519 249.684 140.5L249.215 139.63C249.166 139.656 249.118 139.683 249.07 139.712L249.578 140.56ZM249.111 139.69L240.759 143.677L241.185 144.569L249.537 140.582L249.111 139.69ZM240.538 144.361L247.641 157.297L248.508 156.821L241.405 143.885L240.538 144.361ZM248.28 157.508L256.142 153.923L255.732 153.023L247.87 156.609L248.28 157.508Z" fill="#FDC30D"/>
<ellipse cx="244.436" cy="150.597" rx="7.47447" ry="4.86563" transform="rotate(61.6417 244.436 150.597)" fill="url(#paint12_linear)" stroke="#FDC30D" stroke-width="0.988773"/>
<ellipse cx="244.503" cy="150.875" rx="2.44861" ry="1.59396" transform="rotate(61.6417 244.503 150.875)" fill="#EEF2F6"/>
<path d="M244.476 150.887L226.291 159.673C223.217 161.159 221.263 164.272 221.263 167.686L221.264 235.53C221.264 238.915 219.344 242.006 216.311 243.507L201.129 251.018C198.698 252.221 195.852 252.249 193.397 251.095L166.136 238.28C163.015 236.813 161.022 233.675 161.022 230.226V154.546" stroke="url(#paint13_linear)" stroke-width="4.94386"/>
<path d="M243.511 148.18L243.342 148.141L243.186 148.216L225.001 157.002C220.902 158.983 218.297 163.134 218.297 167.686L218.297 235.53C218.297 237.787 217.018 239.847 214.996 240.848L199.814 248.359C198.193 249.161 196.296 249.18 194.659 248.411L167.398 235.596C165.317 234.617 163.989 232.525 163.989 230.227V154.546V154.052H163.495H158.551H158.056V154.546V230.227C158.056 234.824 160.713 239.008 164.874 240.965L192.135 253.78C195.408 255.318 199.204 255.28 202.445 253.677L217.627 246.165C221.671 244.164 224.23 240.043 224.23 235.53L224.23 167.686C224.23 165.41 225.532 163.334 227.581 162.344L245.767 153.558L245.942 153.473L246.012 153.292C246.475 152.101 246.229 150.907 245.703 149.99C245.186 149.089 244.351 148.371 243.511 148.18Z" stroke="url(#paint14_linear)" stroke-width="0.988773"/>
<g opacity="0.57" filter="url(#filter13_f)">
<path d="M244.476 150.887L225.453 160.078C222.891 161.316 221.263 163.91 221.263 166.755L221.264 236.451C221.264 239.272 219.664 241.848 217.136 243.098L200.488 251.335C198.462 252.337 196.09 252.361 194.045 251.4L165.283 237.879C162.683 236.657 161.022 234.042 161.022 231.168V154.546" stroke="url(#paint15_linear)" stroke-width="0.988773" stroke-linecap="round" stroke-linejoin="round"/>
</g>
<path d="M244.476 150.887L225.453 160.078C222.891 161.316 221.263 163.91 221.263 166.755L221.264 236.451C221.264 239.272 219.664 241.848 217.136 243.098L200.488 251.335C198.462 252.337 196.09 252.361 194.045 251.4L165.283 237.879C162.683 236.657 161.022 234.042 161.022 231.168V154.546" stroke="url(#paint16_linear)" stroke-width="1.48316" stroke-linecap="round" stroke-linejoin="round"/>
<path fill-rule="evenodd" clip-rule="evenodd" d="M203.658 229.362L193.346 234.261L27.3474 153.117L25.8047 13.1647L35.4647 8.63571C36.1701 8.00533 37.2235 7.78386 38.1872 8.24669L200.756 86.3194C203.478 87.6263 205.208 90.3776 205.208 93.3964V227.068C205.208 228.145 204.542 229.004 203.658 229.362Z" fill="#DAE1E8"/>
<path fill-rule="evenodd" clip-rule="evenodd" d="M203.658 229.362L193.346 234.261L27.3474 153.117L25.8047 13.1647L35.4647 8.63571C36.1701 8.00533 37.2235 7.78386 38.1872 8.24669L200.756 86.3194C203.478 87.6263 205.208 90.3776 205.208 93.3964V227.068C205.208 228.145 204.542 229.004 203.658 229.362Z" fill="url(#paint17_radial)"/>
<path d="M98.3951 217.418C107.214 214.392 111.087 204.076 106.439 195.994L84.5787 157.989L131.906 179.752L150.274 213.095C155.815 223.154 151.651 235.803 141.216 240.603L108.233 255.774L62.1367 234.072V229.857L98.3951 217.418Z" fill="url(#paint18_linear)"/>
<path d="M93.8057 214.692C101.591 210.965 104.562 201.402 100.258 193.92L77.4072 154.192L125.187 176.28L146.805 215.748C150.892 223.211 147.876 232.576 140.201 236.251L108.233 251.555L62.1367 229.853L93.8057 214.692Z" fill="url(#paint19_linear)"/>
<path d="M24.2627 15.4189C24.2627 13.5985 26.1638 12.4025 27.8047 13.1906L193.424 92.7282C194.281 93.1397 194.826 94.006 194.826 94.9565V232.012C194.826 233.832 192.925 235.028 191.284 234.24L25.6645 154.702C24.8077 154.291 24.2627 153.425 24.2627 152.474V15.4189Z" fill="url(#paint20_linear)"/>
<path d="M29.9697 23.0051C29.9697 21.9121 31.1118 21.1945 32.0965 21.6688L187.405 96.4747C187.918 96.7219 188.245 97.2413 188.245 97.811V224.182C188.245 225.275 187.103 225.992 186.118 225.518L30.8093 150.712C30.296 150.465 29.9697 149.945 29.9697 149.376V23.0051Z" fill="url(#paint21_linear)"/>
<path opacity="0.4" d="M29.9697 23.0051C29.9697 21.9121 31.1118 21.1945 32.0965 21.6688L87.3676 48.2907V177.954L30.8093 150.712C30.296 150.465 29.9697 149.945 29.9697 149.376V23.0051Z" fill="url(#paint22_linear)"/>
<g style="mix-blend-mode:multiply" opacity="0.7" filter="url(#filter14_f)">
<path d="M227.586 155.936L234.372 159.182" stroke="#FDC822" stroke-width="0.939334"/>
</g>
<path d="M98.0303 69.5315C98.0303 68.4407 99.168 67.7231 100.152 68.193L170.495 101.772C171.01 102.018 171.339 102.538 171.339 103.11V105.753C171.339 106.844 170.201 107.561 169.217 107.091L98.8745 73.5129C98.3587 73.2666 98.0303 72.7459 98.0303 72.1744V69.5315Z" fill="#F8F9FB"/>
<path d="M98.0303 84.548C98.0303 83.4572 99.168 82.7396 100.152 83.2095L134.685 99.6938L152.167 108.039C152.683 108.286 153.012 108.806 153.012 109.378V112.021C153.012 113.112 151.874 113.829 150.89 113.359L98.8745 88.5294C98.3587 88.2831 98.0303 87.7624 98.0303 87.1909V84.548Z" fill="#EAEEF2"/>
<path d="M37.1553 39.342C37.1553 38.4954 38.0384 37.9384 38.8024 38.3031L52.925 45.0447L60.1546 48.4958C60.5549 48.6869 60.8098 49.0911 60.8098 49.5347C60.8098 50.3813 59.9267 50.9383 59.1627 50.5735L37.8105 40.3808C37.4102 40.1897 37.1553 39.7856 37.1553 39.342Z" fill="#FE8394"/>
<path d="M41.7344 47.2521C41.7344 46.4055 42.6175 45.8485 43.3815 46.2132L57.5041 52.9548L64.7337 56.4059C65.134 56.597 65.3889 57.0012 65.3889 57.4448C65.3889 58.2914 64.5058 58.8484 63.7418 58.4837L42.3896 48.291C41.9893 48.0998 41.7344 47.6957 41.7344 47.2521Z" fill="#EAEEF2"/>
<path d="M42.1045 87.7759C42.1045 86.9293 42.9876 86.3723 43.7516 86.737L57.8742 93.4786L65.1038 96.9297C65.5041 97.1209 65.759 97.525 65.759 97.9686C65.759 98.8152 64.876 99.3722 64.112 99.0075L42.7597 88.8148C42.3594 88.6237 42.1045 88.2195 42.1045 87.7759Z" fill="#EAEEF2"/>
<path d="M42.1045 98.5028C42.1045 97.6562 42.9876 97.0992 43.7516 97.4639L57.8742 104.205L65.1038 107.657C65.5041 107.848 65.759 108.252 65.759 108.695C65.759 109.542 64.876 110.099 64.112 109.734L42.7597 99.5416C42.3594 99.3505 42.1045 98.9464 42.1045 98.5028Z" fill="#16ADFA"/>
<path d="M57.0225 65.6714C57.0225 64.8248 57.9055 64.2678 58.6695 64.6325L72.7922 71.3741L80.0218 74.8252C80.4221 75.0163 80.677 75.4205 80.677 75.8641C80.677 76.7107 79.7939 77.2677 79.0299 76.903L57.6777 66.7102C57.2774 66.5191 57.0225 66.115 57.0225 65.6714Z" fill="#EAEEF2"/>
<path d="M37.1553 90.7644C37.1553 89.9173 38.0412 89.3619 38.8037 89.731L79.9242 109.638C80.3204 109.83 80.572 110.231 80.572 110.671C80.572 111.518 79.686 112.074 78.9236 111.705L37.8031 91.7978C37.4069 91.606 37.1553 91.2046 37.1553 90.7644Z" fill="#EAEEF2"/>
<path d="M98.0303 99.5645C98.0303 98.4737 99.168 97.7561 100.152 98.226L158.551 126.103C159.067 126.35 159.396 126.87 159.396 127.442V130.085C159.396 131.175 158.258 131.893 157.273 131.423L98.8745 103.546C98.3587 103.3 98.0303 102.779 98.0303 102.207V99.5645Z" fill="#F8F9FB"/>
<path d="M98.0303 114.581C98.0303 113.49 99.168 112.773 100.152 113.242L170.495 146.821C171.01 147.067 171.339 147.588 171.339 148.16V150.802C171.339 151.893 170.201 152.611 169.217 152.141L98.8745 118.562C98.3587 118.316 98.0303 117.795 98.0303 117.224V114.581Z" fill="#EAEEF2"/>
<path d="M98.0303 129.597C98.0303 128.507 99.168 127.789 100.152 128.259L126.857 141.007C127.373 141.253 127.702 141.774 127.702 142.345V144.988C127.702 146.079 126.564 146.797 125.579 146.327L98.8745 133.579C98.3587 133.333 98.0303 132.812 98.0303 132.24V129.597Z" fill="#F8F9FB"/>
<path d="M62.6611 51.4701C62.6611 50.5789 63.5908 49.9925 64.3952 50.3764L75.4106 55.6348C75.8321 55.8359 76.1004 56.2614 76.1004 56.7285C76.1004 57.6197 75.1707 58.2061 74.3664 57.8222L63.351 52.5638C62.9295 52.3627 62.6611 51.9372 62.6611 51.4701Z" fill="#EAEEF2"/>
<path d="M37.1553 50.7882C37.1553 49.8969 38.085 49.3105 38.8893 49.6945L49.9047 54.9528C50.3262 55.154 50.5946 55.5795 50.5946 56.0465C50.5946 56.9378 49.6649 57.5242 48.8605 57.1402L37.8451 51.8819C37.4236 51.6807 37.1553 51.2552 37.1553 50.7882Z" fill="#EAEEF2"/>
<path d="M37.1553 75.034C37.1553 74.1427 38.085 73.5563 38.8893 73.9403L49.9047 79.1986C50.3262 79.3998 50.5946 79.8253 50.5946 80.2923C50.5946 81.1836 49.6649 81.77 48.8605 81.3861L37.8451 76.1277C37.4236 75.9265 37.1553 75.5011 37.1553 75.034Z" fill="#16ADFA"/>
<path d="M52.3213 58.025C52.3213 57.1338 53.251 56.5474 54.0553 56.9313L65.0707 62.1897C65.4922 62.3908 65.7606 62.8163 65.7606 63.2834C65.7606 64.1746 64.8309 64.761 64.0265 64.3771L53.0111 59.1187C52.5897 58.9176 52.3213 58.4921 52.3213 58.025Z" fill="#FFEB83"/>
<path d="M52.3213 82.2711C52.3213 81.3798 53.251 80.7934 54.0553 81.1774L65.0707 86.4357C65.4922 86.6369 65.7606 87.0624 65.7606 87.5294C65.7606 88.4207 64.8309 89.0071 64.0265 88.6231L53.0111 83.3648C52.5897 83.1636 52.3213 82.7381 52.3213 82.2711Z" fill="#EAEEF2"/>
<path d="M46.8418 84.9218C46.8418 84.0305 47.7715 83.4442 48.5758 83.8281L59.5912 89.0864C60.0127 89.2876 60.2811 89.7131 60.2811 90.1801C60.2811 91.0714 59.3514 91.6578 58.5471 91.2739L47.5316 86.0155C47.1102 85.8143 46.8418 85.3889 46.8418 84.9218Z" fill="#FE8394"/>
<path d="M62.1309 92.1194C62.1309 91.2281 63.0606 90.6417 63.8649 91.0257L74.8803 96.284C75.3018 96.4852 75.5701 96.9107 75.5701 97.3777C75.5701 98.269 74.6405 98.8554 73.8361 98.4714L62.8207 93.2131C62.3992 93.0119 62.1309 92.5864 62.1309 92.1194Z" fill="#FFEB83"/>
<path d="M67.2393 65.0095C67.2393 64.1182 68.169 63.5318 68.9733 63.9158L79.9887 69.1741C80.4102 69.3753 80.6785 69.8008 80.6785 70.2678C80.6785 71.1591 79.7488 71.7455 78.9445 71.3615L67.9291 66.1032C67.5076 65.902 67.2393 65.4765 67.2393 65.0095Z" fill="#4FD253"/>
<path d="M67.2393 99.8736C67.2393 98.9823 68.169 98.3959 68.9733 98.7799L79.9887 104.038C80.4102 104.239 80.6785 104.665 80.6785 105.132C80.6785 106.023 79.7488 106.61 78.9445 106.226L67.9291 100.967C67.5076 100.766 67.2393 100.341 67.2393 99.8736Z" fill="#EAEEF2"/>
<path d="M98.0303 145.398C98.0303 144.307 99.168 143.589 100.152 144.059L177.157 180.818C177.673 181.064 178.001 181.585 178.001 182.157V204.74C178.001 205.831 176.863 206.548 175.879 206.078L98.8745 169.319C98.3587 169.073 98.0303 168.553 98.0303 167.981V145.398Z" fill="#F8F9FB"/>
<path d="M36.5098 110.848L81.5696 132.358V146.935L36.5098 125.425V110.848Z" fill="#F8F9FB"/>
<path d="M36.334 131.491L81.3938 153.001V167.578L36.334 146.068V131.491Z" fill="#F8F9FB"/>
<path d="M40.4932 118.05C40.4932 117.204 41.3762 116.647 42.1402 117.011L56.2629 123.753L63.4925 127.204C63.8928 127.395 64.1477 127.799 64.1477 128.243C64.1477 129.09 63.2646 129.647 62.5006 129.282L41.1484 119.089C40.7481 118.898 40.4932 118.494 40.4932 118.05Z" fill="#EAEEF2"/>
<path d="M40.4932 138.932C40.4932 138.086 41.3762 137.529 42.1402 137.893L56.2629 144.635L63.4925 148.086C63.8928 148.277 64.1477 148.681 64.1477 149.125C64.1477 149.972 63.2646 150.529 62.5006 150.164L41.1484 139.971C40.7481 139.78 40.4932 139.376 40.4932 138.932Z" fill="#EAEEF2"/>
<path d="M40.4932 123.549C40.4932 122.703 41.3772 122.146 42.1407 122.512L74.7547 138.154C75.1537 138.345 75.4075 138.748 75.4075 139.191C75.4075 140.037 74.5235 140.594 73.76 140.228L41.146 124.586C40.747 124.395 40.4932 123.992 40.4932 123.549Z" fill="#4FD253"/>
<defs>
<filter id="filter0_f" x="190.563" y="202.162" width="156.998" height="81.3719" filterUnits="userSpaceOnUse" color-interpolation-filters="sRGB">
<feFlood flood-opacity="0" result="BackgroundImageFix"/>
<feBlend mode="normal" in="SourceGraphic" in2="BackgroundImageFix" result="shape"/>
<feGaussianBlur stdDeviation="7.3225" result="effect1_foregroundBlur"/>
</filter>
<filter id="filter1_d" x="131.038" y="0.684942" width="268.758" height="272.726" filterUnits="userSpaceOnUse" color-interpolation-filters="sRGB">
<feFlood flood-opacity="0" result="BackgroundImageFix"/>
<feColorMatrix in="SourceAlpha" type="matrix" values="0 0 0 0 0 0 0 0 0 0 0 0 0 0 0 0 0 0 127 0"/>
<feOffset dy="1.23008"/>
<feGaussianBlur stdDeviation="23.2177"/>
<feColorMatrix type="matrix" values="0 0 0 0 1 0 0 0 0 1 0 0 0 0 1 0 0 0 0.62 0"/>
<feBlend mode="normal" in2="BackgroundImageFix" result="effect1_dropShadow"/>
<feBlend mode="normal" in="SourceGraphic" in2="effect1_dropShadow" result="shape"/>
</filter>
<filter id="filter2_i" x="213.162" y="42.3398" width="140.198" height="183.174" filterUnits="userSpaceOnUse" color-interpolation-filters="sRGB">
<feFlood flood-opacity="0" result="BackgroundImageFix"/>
<feBlend mode="normal" in="SourceGraphic" in2="BackgroundImageFix" result="shape"/>
<feColorMatrix in="SourceAlpha" type="matrix" values="0 0 0 0 0 0 0 0 0 0 0 0 0 0 0 0 0 0 127 0" result="hardAlpha"/>
<feOffset dy="-3.55053"/>
<feGaussianBlur stdDeviation="7.84175"/>
<feComposite in2="hardAlpha" operator="arithmetic" k2="-1" k3="1"/>
<feColorMatrix type="matrix" values="0 0 0 0 1 0 0 0 0 1 0 0 0 0 1 0 0 0 1 0"/>
<feBlend mode="normal" in2="shape" result="effect1_innerShadow"/>
</filter>
<filter id="filter3_ii" x="177.474" y="62.197" width="140.198" height="164.578" filterUnits="userSpaceOnUse" color-interpolation-filters="sRGB">
<feFlood flood-opacity="0" result="BackgroundImageFix"/>
<feBlend mode="normal" in="SourceGraphic" in2="BackgroundImageFix" result="shape"/>
<feColorMatrix in="SourceAlpha" type="matrix" values="0 0 0 0 0 0 0 0 0 0 0 0 0 0 0 0 0 0 127 0" result="hardAlpha"/>
<feOffset dy="-1.02992"/>
<feGaussianBlur stdDeviation="1.54487"/>
<feComposite in2="hardAlpha" operator="arithmetic" k2="-1" k3="1"/>
<feColorMatrix type="matrix" values="0 0 0 0 1 0 0 0 0 1 0 0 0 0 1 0 0 0 0.96 0"/>
<feBlend mode="overlay" in2="shape" result="effect1_innerShadow"/>
<feColorMatrix in="SourceAlpha" type="matrix" values="0 0 0 0 0 0 0 0 0 0 0 0 0 0 0 0 0 0 127 0" result="hardAlpha"/>
<feOffset dy="1.02992"/>
<feGaussianBlur stdDeviation="0.901177"/>
<feComposite in2="hardAlpha" operator="arithmetic" k2="-1" k3="1"/>
<feColorMatrix type="matrix" values="0 0 0 0 0.975 0 0 0 0 0.902344 0 0 0 0 0.47125 0 0 0 1 0"/>
<feBlend mode="normal" in2="effect1_innerShadow" result="effect2_innerShadow"/>
</filter>
<filter id="filter4_f" x="177.76" y="63.3797" width="105.842" height="162.484" filterUnits="userSpaceOnUse" color-interpolation-filters="sRGB">
<feFlood flood-opacity="0" result="BackgroundImageFix"/>
<feBlend mode="normal" in="SourceGraphic" in2="BackgroundImageFix" result="shape"/>
<feGaussianBlur stdDeviation="0.120803" result="effect1_foregroundBlur"/>
</filter>
<filter id="filter5_f" x="212.558" y="45.3051" width="141.406" height="163.727" filterUnits="userSpaceOnUse" color-interpolation-filters="sRGB">
<feFlood flood-opacity="0" result="BackgroundImageFix"/>
<feBlend mode="normal" in="SourceGraphic" in2="BackgroundImageFix" result="shape"/>
<feGaussianBlur stdDeviation="0.302007" result="effect1_foregroundBlur"/>
</filter>
<filter id="filter6_f" x="246.674" y="147.591" width="37.3974" height="19.3712" filterUnits="userSpaceOnUse" color-interpolation-filters="sRGB">
<feFlood flood-opacity="0" result="BackgroundImageFix"/>
<feBlend mode="normal" in="SourceGraphic" in2="BackgroundImageFix" result="shape"/>
<feGaussianBlur stdDeviation="0.302007" result="effect1_foregroundBlur"/>
</filter>
<filter id="filter7_bi" x="169.191" y="54.6164" width="156.763" height="179.412" filterUnits="userSpaceOnUse" color-interpolation-filters="sRGB">
<feFlood flood-opacity="0" result="BackgroundImageFix"/>
<feGaussianBlur in="BackgroundImage" stdDeviation="4.14125"/>
<feComposite in2="SourceAlpha" operator="in" result="effect1_backgroundBlur"/>
<feBlend mode="normal" in="SourceGraphic" in2="effect1_backgroundBlur" result="shape"/>
<feColorMatrix in="SourceAlpha" type="matrix" values="0 0 0 0 0 0 0 0 0 0 0 0 0 0 0 0 0 0 127 0" result="hardAlpha"/>
<feOffset dy="-8.61055"/>
<feGaussianBlur stdDeviation="8.30303"/>
<feComposite in2="hardAlpha" operator="arithmetic" k2="-1" k3="1"/>
<feColorMatrix type="matrix" values="0 0 0 0 1 0 0 0 0 1 0 0 0 0 1 0 0 0 0.81 0"/>
<feBlend mode="normal" in2="shape" result="effect2_innerShadow"/>
</filter>
<filter id="filter8_bi" x="169.191" y="54.6164" width="156.763" height="179.412" filterUnits="userSpaceOnUse" color-interpolation-filters="sRGB">
<feFlood flood-opacity="0" result="BackgroundImageFix"/>
<feGaussianBlur in="BackgroundImage" stdDeviation="4.14125"/>
<feComposite in2="SourceAlpha" operator="in" result="effect1_backgroundBlur"/>
<feBlend mode="normal" in="SourceGraphic" in2="effect1_backgroundBlur" result="shape"/>
<feColorMatrix in="SourceAlpha" type="matrix" values="0 0 0 0 0 0 0 0 0 0 0 0 0 0 0 0 0 0 127 0" result="hardAlpha"/>
<feOffset dy="-8.61055"/>
<feGaussianBlur stdDeviation="8.30303"/>
<feComposite in2="hardAlpha" operator="arithmetic" k2="-1" k3="1"/>
<feColorMatrix type="matrix" values="0 0 0 0 1 0 0 0 0 1 0 0 0 0 1 0 0 0 0.81 0"/>
<feBlend mode="normal" in2="shape" result="effect2_innerShadow"/>
</filter>
<filter id="filter9_f" x="298.565" y="126.862" width="32.6229" height="68.6463" filterUnits="userSpaceOnUse" color-interpolation-filters="sRGB">
<feFlood flood-opacity="0" result="BackgroundImageFix"/>
<feBlend mode="normal" in="SourceGraphic" in2="BackgroundImageFix" result="shape"/>
<feGaussianBlur stdDeviation="1.98661" result="effect1_foregroundBlur"/>
</filter>
<filter id="filter10_f" x="294.884" y="159.775" width="24.6145" height="24.6145" filterUnits="userSpaceOnUse" color-interpolation-filters="sRGB">
<feFlood flood-opacity="0" result="BackgroundImageFix"/>
<feBlend mode="normal" in="SourceGraphic" in2="BackgroundImageFix" result="shape"/>
<feGaussianBlur stdDeviation="3.38271" result="effect1_foregroundBlur"/>
</filter>
<filter id="filter11_f" x="233.668" y="124.882" width="31.1954" height="40.7743" filterUnits="userSpaceOnUse" color-interpolation-filters="sRGB">
<feFlood flood-opacity="0" result="BackgroundImageFix"/>
<feBlend mode="normal" in="SourceGraphic" in2="BackgroundImageFix" result="shape"/>
<feGaussianBlur stdDeviation="1.07632" result="effect1_foregroundBlur"/>
</filter>
<filter id="filter12_f" x="247.49" y="133.524" width="37.8487" height="78.2279" filterUnits="userSpaceOnUse" color-interpolation-filters="sRGB">
<feFlood flood-opacity="0" result="BackgroundImageFix"/>
<feBlend mode="normal" in="SourceGraphic" in2="BackgroundImageFix" result="shape"/>
<feGaussianBlur stdDeviation="0.615039" result="effect1_foregroundBlur"/>
</filter>
<filter id="filter13_f" x="158.551" y="148.415" width="88.3974" height="106.161" filterUnits="userSpaceOnUse" color-interpolation-filters="sRGB">
<feFlood flood-opacity="0" result="BackgroundImageFix"/>
<feBlend mode="normal" in="SourceGraphic" in2="BackgroundImageFix" result="shape"/>
<feGaussianBlur stdDeviation="0.988773" result="effect1_foregroundBlur"/>
</filter>
<filter id="filter14_f" x="226.394" y="154.524" width="9.16891" height="6.07046" filterUnits="userSpaceOnUse" color-interpolation-filters="sRGB">
<feFlood flood-opacity="0" result="BackgroundImageFix"/>
<feBlend mode="normal" in="SourceGraphic" in2="BackgroundImageFix" result="shape"/>
<feGaussianBlur stdDeviation="0.494386" result="effect1_foregroundBlur"/>
</filter>
<linearGradient id="paint0_linear" x1="16.9724" y1="281.865" x2="57.6683" y2="242.265" gradientUnits="userSpaceOnUse">
<stop stop-color="#DBE1E9" stop-opacity="0"/>
<stop offset="1" stop-color="#DBE1E9"/>
</linearGradient>
<radialGradient id="paint1_radial" cx="0" cy="0" r="1" gradientUnits="userSpaceOnUse" gradientTransform="translate(269.062 242.848) rotate(90) scale(26.0409 63.8538)">
<stop stop-color="#FEDA47"/>
<stop offset="1" stop-color="#FEDA47" stop-opacity="0"/>
</radialGradient>
<linearGradient id="paint2_linear" x1="217.146" y1="93.3575" x2="283.261" y2="230.225" gradientUnits="userSpaceOnUse">
<stop offset="0.0726388" stop-color="#FDC007"/>
<stop offset="0.352497" stop-color="#FFE051"/>
<stop offset="0.645186" stop-color="#FFD735"/>
<stop offset="0.771631" stop-color="#FEC107"/>
<stop offset="1" stop-color="#D9A812"/>
</linearGradient>
<linearGradient id="paint3_linear" x1="288.069" y1="-12.9418" x2="245.631" y2="225.724" gradientUnits="userSpaceOnUse">
<stop stop-color="#FFFAC0"/>
<stop offset="1" stop-color="#FFDD47"/>
</linearGradient>
<linearGradient id="paint4_linear" x1="266.314" y1="149.134" x2="223.838" y2="82.8225" gradientUnits="userSpaceOnUse">
<stop stop-color="#FCC617"/>
<stop offset="0.517023" stop-color="#FFEBA9"/>
<stop offset="0.694168" stop-color="#FEDD73"/>
<stop offset="0.785854" stop-color="#F4BA0A"/>
</linearGradient>
<linearGradient id="paint5_linear" x1="227.417" y1="138.38" x2="239.115" y2="79.4879" gradientUnits="userSpaceOnUse">
<stop stop-color="#FDC007"/>
<stop offset="1" stop-color="#FDC007" stop-opacity="0"/>
</linearGradient>
<linearGradient id="paint6_linear" x1="275.017" y1="146.045" x2="252.428" y2="163.592" gradientUnits="userSpaceOnUse">
<stop stop-color="#FDC007"/>
<stop offset="1" stop-color="#FDC007" stop-opacity="0"/>
</linearGradient>
<linearGradient id="paint7_linear" x1="288.069" y1="-12.9418" x2="245.631" y2="225.724" gradientUnits="userSpaceOnUse">
<stop stop-color="#FFFAC0"/>
<stop offset="1" stop-color="#FFDD47"/>
</linearGradient>
<linearGradient id="paint8_linear" x1="288.069" y1="-12.9418" x2="245.631" y2="225.724" gradientUnits="userSpaceOnUse">
<stop stop-color="#FFFAC0"/>
<stop offset="1" stop-color="#FFDD47"/>
</linearGradient>
<linearGradient id="paint9_linear" x1="171.566" y1="177.723" x2="275.234" y2="142.133" gradientUnits="userSpaceOnUse">
<stop stop-color="white"/>
<stop offset="1" stop-color="white" stop-opacity="0"/>
</linearGradient>
<linearGradient id="paint10_linear" x1="178.863" y1="188.956" x2="284.108" y2="139.159" gradientUnits="userSpaceOnUse">
<stop offset="0.380842" stop-color="white"/>
<stop offset="1" stop-color="white" stop-opacity="0"/>
</linearGradient>
<linearGradient id="paint11_linear" x1="245.572" y1="139.668" x2="252.994" y2="153.914" gradientUnits="userSpaceOnUse">
<stop stop-color="#FEDF57"/>
<stop offset="1" stop-color="#FDCC23"/>
</linearGradient>
<linearGradient id="paint12_linear" x1="251.812" y1="149.277" x2="240.718" y2="153.579" gradientUnits="userSpaceOnUse">
<stop stop-color="#FFE879"/>
<stop offset="1" stop-color="#FFF3B7"/>
</linearGradient>
<linearGradient id="paint13_linear" x1="252.131" y1="146.946" x2="219.377" y2="162.755" gradientUnits="userSpaceOnUse">
<stop stop-color="#EBEFF4"/>
<stop offset="1" stop-color="#F9FBFD"/>
</linearGradient>
<linearGradient id="paint14_linear" x1="247.818" y1="148.661" x2="169.988" y2="238.377" gradientUnits="userSpaceOnUse">
<stop stop-color="#E4E9EF" stop-opacity="0.19"/>
<stop offset="0.420874" stop-color="#E4E9EF" stop-opacity="0.71"/>
<stop offset="1" stop-color="#E4E9EF" stop-opacity="0.36"/>
</linearGradient>
<linearGradient id="paint15_linear" x1="194.258" y1="250.984" x2="195.235" y2="157.056" gradientUnits="userSpaceOnUse">
<stop offset="0.036964" stop-color="#8000FF"/>
<stop offset="0.183126" stop-color="#1286F6"/>
<stop offset="0.341508" stop-color="#10D414"/>
<stop offset="0.458208" stop-color="#FD8813"/>
<stop offset="0.634012" stop-color="#FF006F"/>
<stop offset="0.914402" stop-color="#FABC06"/>
</linearGradient>
<linearGradient id="paint16_linear" x1="194.258" y1="250.984" x2="195.235" y2="157.056" gradientUnits="userSpaceOnUse">
<stop offset="0.036964" stop-color="#8000FF"/>
<stop offset="0.183126" stop-color="#1286F6"/>
<stop offset="0.341508" stop-color="#10D414"/>
<stop offset="0.458208" stop-color="#FD8813"/>
<stop offset="0.634012" stop-color="#FF006F"/>
<stop offset="0.914402" stop-color="#FABC06"/>
</linearGradient>
<radialGradient id="paint17_radial" cx="0" cy="0" r="1" gradientUnits="userSpaceOnUse" gradientTransform="translate(256.834 72.6902) rotate(159.965) scale(213.967 169.656)">
<stop stop-color="#FFEA7D"/>
<stop offset="1" stop-color="white" stop-opacity="0"/>
</radialGradient>
<linearGradient id="paint18_linear" x1="111.335" y1="253.219" x2="104.063" y2="251.934" gradientUnits="userSpaceOnUse">
<stop stop-color="#DAE1E8"/>
<stop offset="1" stop-color="#E9EDF2"/>
</linearGradient>
<linearGradient id="paint19_linear" x1="106.376" y1="205.585" x2="100.019" y2="218.853" gradientUnits="userSpaceOnUse">
<stop stop-color="#DAE1E8"/>
<stop offset="1" stop-color="#F2F4F7"/>
</linearGradient>
<linearGradient id="paint20_linear" x1="41.5662" y1="54.254" x2="194.826" y2="178.839" gradientUnits="userSpaceOnUse">
<stop stop-color="#F8F9FB"/>
<stop offset="1" stop-color="#E4E9EF"/>
</linearGradient>
<linearGradient id="paint21_linear" x1="47.7077" y1="60.5287" x2="187.123" y2="173.86" gradientUnits="userSpaceOnUse">
<stop stop-color="white"/>
<stop offset="1" stop-color="white"/>
</linearGradient>
<linearGradient id="paint22_linear" x1="155.634" y1="-35.3885" x2="-42.9114" y2="107.494" gradientUnits="userSpaceOnUse">
<stop stop-color="#EAEEF2"/>
<stop offset="1" stop-color="#EAEEF2" stop-opacity="0"/>
</linearGradient>
</defs>
</svg>

