<svg width="37" height="39" viewBox="0 0 37 39" fill="none" xmlns="http://www.w3.org/2000/svg">
<path d="M1.74433 21.8719L4.35576 23.0925L4.44092 20.5189L1.74433 21.8719Z" fill="#F4F6F9"/>
<path d="M1.46005 22.2724L0.606445 21.8819L9.22451 17.7687L10.1261 18.1218L1.46005 22.2724Z" fill="#FDFDFE"/>
<path d="M35.8421 20.1175L33.2307 21.3381L33.1455 18.7645L35.8421 20.1175Z" fill="#DBE2EB"/>
<path d="M36.1464 20.5728L37 20.1823L28.4311 16.0548L27.5296 16.4079L36.1464 20.5728Z" fill="#E5EBF1"/>
<path fill-rule="evenodd" clip-rule="evenodd" d="M18.0995 0.265869L17.1353 0.71293L17.779 1.13415V23.6827L33.3695 30.0911V8.25872C33.3695 7.70973 33.0538 7.20966 32.5582 6.97349L18.797 0.415914C18.5702 0.307797 18.3264 0.331057 18.1342 0.442413L18.0995 0.265869Z" fill="url(#paint0_linear)"/>
<path d="M32.4351 30.5295L25.0283 31.7936L16.8445 24.1211V1.4969C16.8445 0.973606 17.3902 0.629173 17.8626 0.854284L31.6238 7.41186C32.1194 7.64803 32.4351 8.1481 32.4351 8.69709V30.5295Z" fill="url(#paint1_linear)"/>
<mask id="mask0" mask-type="alpha" maskUnits="userSpaceOnUse" x="16" y="0" width="17" height="32">
<path d="M32.4346 30.5295L25.0278 31.7936L16.844 24.1211V1.4969C16.844 0.973606 17.3897 0.629173 17.8621 0.854284L31.6233 7.41186C32.1189 7.64803 32.4346 8.1481 32.4346 8.69709V30.5295Z" fill="url(#paint2_linear)"/>
</mask>
<g mask="url(#mask0)">
<g opacity="0.3" filter="url(#filter0_f)">
<path d="M30.123 31.5142L22.4178 33.1547L13.0156 24.6492V0.897232L29.2954 8.40162C29.7999 8.63419 30.123 9.139 30.123 9.69456V31.5142Z" fill="#FB4059"/>
</g>
</g>
<path d="M12.2893 26.2473L27.8798 32.6557V10.567C27.8798 10.1746 27.6542 9.81707 27.2999 9.64824L13.1841 2.91987C13.0099 2.83685 12.8217 2.86218 12.6804 2.95753L11.1406 3.69818L12.2893 4.49937V26.2473Z" fill="url(#paint3_linear)" stroke="url(#paint4_linear)" stroke-width="0.387344"/>
<g filter="url(#filter1_i)">
<path d="M26.2007 33.4755L18.4954 35.116L10.6102 27.0671V4.44292C10.6102 3.91962 11.1558 3.57519 11.6282 3.8003L25.3894 10.3579C25.885 10.594 26.2007 11.0941 26.2007 11.6431V33.4755Z" fill="url(#paint5_linear)"/>
</g>
<path d="M26.007 11.6431V33.3187L18.5592 34.9044L10.8038 26.9881V4.44292C10.8038 4.06199 11.201 3.81127 11.5449 3.97514L25.3061 10.5327L25.3894 10.3579L25.3061 10.5327C25.7343 10.7368 26.007 11.1688 26.007 11.6431Z" stroke="url(#paint6_linear)" stroke-width="0.387344"/>
<g opacity="0.78" filter="url(#filter2_f)">
<path d="M13.0107 9.93547L12.9686 3.8258C12.9655 3.37223 13.4347 3.06907 13.8469 3.25829L14.451 3.53561" stroke="url(#paint7_linear)" stroke-width="0.387344"/>
</g>
<g filter="url(#filter3_i)">
<path fill-rule="evenodd" clip-rule="evenodd" d="M5.47454 6.35071L4.51025 6.79777L5.15376 7.21885V29.7676L20.7443 36.176V14.3436C20.7443 13.7946 20.4286 13.2945 19.933 13.0583L6.17183 6.50075C5.94502 6.39267 5.70132 6.41588 5.50923 6.52714L5.47454 6.35071Z" fill="url(#paint8_linear)"/>
</g>
<path d="M19.8101 36.6144L4.21954 30.206V7.58177C4.21954 7.05848 4.76521 6.71404 5.23761 6.93916L18.9988 13.4967C19.4944 13.7329 19.8101 14.233 19.8101 14.782V36.6144Z" fill="url(#paint9_linear)"/>
<path d="M17.689 29.4221L17.7026 29.4286L17.0947 29.7724L0.606445 21.8738L1.42096 21.4972L16.5483 28.5904C16.8508 28.7322 17.2008 28.7317 17.5029 28.5889L36.1874 19.7596L36.9935 20.1774L17.689 29.4221Z" fill="url(#paint10_linear)"/>
<path d="M16.2173 29.319C16.7452 29.5711 17.3589 29.5709 17.8867 29.3185L36.9917 20.1791V28.2051C36.9917 28.5582 36.789 28.8799 36.4705 29.0322L17.8867 37.9223C17.3589 38.1747 16.7452 38.175 16.2173 37.9228L1.12088 30.7137C0.802091 30.5614 0.599121 30.2396 0.599121 29.8863V21.8607L16.2173 29.319Z" fill="url(#paint11_linear)"/>
<path d="M16.2173 29.319C16.7452 29.5711 17.3589 29.5709 17.8867 29.3185L36.9917 20.1791V28.2051C36.9917 28.5582 36.789 28.8799 36.4705 29.0322L17.8867 37.9223C17.3589 38.1747 16.7452 38.175 16.2173 37.9228L1.12088 30.7137C0.802091 30.5614 0.599121 30.2396 0.599121 29.8863V21.8607L16.2173 29.319Z" fill="url(#paint12_linear)"/>
<path d="M6.19727 9.58911L17.0233 14.7587V15.5864L6.19727 10.4169V9.58911Z" fill="#F1F4F8"/>
<path opacity="0.3" d="M6.19727 12.1602L14.734 16.2365V17.0643L6.19727 12.9879V12.1602Z" fill="#F1F4F8"/>
<path opacity="0.4" d="M6.19727 14.7314L11.6103 17.3162V18.144L6.19727 15.5592V14.7314Z" fill="#F1F4F8"/>
<path opacity="0.4" d="M6.19727 17.3025L17.0233 22.472V23.2998L6.19727 18.1303V17.3025Z" fill="#F1F4F8"/>
<path opacity="0.6" d="M6.19727 19.874L17.0233 25.0436V25.8713L6.19727 20.7018V19.874Z" fill="#F1F4F8"/>
<defs>
<filter id="filter0_f" x="9.76193" y="-2.35648" width="23.6148" height="38.7648" filterUnits="userSpaceOnUse" color-interpolation-filters="sRGB">
<feFlood flood-opacity="0" result="BackgroundImageFix"/>
<feBlend mode="normal" in="SourceGraphic" in2="BackgroundImageFix" result="shape"/>
<feGaussianBlur stdDeviation="1.62685" result="effect1_foregroundBlur"/>
</filter>
<filter id="filter1_i" x="10.6104" y="2.40929" width="15.5905" height="32.7067" filterUnits="userSpaceOnUse" color-interpolation-filters="sRGB">
<feFlood flood-opacity="0" result="BackgroundImageFix"/>
<feBlend mode="normal" in="SourceGraphic" in2="BackgroundImageFix" result="shape"/>
<feColorMatrix in="SourceAlpha" type="matrix" values="0 0 0 0 0 0 0 0 0 0 0 0 0 0 0 0 0 0 127 0" result="hardAlpha"/>
<feOffset dy="-1.32094"/>
<feGaussianBlur stdDeviation="1.9814"/>
<feComposite in2="hardAlpha" operator="arithmetic" k2="-1" k3="1"/>
<feColorMatrix type="matrix" values="0 0 0 0 1 0 0 0 0 1 0 0 0 0 1 0 0 0 0.96 0"/>
<feBlend mode="overlay" in2="shape" result="effect1_innerShadow"/>
</filter>
<filter id="filter2_f" x="12.465" y="2.6972" width="2.37666" height="7.54942" filterUnits="userSpaceOnUse" color-interpolation-filters="sRGB">
<feFlood flood-opacity="0" result="BackgroundImageFix"/>
<feBlend mode="normal" in="SourceGraphic" in2="BackgroundImageFix" result="shape"/>
<feGaussianBlur stdDeviation="0.154938" result="effect1_foregroundBlur"/>
</filter>
<filter id="filter3_i" x="3.96797" y="6.35071" width="16.7763" height="30.445" filterUnits="userSpaceOnUse" color-interpolation-filters="sRGB">
<feFlood flood-opacity="0" result="BackgroundImageFix"/>
<feBlend mode="normal" in="SourceGraphic" in2="BackgroundImageFix" result="shape"/>
<feColorMatrix in="SourceAlpha" type="matrix" values="0 0 0 0 0 0 0 0 0 0 0 0 0 0 0 0 0 0 127 0" result="hardAlpha"/>
<feOffset dx="-0.542282" dy="0.619751"/>
<feGaussianBlur stdDeviation="0.813423"/>
<feComposite in2="hardAlpha" operator="arithmetic" k2="-1" k3="1"/>
<feColorMatrix type="matrix" values="0 0 0 0 0.984314 0 0 0 0 0.32549 0 0 0 0 0.423529 0 0 0 0.24 0"/>
<feBlend mode="normal" in2="shape" result="effect1_innerShadow"/>
</filter>
<linearGradient id="paint0_linear" x1="16.1147" y1="-0.992109" x2="33.6375" y2="8.25967" gradientUnits="userSpaceOnUse">
<stop stop-color="#FBFBFD"/>
<stop offset="0.870249" stop-color="#EBEFF4"/>
<stop offset="0.994115" stop-color="#E8ECF2"/>
</linearGradient>
<linearGradient id="paint1_linear" x1="24.9123" y1="-10.8768" x2="28.1418" y2="42.9231" gradientUnits="userSpaceOnUse">
<stop offset="0.437974" stop-color="#FDFDFE"/>
<stop offset="1" stop-color="#E5EBF2"/>
</linearGradient>
<linearGradient id="paint2_linear" x1="24.9118" y1="-10.8768" x2="28.1413" y2="42.9231" gradientUnits="userSpaceOnUse">
<stop offset="0.437974" stop-color="#FDFDFE"/>
<stop offset="1" stop-color="#E5EBF2"/>
</linearGradient>
<linearGradient id="paint3_linear" x1="9.87186" y1="1.85456" x2="27.1282" y2="11.7264" gradientUnits="userSpaceOnUse">
<stop stop-color="#FE758A"/>
<stop offset="0.870249" stop-color="#FB5A72"/>
<stop offset="0.994115" stop-color="#FB4059"/>
</linearGradient>
<linearGradient id="paint4_linear" x1="26.0163" y1="8.92331" x2="27.2298" y2="9.67926" gradientUnits="userSpaceOnUse">
<stop stop-color="#FF4E65"/>
<stop offset="1" stop-color="#FB4059"/>
</linearGradient>
<linearGradient id="paint5_linear" x1="18.4054" y1="35.116" x2="13.2728" y2="8.52424" gradientUnits="userSpaceOnUse">
<stop stop-color="#FB364F"/>
<stop offset="1" stop-color="#FB5770"/>
</linearGradient>
<linearGradient id="paint6_linear" x1="25.1054" y1="11.2294" x2="11.1758" y2="4.08225" gradientUnits="userSpaceOnUse">
<stop stop-color="#FB4059"/>
<stop offset="1" stop-color="#FF4D65"/>
</linearGradient>
<linearGradient id="paint7_linear" x1="13.4658" y1="5.35439" x2="13.7065" y2="9.93547" gradientUnits="userSpaceOnUse">
<stop stop-color="#FF4D65"/>
<stop offset="1" stop-color="#FF4D65" stop-opacity="0"/>
</linearGradient>
<linearGradient id="paint8_linear" x1="3.48969" y1="5.09273" x2="21.0124" y2="14.3443" gradientUnits="userSpaceOnUse">
<stop stop-color="#FBFBFD"/>
<stop offset="0.870249" stop-color="#EBEFF4"/>
<stop offset="0.994115" stop-color="#E8ECF2"/>
</linearGradient>
<linearGradient id="paint9_linear" x1="12.2873" y1="-4.79201" x2="15.5168" y2="49.0079" gradientUnits="userSpaceOnUse">
<stop offset="0.437974" stop-color="#FDFDFE"/>
<stop offset="1" stop-color="#E5EBF2"/>
</linearGradient>
<linearGradient id="paint10_linear" x1="51.3392" y1="14.594" x2="5.80347" y2="36.5461" gradientUnits="userSpaceOnUse">
<stop stop-color="#DAE2EB"/>
<stop offset="0.998094" stop-color="white"/>
</linearGradient>
<linearGradient id="paint11_linear" x1="12.9285" y1="28.6965" x2="40.4625" y2="28.6965" gradientUnits="userSpaceOnUse">
<stop stop-color="#FB5770"/>
<stop offset="0.160911" stop-color="#FB364F"/>
<stop offset="0.770399" stop-color="#FB364F"/>
<stop offset="0.842505" stop-color="#FB2B44"/>
</linearGradient>
<linearGradient id="paint12_linear" x1="-2.49104" y1="28.6965" x2="38.1341" y2="26.4663" gradientUnits="userSpaceOnUse">
<stop stop-color="#FDFDFE"/>
<stop offset="0.400649" stop-color="#F0F3F7"/>
<stop offset="0.526485" stop-color="#DFE5ED"/>
<stop offset="1" stop-color="#DAE2EB"/>
</linearGradient>
</defs>
</svg>

