<svg width="108" height="130" viewBox="0 0 108 130" fill="none" xmlns="http://www.w3.org/2000/svg">
<path d="M6.51 120.294C5.39 120.294 4.396 120.098 3.528 119.706C2.674 119.3 2.002 118.719 1.512 117.963C1.022 117.207 0.777 116.283 0.777 115.191V114.645H3.276V115.191C3.276 116.157 3.57 116.878 4.158 117.354C4.746 117.83 5.53 118.068 6.51 118.068C7.504 118.068 8.253 117.865 8.757 117.459C9.261 117.053 9.513 116.528 9.513 115.884C9.513 115.45 9.394 115.1 9.156 114.834C8.918 114.554 8.568 114.33 8.106 114.162C7.658 113.994 7.112 113.833 6.468 113.679L5.838 113.553C4.872 113.329 4.032 113.049 3.318 112.713C2.618 112.363 2.079 111.915 1.701 111.369C1.323 110.823 1.134 110.109 1.134 109.227C1.134 108.345 1.344 107.589 1.764 106.959C2.184 106.329 2.779 105.846 3.549 105.51C4.319 105.174 5.222 105.006 6.258 105.006C7.294 105.006 8.218 105.181 9.03 105.531C9.842 105.881 10.479 106.406 10.941 107.106C11.417 107.806 11.655 108.681 11.655 109.731V110.424H9.156V109.731C9.156 109.129 9.037 108.646 8.799 108.282C8.561 107.918 8.225 107.652 7.791 107.484C7.357 107.316 6.846 107.232 6.258 107.232C5.39 107.232 4.732 107.4 4.284 107.736C3.836 108.072 3.612 108.548 3.612 109.164C3.612 109.556 3.71 109.892 3.906 110.172C4.116 110.438 4.417 110.662 4.809 110.844C5.215 111.012 5.719 111.159 6.321 111.285L6.951 111.432C7.959 111.656 8.841 111.943 9.597 112.293C10.353 112.629 10.941 113.077 11.361 113.637C11.795 114.197 12.012 114.925 12.012 115.821C12.012 116.703 11.781 117.48 11.319 118.152C10.871 118.824 10.234 119.349 9.408 119.727C8.596 120.105 7.63 120.294 6.51 120.294ZM19.1604 120.294C18.1524 120.294 17.2424 120.084 16.4304 119.664C15.6184 119.244 14.9744 118.635 14.4984 117.837C14.0364 117.039 13.8054 116.08 13.8054 114.96V114.666C13.8054 113.546 14.0364 112.587 14.4984 111.789C14.9744 110.991 15.6184 110.382 16.4304 109.962C17.2424 109.542 18.1524 109.332 19.1604 109.332C20.1544 109.332 21.0014 109.507 21.7014 109.857C22.4154 110.207 22.9894 110.69 23.4234 111.306C23.8574 111.908 24.1374 112.587 24.2634 113.343L21.9324 113.826C21.8764 113.392 21.7434 113 21.5334 112.65C21.3234 112.286 21.0224 111.999 20.6304 111.789C20.2524 111.579 19.7834 111.474 19.2234 111.474C18.6494 111.474 18.1314 111.6 17.6694 111.852C17.2214 112.09 16.8644 112.454 16.5984 112.944C16.3464 113.434 16.2204 114.022 16.2204 114.708V114.918C16.2204 115.604 16.3464 116.192 16.5984 116.682C16.8644 117.158 17.2214 117.522 17.6694 117.774C18.1314 118.026 18.6494 118.152 19.2234 118.152C20.0774 118.152 20.7214 117.935 21.1554 117.501C21.6034 117.053 21.8834 116.479 21.9954 115.779L24.3264 116.325C24.1584 117.053 23.8574 117.718 23.4234 118.32C22.9894 118.922 22.4154 119.405 21.7014 119.769C21.0014 120.119 20.1544 120.294 19.1604 120.294ZM29.8886 120.294C29.1606 120.294 28.5026 120.168 27.9146 119.916C27.3266 119.65 26.8576 119.272 26.5076 118.782C26.1716 118.292 26.0036 117.69 26.0036 116.976C26.0036 116.276 26.1716 115.688 26.5076 115.212C26.8576 114.736 27.3336 114.379 27.9356 114.141C28.5376 113.889 29.2236 113.763 29.9936 113.763H32.9966V113.133C32.9966 112.587 32.8286 112.146 32.4926 111.81C32.1566 111.46 31.6316 111.285 30.9176 111.285C30.2176 111.285 29.6856 111.453 29.3216 111.789C28.9716 112.111 28.7406 112.531 28.6286 113.049L26.4026 112.314C26.5706 111.768 26.8366 111.271 27.2006 110.823C27.5786 110.375 28.0756 110.018 28.6916 109.752C29.3076 109.472 30.0636 109.332 30.9596 109.332C32.3176 109.332 33.3816 109.675 34.1516 110.361C34.9356 111.033 35.3276 112.013 35.3276 113.301V117.375C35.3276 117.795 35.5236 118.005 35.9156 118.005H36.7976V120H35.0966C34.5926 120 34.1796 119.874 33.8576 119.622C33.5356 119.37 33.3746 119.027 33.3746 118.593V118.551H33.0176C32.9336 118.747 32.7866 118.985 32.5766 119.265C32.3666 119.545 32.0446 119.79 31.6106 120C31.1906 120.196 30.6166 120.294 29.8886 120.294ZM30.2876 118.32C31.0856 118.32 31.7366 118.096 32.2406 117.648C32.7446 117.186 32.9966 116.57 32.9966 115.8V115.59H30.1406C29.6226 115.59 29.2026 115.702 28.8806 115.926C28.5586 116.15 28.3976 116.479 28.3976 116.913C28.3976 117.333 28.5656 117.676 28.9016 117.942C29.2376 118.194 29.6996 118.32 30.2876 118.32ZM38.7957 120V105.3H41.2107V120H38.7957ZM47.4843 120.294C46.7563 120.294 46.0983 120.168 45.5103 119.916C44.9223 119.65 44.4533 119.272 44.1033 118.782C43.7673 118.292 43.5993 117.69 43.5993 116.976C43.5993 116.276 43.7673 115.688 44.1033 115.212C44.4533 114.736 44.9293 114.379 45.5313 114.141C46.1333 113.889 46.8193 113.763 47.5893 113.763H50.5923V113.133C50.5923 112.587 50.4243 112.146 50.0883 111.81C49.7523 111.46 49.2273 111.285 48.5133 111.285C47.8133 111.285 47.2813 111.453 46.9173 111.789C46.5673 112.111 46.3363 112.531 46.2243 113.049L43.9983 112.314C44.1663 111.768 44.4323 111.271 44.7963 110.823C45.1743 110.375 45.6713 110.018 46.2873 109.752C46.9033 109.472 47.6593 109.332 48.5553 109.332C49.9133 109.332 50.9773 109.675 51.7473 110.361C52.5313 111.033 52.9233 112.013 52.9233 113.301V117.375C52.9233 117.795 53.1193 118.005 53.5113 118.005H54.3933V120H52.6923C52.1883 120 51.7753 119.874 51.4533 119.622C51.1313 119.37 50.9703 119.027 50.9703 118.593V118.551H50.6133C50.5293 118.747 50.3823 118.985 50.1723 119.265C49.9623 119.545 49.6403 119.79 49.2063 120C48.7863 120.196 48.2123 120.294 47.4843 120.294ZM47.8833 118.32C48.6813 118.32 49.3323 118.096 49.8363 117.648C50.3403 117.186 50.5923 116.57 50.5923 115.8V115.59H47.7363C47.2183 115.59 46.7983 115.702 46.4763 115.926C46.1543 116.15 45.9933 116.479 45.9933 116.913C45.9933 117.333 46.1613 117.676 46.4973 117.942C46.8333 118.194 47.2953 118.32 47.8833 118.32ZM62.5234 120.294C61.5434 120.294 60.7874 120.126 60.2554 119.79C59.7374 119.44 59.3594 119.055 59.1214 118.635H58.7644V120H56.3914V105.3H58.8064V110.928H59.1634C59.3174 110.648 59.5274 110.389 59.7934 110.151C60.0734 109.913 60.4304 109.717 60.8644 109.563C61.3124 109.409 61.8654 109.332 62.5234 109.332C63.3774 109.332 64.1614 109.542 64.8754 109.962C65.5894 110.368 66.1634 110.97 66.5974 111.768C67.0314 112.566 67.2484 113.525 67.2484 114.645V114.981C67.2484 116.101 67.0314 117.06 66.5974 117.858C66.1634 118.656 65.5824 119.265 64.8544 119.685C64.1404 120.091 63.3634 120.294 62.5234 120.294ZM61.8094 118.194C62.6774 118.194 63.3984 117.914 63.9724 117.354C64.5464 116.78 64.8334 115.968 64.8334 114.918V114.708C64.8334 113.644 64.5464 112.832 63.9724 112.272C63.4124 111.712 62.6914 111.432 61.8094 111.432C60.9414 111.432 60.2134 111.712 59.6254 112.272C59.0514 112.832 58.7644 113.644 58.7644 114.708V114.918C58.7644 115.968 59.0514 116.78 59.6254 117.354C60.2134 117.914 60.9414 118.194 61.8094 118.194ZM69.8035 120V109.626H72.2185V120H69.8035ZM71.0005 108.303C70.5665 108.303 70.1885 108.163 69.8665 107.883C69.5585 107.589 69.4045 107.204 69.4045 106.728C69.4045 106.252 69.5585 105.874 69.8665 105.594C70.1885 105.3 70.5665 105.153 71.0005 105.153C71.4625 105.153 71.8405 105.3 72.1345 105.594C72.4425 105.874 72.5965 106.252 72.5965 106.728C72.5965 107.204 72.4425 107.589 72.1345 107.883C71.8405 108.163 71.4625 108.303 71.0005 108.303ZM75.2791 120V105.3H77.6941V120H75.2791ZM80.7547 120V109.626H83.1697V120H80.7547ZM81.9517 108.303C81.5177 108.303 81.1397 108.163 80.8177 107.883C80.5097 107.589 80.3557 107.204 80.3557 106.728C80.3557 106.252 80.5097 105.874 80.8177 105.594C81.1397 105.3 81.5177 105.153 81.9517 105.153C82.4137 105.153 82.7917 105.3 83.0857 105.594C83.3937 105.874 83.5477 106.252 83.5477 106.728C83.5477 107.204 83.3937 107.589 83.0857 107.883C82.7917 108.163 82.4137 108.303 81.9517 108.303ZM90.1783 120C89.5063 120 88.9673 119.804 88.5613 119.412C88.1693 119.006 87.9733 118.46 87.9733 117.774V111.621H85.2643V109.626H87.9733V106.287H90.3883V109.626H93.3703V111.621H90.3883V117.375C90.3883 117.795 90.5843 118.005 90.9763 118.005H93.0553V120H90.1783ZM96.9829 124.2V122.1H102.716C103.108 122.1 103.304 121.89 103.304 121.47V118.572H102.947C102.835 118.824 102.653 119.076 102.401 119.328C102.149 119.566 101.813 119.769 101.393 119.937C100.973 120.091 100.441 120.168 99.7969 120.168C98.9989 120.168 98.2919 119.993 97.6759 119.643C97.0599 119.279 96.5839 118.775 96.2479 118.131C95.9119 117.473 95.7439 116.71 95.7439 115.842V109.626H98.1379V115.653C98.1379 116.493 98.3409 117.116 98.7469 117.522C99.1669 117.928 99.7549 118.131 100.511 118.131C101.365 118.131 102.037 117.851 102.527 117.291C103.031 116.731 103.283 115.926 103.283 114.876V109.626H105.677V121.974C105.677 122.66 105.481 123.199 105.089 123.591C104.697 123.997 104.165 124.2 103.493 124.2H96.9829Z" fill="#252A36"/>
<path opacity="0.3" d="M15.1053 55.2632C15.1053 52.2111 17.5795 49.7369 20.6316 49.7369H49.3684C52.4205 49.7369 54.8947 52.2111 54.8947 55.2632V77.3684C54.8947 80.4205 52.4205 82.8947 49.3684 82.8947H20.6316C17.5795 82.8947 15.1053 80.4205 15.1053 77.3684V55.2632Z" fill="#FDFDFE" stroke="#DBE3EB" stroke-width="2.21053"/>
<path d="M26.156 35.3684C26.156 32.3163 28.6303 29.8421 31.6824 29.8421H69.2613C72.3134 29.8421 74.7876 32.3163 74.7876 35.3684V66.3158C74.7876 69.3679 72.3134 71.8421 69.2613 71.8421H31.6823C28.6303 71.8421 26.156 69.3679 26.156 66.3158V35.3684Z" fill="#FDFDFE" stroke="#DBE3EB" stroke-width="2.21053"/>
<g filter="url(#filter0_ii)">
<path d="M38.3154 6.63158C38.3154 2.96906 41.2845 0 44.947 0H100.21C103.873 0 106.842 2.96906 106.842 6.63158V53.0526C106.842 56.7151 103.873 59.6842 100.21 59.6842H44.947C41.2845 59.6842 38.3154 56.7152 38.3154 53.0526V6.63158Z" fill="url(#paint0_linear)"/>
</g>
<path d="M39.4207 6.63158C39.4207 3.57948 41.8949 1.10526 44.947 1.10526H100.21C103.262 1.10526 105.736 3.57948 105.736 6.63158V53.0526C105.736 56.1047 103.262 58.5789 100.21 58.5789H44.947C41.8949 58.5789 39.4207 56.1047 39.4207 53.0526V6.63158Z" stroke="#47CF4B" stroke-width="2.21053"/>
<g style="mix-blend-mode:multiply" filter="url(#filter1_f)">
<path d="M40.5273 29.8423H68.1589C71.8214 29.8423 74.7905 32.8113 74.7905 36.4739V57.4739" stroke="#DBE3EB" stroke-width="2.21053"/>
</g>
<g filter="url(#filter2_d)">
<path d="M69.9787 16.8271H85.5971M85.5971 16.8271V32.4455M85.5971 16.8271L59.5664 42.8578" stroke="white" stroke-width="5"/>
</g>
<defs>
<filter id="filter0_ii" x="38.3154" y="-4.42105" width="68.5263" height="68.5263" filterUnits="userSpaceOnUse" color-interpolation-filters="sRGB">
<feFlood flood-opacity="0" result="BackgroundImageFix"/>
<feBlend mode="normal" in="SourceGraphic" in2="BackgroundImageFix" result="shape"/>
<feColorMatrix in="SourceAlpha" type="matrix" values="0 0 0 0 0 0 0 0 0 0 0 0 0 0 0 0 0 0 127 0" result="hardAlpha"/>
<feOffset dy="4.42105"/>
<feGaussianBlur stdDeviation="3.31579"/>
<feComposite in2="hardAlpha" operator="arithmetic" k2="-1" k3="1"/>
<feColorMatrix type="matrix" values="0 0 0 0 1 0 0 0 0 1 0 0 0 0 1 0 0 0 0.57 0"/>
<feBlend mode="normal" in2="shape" result="effect1_innerShadow"/>
<feColorMatrix in="SourceAlpha" type="matrix" values="0 0 0 0 0 0 0 0 0 0 0 0 0 0 0 0 0 0 127 0" result="hardAlpha"/>
<feOffset dy="-4.42105"/>
<feGaussianBlur stdDeviation="4.42105"/>
<feComposite in2="hardAlpha" operator="arithmetic" k2="-1" k3="1"/>
<feColorMatrix type="matrix" values="0 0 0 0 0.244635 0 0 0 0 0.7625 0 0 0 0 0.259867 0 0 0 1 0"/>
<feBlend mode="normal" in2="effect1_innerShadow" result="effect2_innerShadow"/>
</filter>
<filter id="filter1_f" x="38.3168" y="26.5265" width="39.7895" height="33.1579" filterUnits="userSpaceOnUse" color-interpolation-filters="sRGB">
<feFlood flood-opacity="0" result="BackgroundImageFix"/>
<feBlend mode="normal" in="SourceGraphic" in2="BackgroundImageFix" result="shape"/>
<feGaussianBlur stdDeviation="1.10526" result="effect1_foregroundBlur"/>
</filter>
<filter id="filter2_d" x="51.1672" y="7.69557" width="43.5616" height="43.5616" filterUnits="userSpaceOnUse" color-interpolation-filters="sRGB">
<feFlood flood-opacity="0" result="BackgroundImageFix"/>
<feColorMatrix in="SourceAlpha" type="matrix" values="0 0 0 0 0 0 0 0 0 0 0 0 0 0 0 0 0 0 127 0"/>
<feOffset/>
<feGaussianBlur stdDeviation="3.31579"/>
<feColorMatrix type="matrix" values="0 0 0 0 1 0 0 0 0 1 0 0 0 0 1 0 0 0 1 0"/>
<feBlend mode="normal" in2="BackgroundImageFix" result="effect1_dropShadow"/>
<feBlend mode="normal" in="SourceGraphic" in2="effect1_dropShadow" result="shape"/>
</filter>
<linearGradient id="paint0_linear" x1="41.6312" y1="5.52632" x2="101.315" y2="59.6842" gradientUnits="userSpaceOnUse">
<stop stop-color="#8AEF8D"/>
<stop offset="1" stop-color="#47CF4B"/>
</linearGradient>
</defs>
</svg>

