<svg width="54" height="40" viewBox="0 0 64 67" fill="none" xmlns="http://www.w3.org/2000/svg">
<g opacity="0.2" filter="url(#filter0_f)">
<path d="M41.8316 24.9705L38.8324 21.8403L38.4212 23.5757C35.1685 23.3872 38.8136 30.7721 35.6142 34.5358C32.2341 38.5121 23.1 37.9077 24.1013 41.1137L22.3213 41.3655L26.0701 43.8604C29.3726 46.1241 35.2348 44.0925 39.4657 39.1152C43.7762 34.0444 44.7965 27.7949 41.8316 24.9705Z" fill="#FD7A17"/>
<path fill-rule="evenodd" clip-rule="evenodd" d="M35.3859 27.725C33.6993 27.9922 31.7256 29.1861 30.1189 31.0762C28.4214 33.0731 27.5569 35.3491 27.6694 37.0993C26.6506 37.2607 25.7365 37.0841 25.0712 36.5186C23.3046 35.0168 23.9617 31.3417 26.5389 28.3099C29.116 25.2781 32.6374 24.0378 34.404 25.5395C35.007 26.0521 35.3277 26.818 35.3859 27.725Z" fill="#FD7618"/>
<path fill-rule="evenodd" clip-rule="evenodd" d="M21.891 41.0435C25.0606 43.7378 31.346 41.5508 35.9298 36.1585C40.5135 30.7662 41.6599 24.2106 38.4902 21.5162C35.3206 18.8219 29.0352 21.0089 24.4515 26.4012C19.8677 31.7935 18.7213 38.3491 21.891 41.0435ZM25.0707 36.5188C26.8373 38.0205 30.3587 36.7802 32.9359 33.7484C35.513 30.7166 36.1701 27.0415 34.4035 25.5398C32.6369 24.038 29.1155 25.2784 26.5383 28.3102C23.9612 31.3419 23.3041 35.0171 25.0707 36.5188Z" fill="#FD8714"/>
</g>
<path d="M41.7292 25.0686L41.7291 25.0687L41.7338 25.0732C43.1697 26.4411 43.6559 28.6542 43.237 31.1772C42.8185 33.6975 41.4987 36.5045 39.3576 39.0233C37.256 41.4956 34.7529 43.2317 32.3726 44.0693C29.9897 44.9079 27.7506 44.8403 26.1503 43.7433L26.1487 43.7422L22.7101 41.4538L24.1212 41.2542L24.2865 41.2309L24.2367 41.0714C24.1216 40.7027 24.1545 40.4015 24.2948 40.141C24.4382 39.8748 24.7016 39.6362 25.0749 39.4146C25.8244 38.9694 26.9584 38.6248 28.2542 38.2499C28.3526 38.2215 28.4519 38.1928 28.552 38.164C29.7608 37.8154 31.0795 37.435 32.3035 36.9211C33.6286 36.3647 34.8566 35.6462 35.7224 34.6277C36.5463 33.6584 36.9248 32.4614 37.0858 31.2273C37.2467 29.9944 37.1918 28.7121 37.1395 27.5672L37.1373 27.5199C37.0854 26.3844 37.0405 25.4026 37.1986 24.7111C37.2781 24.3636 37.4051 24.1085 37.5916 23.9448C37.7746 23.7841 38.0336 23.6954 38.413 23.7174L38.5319 23.7243L38.5593 23.6085L38.9104 22.1267L41.7292 25.0686Z" fill="url(#paint0_linear)" stroke="#FD8813" stroke-width="0.283781"/>
<mask id="path-5-outside-1" maskUnits="userSpaceOnUse" x="21.3786" y="21.4101" width="15.9423" height="18.7524" fill="black">
<rect fill="white" x="21.3786" y="21.4101" width="15.9423" height="18.7524"/>
<path fill-rule="evenodd" clip-rule="evenodd" d="M35.3859 27.725C33.6993 27.9922 31.7256 29.1861 30.1189 31.0762C28.4214 33.0731 27.5569 35.3491 27.6694 37.0993C26.6506 37.2607 25.7365 37.0841 25.0712 36.5186C23.3046 35.0168 23.9617 31.3417 26.5389 28.3099C29.116 25.2781 32.6374 24.0378 34.404 25.5395C35.007 26.0521 35.3277 26.818 35.3859 27.725Z"/>
</mask>
<path fill-rule="evenodd" clip-rule="evenodd" d="M35.3859 27.725C33.6993 27.9922 31.7256 29.1861 30.1189 31.0762C28.4214 33.0731 27.5569 35.3491 27.6694 37.0993C26.6506 37.2607 25.7365 37.0841 25.0712 36.5186C23.3046 35.0168 23.9617 31.3417 26.5389 28.3099C29.116 25.2781 32.6374 24.0378 34.404 25.5395C35.007 26.0521 35.3277 26.818 35.3859 27.725Z" fill="url(#paint1_linear)"/>
<path d="M30.1189 31.0762L30.3337 31.2588L30.1189 31.0762ZM35.3859 27.725L35.43 28.0035L35.6837 27.9633L35.6673 27.7069L35.3859 27.725ZM27.6694 37.0993L27.7135 37.3778L27.9672 37.3376L27.9507 37.0812L27.6694 37.0993ZM25.0712 36.5186L24.8886 36.7334L24.8886 36.7334L25.0712 36.5186ZM26.5389 28.3099L26.7537 28.4925L26.5389 28.3099ZM34.404 25.5395L34.5866 25.3247L34.404 25.5395ZM30.3337 31.2588C31.9103 29.4041 33.8279 28.2573 35.43 28.0035L35.3418 27.4466C33.5706 27.7272 31.5409 28.9681 29.9041 30.8936L30.3337 31.2588ZM27.9507 37.0812C27.8444 35.4264 28.6668 33.2197 30.3337 31.2588L29.9041 30.8936C28.1761 32.9264 27.2695 35.2718 27.388 37.1174L27.9507 37.0812ZM27.6252 36.8209C26.661 36.9736 25.8384 36.8007 25.2538 36.3038L24.8886 36.7334C25.6346 37.3675 26.6401 37.5478 27.7135 37.3778L27.6252 36.8209ZM25.2538 36.3038C24.4787 35.6449 24.1968 34.4738 24.4536 33.0376C24.709 31.6094 25.4915 29.9772 26.7537 28.4925L26.3241 28.1273C25.009 29.6744 24.1744 31.3957 23.8986 32.9384C23.6242 34.4731 23.8971 35.8905 24.8886 36.7334L25.2538 36.3038ZM26.7537 28.4925C28.0158 27.0078 29.5006 25.9726 30.8691 25.4906C32.2451 25.0059 33.4463 25.0955 34.2214 25.7543L34.5866 25.3247C33.5951 24.4819 32.1523 24.4408 30.6817 24.9588C29.2036 25.4794 27.6391 26.5803 26.3241 28.1273L26.7537 28.4925ZM34.2214 25.7543C34.7517 26.2051 35.0498 26.8909 35.1046 27.7431L35.6673 27.7069C35.6055 26.745 35.2624 25.8992 34.5866 25.3247L34.2214 25.7543Z" fill="#FD8813" mask="url(#path-5-outside-1)"/>
<mask id="path-7-inside-2" fill="white">
<path fill-rule="evenodd" clip-rule="evenodd" d="M21.891 41.0435C25.0606 43.7378 31.346 41.5508 35.9298 36.1585C40.5135 30.7662 41.6599 24.2106 38.4902 21.5162C35.3206 18.8219 29.0352 21.0089 24.4515 26.4012C19.8677 31.7935 18.7213 38.3491 21.891 41.0435ZM25.0707 36.5188C26.8373 38.0205 30.3587 36.7802 32.9359 33.7484C35.513 30.7166 36.1701 27.0415 34.4035 25.5398C32.6369 24.038 29.1155 25.2784 26.5383 28.3102C23.9612 31.3419 23.3041 35.0171 25.0707 36.5188Z"/>
</mask>
<g filter="url(#filter1_ii)">
<path fill-rule="evenodd" clip-rule="evenodd" d="M21.891 41.0435C25.0606 43.7378 31.346 41.5508 35.9298 36.1585C40.5135 30.7662 41.6599 24.2106 38.4902 21.5162C35.3206 18.8219 29.0352 21.0089 24.4515 26.4012C19.8677 31.7935 18.7213 38.3491 21.891 41.0435ZM25.0707 36.5188C26.8373 38.0205 30.3587 36.7802 32.9359 33.7484C35.513 30.7166 36.1701 27.0415 34.4035 25.5398C32.6369 24.038 29.1155 25.2784 26.5383 28.3102C23.9612 31.3419 23.3041 35.0171 25.0707 36.5188Z" fill="url(#paint2_linear)"/>
</g>
<path d="M35.9298 36.1585L36.146 36.3423L35.9298 36.1585ZM21.891 41.0435L22.0748 40.8272L21.891 41.0435ZM38.4902 21.5162L38.674 21.3L38.4902 21.5162ZM24.4515 26.4012L24.6677 26.585L24.4515 26.4012ZM34.4035 25.5398L34.5873 25.3236L34.4035 25.5398ZM26.5383 28.3102L26.3221 28.1264L26.5383 28.3102ZM35.7135 35.9747C33.4486 38.6391 30.7717 40.5008 28.2868 41.3654C25.7946 42.2326 23.5516 42.0826 22.0748 40.8272L21.7072 41.2597C23.4 42.6987 25.8845 42.8023 28.4733 41.9015C31.0694 40.9981 33.8272 39.0701 36.146 36.3423L35.7135 35.9747ZM38.3064 21.7325C39.7833 22.9878 40.2925 25.1775 39.838 27.7767C39.3848 30.3685 37.9785 33.3102 35.7135 35.9747L36.146 36.3423C38.4648 33.6144 39.9236 30.5822 40.3971 27.8745C40.8692 25.1744 40.3669 22.739 38.674 21.3L38.3064 21.7325ZM24.6677 26.585C26.9326 23.9206 29.6095 22.0589 32.0944 21.1942C34.5866 20.3271 36.8296 20.4771 38.3064 21.7325L38.674 21.3C36.9812 19.861 34.4968 19.7574 31.9079 20.6582C29.3118 21.5616 26.554 23.4896 24.2352 26.2174L24.6677 26.585ZM22.0748 40.8272C20.5979 39.5719 20.0887 37.3822 20.5432 34.7829C20.9964 32.1912 22.4027 29.2495 24.6677 26.585L24.2352 26.2174C21.9164 28.9453 20.4576 31.9775 19.9841 34.6852C19.512 37.3853 20.0143 39.8207 21.7072 41.2597L22.0748 40.8272ZM32.7196 33.5646C31.4577 35.0491 29.9731 36.0841 28.605 36.566C27.2293 37.0506 26.0289 36.9608 25.2545 36.3026L24.8869 36.735C25.8792 37.5785 27.3227 37.6194 28.7936 37.1013C30.2721 36.5805 31.8368 35.4795 33.1521 33.9322L32.7196 33.5646ZM34.2197 25.756C34.9941 26.4142 35.276 27.5845 35.0193 29.0204C34.764 30.4482 33.9816 32.0801 32.7196 33.5646L33.1521 33.9322C34.4673 32.385 35.3021 30.6634 35.578 29.1203C35.8524 27.5852 35.5796 26.167 34.5873 25.3236L34.2197 25.756ZM26.7546 28.494C28.0165 27.0094 29.5011 25.9745 30.8692 25.4926C32.2449 25.008 33.4453 25.0977 34.2197 25.756L34.5873 25.3236C33.595 24.4801 32.1515 24.4392 30.6806 24.9572C29.2021 25.478 27.6374 26.5791 26.3221 28.1264L26.7546 28.494ZM25.2545 36.3026C24.4801 35.6443 24.1982 34.474 24.4549 33.0382C24.7102 31.6103 25.4926 29.9785 26.7546 28.494L26.3221 28.1264C25.0069 29.6736 24.1721 31.3952 23.8962 32.9383C23.6218 34.4734 23.8946 35.8915 24.8869 36.735L25.2545 36.3026Z" fill="#FD8813" mask="url(#path-7-inside-2)"/>
<path d="M29.467 44.7808L28.7532 44.0347L28.3906 44.1147L28.3708 44.7306C28.795 44.7741 29.0353 44.7822 29.467 44.7808Z" fill="#FD6C1A"/>
<g opacity="0.3" filter="url(#filter2_f)">
<path d="M28.7852 39.3752L25.1528 36.9347M37.4973 28.0807L34.4041 25.2712" stroke="#FD8414" stroke-width="0.283781"/>
</g>
<g opacity="0.5" filter="url(#filter3_f)">
<path d="M36.4092 36.4228C35.1339 37.923 33.6293 38.9745 32.2336 39.4662C30.8341 39.9591 29.5729 39.8816 28.744 39.177C27.9152 38.4724 27.6355 37.2402 27.8967 35.7795C28.1571 34.3229 28.9526 32.6686 30.2279 31.1684C31.5032 29.6682 33.0078 28.6167 34.4035 28.1251C35.803 27.6321 37.0642 27.7096 37.893 28.4142C38.7219 29.1188 39.0015 30.351 38.7404 31.8117C38.4799 33.2683 37.6844 34.9226 36.4092 36.4228Z" stroke="url(#paint3_linear)" stroke-width="0.283781"/>
</g>
<path d="M25.0878 42.4856C25.1046 42.4492 25.1377 42.4233 25.1775 42.4179C26.2608 42.2711 28.0893 42.8672 28.7155 43.9904C28.7337 44.0231 28.7343 44.0625 28.7185 44.0964L27.6824 46.3246L24.0904 44.6543L25.0878 42.4856Z" fill="url(#paint4_linear)"/>
<path opacity="0.5" d="M25.0878 42.4856C25.1046 42.4492 25.1377 42.4233 25.1775 42.4179C26.2608 42.2711 28.0893 42.8672 28.7155 43.9904C28.7337 44.0231 28.7343 44.0625 28.7185 44.0964L27.6824 46.3246L24.0904 44.6543L25.0878 42.4856Z" fill="url(#paint5_linear)"/>
<g filter="url(#filter4_i)">
<path d="M22.0968 44.5755C22.259 44.2269 22.6127 44.0033 22.996 44.0338C25.3785 44.2231 27.4149 45.1696 28.7919 46.713C29.0302 46.9802 29.0669 47.3654 28.9159 47.6901L21.5455 63.5407L14.7479 60.3798L22.0968 44.5755Z" fill="url(#paint6_linear)"/>
</g>
<path opacity="0.5" d="M22.0968 44.5755C22.259 44.2269 22.6127 44.0033 22.996 44.0338C25.3785 44.2231 27.4149 45.1696 28.7919 46.713C29.0302 46.9802 29.0669 47.3654 28.9159 47.6901L21.5455 63.5407L14.7479 60.3798L22.0968 44.5755Z" fill="url(#paint7_linear)"/>
<ellipse cx="18.1523" cy="61.9482" rx="3.74854" ry="0.625612" transform="rotate(24.9512 18.1523 61.9482)" fill="url(#paint8_linear)"/>
<g opacity="0.3" filter="url(#filter5_f)">
<path d="M22.1777 40.3831C25.4742 43.1854 32.0113 40.9107 36.7786 35.3025C41.5459 29.6943 42.7382 22.8762 39.4416 20.074C36.145 17.2717 29.608 19.5464 24.8407 25.1546" stroke="url(#paint9_linear)" stroke-width="2.01303"/>
</g>
<defs>
<filter id="filter0_f" x="0.0180511" y="0.281723" width="63.5866" height="64.5809" filterUnits="userSpaceOnUse" color-interpolation-filters="sRGB">
<feFlood flood-opacity="0" result="BackgroundImageFix"/>
<feBlend mode="normal" in="SourceGraphic" in2="BackgroundImageFix" result="shape"/>
<feGaussianBlur stdDeviation="10.0405" result="effect1_foregroundBlur"/>
</filter>
<filter id="filter1_ii" x="20.0991" y="19.2844" width="20.1832" height="23.8802" filterUnits="userSpaceOnUse" color-interpolation-filters="sRGB">
<feFlood flood-opacity="0" result="BackgroundImageFix"/>
<feBlend mode="normal" in="SourceGraphic" in2="BackgroundImageFix" result="shape"/>
<feColorMatrix in="SourceAlpha" type="matrix" values="0 0 0 0 0 0 0 0 0 0 0 0 0 0 0 0 0 0 127 0" result="hardAlpha"/>
<feOffset dy="0.967762"/>
<feGaussianBlur stdDeviation="0.846792"/>
<feComposite in2="hardAlpha" operator="arithmetic" k2="-1" k3="1"/>
<feColorMatrix type="matrix" values="0 0 0 0 0.996078 0 0 0 0 0.631373 0 0 0 0 0.054902 0 0 0 1 0"/>
<feBlend mode="normal" in2="shape" result="effect1_innerShadow"/>
<feColorMatrix in="SourceAlpha" type="matrix" values="0 0 0 0 0 0 0 0 0 0 0 0 0 0 0 0 0 0 127 0" result="hardAlpha"/>
<feOffset dy="-1.07837"/>
<feGaussianBlur stdDeviation="1.34715"/>
<feComposite in2="hardAlpha" operator="arithmetic" k2="-1" k3="1"/>
<feColorMatrix type="matrix" values="0 0 0 0 1 0 0 0 0 1 0 0 0 0 1 0 0 0 0.33 0"/>
<feBlend mode="normal" in2="effect1_innerShadow" result="effect2_innerShadow"/>
</filter>
<filter id="filter2_f" x="24.8467" y="24.9392" width="12.9731" height="14.7808" filterUnits="userSpaceOnUse" color-interpolation-filters="sRGB">
<feFlood flood-opacity="0" result="BackgroundImageFix"/>
<feBlend mode="normal" in="SourceGraphic" in2="BackgroundImageFix" result="shape"/>
<feGaussianBlur stdDeviation="0.113513" result="effect1_foregroundBlur"/>
</filter>
<filter id="filter3_f" x="27.4336" y="27.4412" width="11.7701" height="12.7089" filterUnits="userSpaceOnUse" color-interpolation-filters="sRGB">
<feFlood flood-opacity="0" result="BackgroundImageFix"/>
<feBlend mode="normal" in="SourceGraphic" in2="BackgroundImageFix" result="shape"/>
<feGaussianBlur stdDeviation="0.113513" result="effect1_foregroundBlur"/>
</filter>
<filter id="filter4_i" x="14.6271" y="42.4584" width="14.3792" height="21.0823" filterUnits="userSpaceOnUse" color-interpolation-filters="sRGB">
<feFlood flood-opacity="0" result="BackgroundImageFix"/>
<feBlend mode="normal" in="SourceGraphic" in2="BackgroundImageFix" result="shape"/>
<feColorMatrix in="SourceAlpha" type="matrix" values="0 0 0 0 0 0 0 0 0 0 0 0 0 0 0 0 0 0 127 0" result="hardAlpha"/>
<feOffset dx="-0.12097" dy="-1.57261"/>
<feGaussianBlur stdDeviation="1.87504"/>
<feComposite in2="hardAlpha" operator="arithmetic" k2="-1" k3="1"/>
<feColorMatrix type="matrix" values="0 0 0 0 0.635938 0 0 0 0 0.661719 0 0 0 0 0.6875 0 0 0 0.22 0"/>
<feBlend mode="normal" in2="shape" result="effect1_innerShadow"/>
</filter>
<filter id="filter5_f" x="18.5063" y="14.849" width="26.8241" height="30.7591" filterUnits="userSpaceOnUse" color-interpolation-filters="sRGB">
<feFlood flood-opacity="0" result="BackgroundImageFix"/>
<feBlend mode="normal" in="SourceGraphic" in2="BackgroundImageFix" result="shape"/>
<feGaussianBlur stdDeviation="1.50977" result="effect1_foregroundBlur"/>
</filter>
<linearGradient id="paint0_linear" x1="39.2116" y1="26.1687" x2="26.6005" y2="46.1008" gradientUnits="userSpaceOnUse">
<stop stop-color="#FEA30D"/>
<stop offset="0.137983" stop-color="#FFBC57"/>
<stop offset="0.854529" stop-color="#FD6C1A"/>
<stop offset="1" stop-color="#FD6A1A"/>
</linearGradient>
<linearGradient id="paint1_linear" x1="32.4329" y1="24.5016" x2="23.4132" y2="37.2884" gradientUnits="userSpaceOnUse">
<stop offset="0.0662217" stop-color="#FD6B1A"/>
<stop offset="1" stop-color="#FEA40D"/>
</linearGradient>
<linearGradient id="paint2_linear" x1="45.6983" y1="12.104" x2="20.9285" y2="39.5229" gradientUnits="userSpaceOnUse">
<stop stop-color="#FBC56C"/>
<stop offset="1" stop-color="#FD8514"/>
</linearGradient>
<linearGradient id="paint3_linear" x1="35.9662" y1="36.1356" x2="29.6337" y2="30.4344" gradientUnits="userSpaceOnUse">
<stop stop-color="#FD8215"/>
<stop offset="0.528057" stop-color="#DAA60C" stop-opacity="0"/>
</linearGradient>
<linearGradient id="paint4_linear" x1="28.3873" y1="45.1997" x2="24.9518" y2="43.3968" gradientUnits="userSpaceOnUse">
<stop offset="0.159539" stop-color="#ADC1D7"/>
<stop offset="0.581247" stop-color="#E0E7EF"/>
<stop offset="1" stop-color="#FDFDFE"/>
</linearGradient>
<linearGradient id="paint5_linear" x1="26.8624" y1="41.8234" x2="22.1406" y2="51.8297" gradientUnits="userSpaceOnUse">
<stop offset="0.056488" stop-color="#FBB251"/>
<stop offset="0.454877" stop-color="#E0E7EF" stop-opacity="0"/>
<stop offset="1" stop-color="#FDFDFE" stop-opacity="0"/>
</linearGradient>
<linearGradient id="paint6_linear" x1="25.6954" y1="53.9107" x2="20.3298" y2="51.326" gradientUnits="userSpaceOnUse">
<stop stop-color="#CED8E4"/>
<stop offset="0.491169" stop-color="#DFE6EE"/>
<stop offset="0.911857" stop-color="#F8F8FE"/>
</linearGradient>
<linearGradient id="paint7_linear" x1="28.2272" y1="39.8717" x2="20.3298" y2="51.326" gradientUnits="userSpaceOnUse">
<stop stop-color="#FFD535"/>
<stop offset="0.877225" stop-color="#DFE6EE" stop-opacity="0"/>
<stop offset="1" stop-color="#FDFDFE" stop-opacity="0"/>
</linearGradient>
<linearGradient id="paint8_linear" x1="18.7739" y1="62.439" x2="14.428" y2="62.6555" gradientUnits="userSpaceOnUse">
<stop stop-color="#BEC9D6"/>
<stop offset="1" stop-color="#EBEEF1"/>
</linearGradient>
<linearGradient id="paint9_linear" x1="39.4416" y1="20.074" x2="22.1777" y2="40.3831" gradientUnits="userSpaceOnUse">
<stop stop-color="#FFFBDF"/>
<stop offset="1" stop-color="#FFEB28" stop-opacity="0"/>
</linearGradient>
</defs>
</svg>

