<svg width="54" height="40" viewBox="0 0 33 48" fill="none" xmlns="http://www.w3.org/2000/svg">
<path fill-rule="evenodd" clip-rule="evenodd" d="M9.32227 4.24169L10.6055 3.63611L10.3443 4.19892L9.32227 4.24169ZM28.919 41.596L27.6358 42.2016L27.897 41.6388L28.919 41.596ZM13.1883 4.20098C11.5227 3.37889 9.57291 4.59087 9.57291 6.44824V31.1854C9.57291 32.1393 10.1144 33.0105 10.9698 33.4327L26.3497 41.024C28.0152 41.8461 29.965 40.6341 29.965 38.7768V14.0396C29.965 13.0857 29.4235 12.2145 28.5681 11.7923L13.1883 4.20098Z" fill="url(#paint0_linear)"/>
<path d="M8.34131 7.03176C8.34131 5.17439 10.2911 3.9624 11.9566 4.78449L27.3365 12.3758C28.1919 12.798 28.7334 13.6692 28.7334 14.6231V39.3603C28.7334 41.2177 26.7836 42.4296 25.1181 41.6076L9.73819 34.0162C8.88283 33.594 8.34131 32.7228 8.34131 31.7689V7.03176Z" fill="url(#paint1_linear)"/>
<g opacity="0.6" filter="url(#filter0_f)">
<path d="M9.49813 5.71497L5.78613 7.53489L22.5586 42.8788L26.4936 41.1068C27.003 40.8774 27.3306 40.3706 27.3306 39.8119V15.0527C27.3306 14.4203 26.9736 13.8421 26.4081 13.5589L10.7593 5.72035C10.3628 5.52174 9.89631 5.51975 9.49813 5.71497Z" fill="url(#paint2_linear)"/>
</g>
<path d="M9.49813 5.71497L5.78613 7.53489L22.5586 42.8788L26.4936 41.1068C27.003 40.8774 27.3306 40.3706 27.3306 39.8119V15.0527C27.3306 14.4203 26.9736 13.8421 26.4081 13.5589L10.7593 5.72035C10.3628 5.52174 9.89631 5.51975 9.49813 5.71497Z" fill="url(#paint3_linear)"/>
<mask id="mask0" mask-type="alpha" maskUnits="userSpaceOnUse" x="5" y="5" width="23" height="38">
<path d="M9.49716 5.71497L5.78516 7.53489L22.5576 42.8788L26.4926 41.1068C27.0021 40.8774 27.3296 40.3706 27.3296 39.8119V15.0527C27.3296 14.4203 26.9726 13.8421 26.4071 13.5589L10.7583 5.72035C10.3618 5.52174 9.89533 5.51975 9.49716 5.71497Z" fill="url(#paint4_linear)"/>
</mask>
<g mask="url(#mask0)">
<path d="M10.1254 6.3169V9.76448L5.97998 7.54519L9.88815 5.66089L10.5581 5.8842C10.3191 5.8842 10.1254 6.07793 10.1254 6.3169Z" fill="url(#paint5_linear)"/>
<g filter="url(#filter1_f)">
<path d="M10.1611 9.94088V6.72256C10.1611 6.23277 10.6706 5.90937 11.1138 6.1178L12.0979 6.58058" stroke="#11BBFA" stroke-width="0.417685"/>
</g>
<g opacity="0.34" filter="url(#filter2_f)">
<path d="M27.2178 39.2667V39.2667C27.2178 39.9545 26.4818 40.3918 25.8778 40.0629L22.2954 38.1124" stroke="#1289F6" stroke-width="0.417685"/>
</g>
<path d="M22.6585 42.6043L6.06223 7.63163L9.58909 5.90249C9.92871 5.73598 10.3266 5.73768 10.6648 5.90708L26.3136 13.7456C26.8084 13.9934 27.1208 14.4993 27.1208 15.0527V39.8119C27.1208 40.2884 26.8414 40.7207 26.4069 40.9163L22.6585 42.6043Z" stroke="url(#paint6_linear)" stroke-width="0.417685"/>
</g>
<g opacity="0.2">
<mask id="mask1" mask-type="alpha" maskUnits="userSpaceOnUse" x="5" y="5" width="23" height="38">
<path d="M9.49716 5.71497L5.78516 7.53489L22.5576 42.8788L26.4926 41.1068C27.0021 40.8774 27.3296 40.3706 27.3296 39.8119V15.0527C27.3296 14.4203 26.9726 13.8421 26.4071 13.5589L10.7583 5.72035C10.3618 5.52174 9.89533 5.51975 9.49716 5.71497Z" fill="url(#paint7_linear)"/>
</mask>
<g mask="url(#mask1)">
<g style="mix-blend-mode:overlay" filter="url(#filter3_f)">
<path d="M23.5659 13.8836L7.80393 5.93677L4.27197 7.09795L5.0461 8.69458L14.3356 31.4346L21.2544 43.3852L25.1734 42.3691V16.4943C25.1734 15.3904 24.5516 14.3806 23.5659 13.8836Z" fill="black"/>
</g>
</g>
</g>
<path fill-rule="evenodd" clip-rule="evenodd" d="M2.60693 7.56395L3.89014 6.95837L3.62899 7.52119L2.60693 7.56395ZM22.204 44.9186L20.9208 45.5241L21.182 44.9613L22.204 44.9186ZM6.47324 7.52337C4.8077 6.70128 2.8579 7.91327 2.8579 9.77064V34.5078C2.8579 35.4617 3.39942 36.3329 4.25478 36.7551L19.6347 44.3464C21.3002 45.1685 23.25 43.9565 23.25 42.0992V17.362C23.25 16.4081 22.7085 15.5369 21.8531 15.1147L6.47324 7.52337Z" fill="url(#paint8_linear)"/>
<path d="M1.62354 10.3538C1.62354 8.49641 3.57334 7.28442 5.23887 8.10651L20.6188 15.6979C21.4741 16.1201 22.0156 16.9912 22.0156 17.9451V42.6823C22.0156 44.5397 20.0658 45.7517 18.4003 44.9296L3.02042 37.3382C2.16505 36.916 1.62354 36.0448 1.62354 35.091V10.3538Z" fill="url(#paint9_linear)"/>
<g filter="url(#filter4_i)">
<path d="M23.9092 20.8044C23.9092 20.6384 24.0036 20.4869 24.1526 20.4137L26.2868 19.3653C26.5761 19.2232 26.9141 19.4337 26.9141 19.756C26.9141 19.922 26.8197 20.0735 26.6707 20.1467L24.5364 21.1951C24.2472 21.3372 23.9092 21.1266 23.9092 20.8044Z" fill="url(#paint10_linear)"/>
</g>
<g filter="url(#filter5_i)">
<path d="M23.9092 22.4973C23.9092 22.3313 24.0036 22.1797 24.1526 22.1065L26.2868 21.0581C26.5761 20.916 26.9141 21.1266 26.9141 21.4488C26.9141 21.6148 26.8197 21.7664 26.6707 21.8396L24.5364 22.888C24.2472 23.0301 23.9092 22.8195 23.9092 22.4973Z" fill="url(#paint11_linear)"/>
</g>
<g filter="url(#filter6_i)">
<path d="M23.9092 24.19C23.9092 24.024 24.0036 23.8725 24.1526 23.7993L26.2868 22.7509C26.5761 22.6088 26.9141 22.8193 26.9141 23.1416C26.9141 23.3076 26.8197 23.4591 26.6707 23.5323L24.5364 24.5807C24.2472 24.7228 23.9092 24.5123 23.9092 24.19Z" fill="url(#paint12_linear)"/>
</g>
<g filter="url(#filter7_i)">
<path d="M23.9092 25.8828C23.9092 25.7168 24.0036 25.5652 24.1526 25.492L26.2868 24.4436C26.5761 24.3015 26.9141 24.5121 26.9141 24.8343C26.9141 25.0003 26.8197 25.1519 26.6707 25.2251L24.5364 26.2735C24.2472 26.4156 23.9092 26.205 23.9092 25.8828Z" fill="url(#paint13_linear)"/>
</g>
<g filter="url(#filter8_i)">
<path d="M23.9092 27.5755C23.9092 27.4095 24.0036 27.258 24.1526 27.1848L26.2868 26.1364C26.5761 25.9943 26.9141 26.2048 26.9141 26.5271C26.9141 26.6931 26.8197 26.8446 26.6707 26.9178L24.5364 27.9662C24.2472 28.1083 23.9092 27.8978 23.9092 27.5755Z" fill="url(#paint14_linear)"/>
</g>
<g filter="url(#filter9_i)">
<path d="M23.9092 29.2684C23.9092 29.1024 24.0036 28.9508 24.1526 28.8777L26.2868 27.8292C26.5761 27.6872 26.9141 27.8977 26.9141 28.22C26.9141 28.3859 26.8197 28.5375 26.6707 28.6107L24.5364 29.6591C24.2472 29.8012 23.9092 29.5906 23.9092 29.2684Z" fill="url(#paint15_linear)"/>
</g>
<ellipse cx="11.8008" cy="22.5523" rx="10.7097" ry="5.82722" transform="rotate(61.6417 11.8008 22.5523)" fill="url(#paint16_linear)"/>
<ellipse cx="11.2144" cy="23.1315" rx="10.7097" ry="5.82722" transform="rotate(61.6417 11.2144 23.1315)" fill="url(#paint17_linear)"/>
<ellipse cx="11.2156" cy="23.1317" rx="2.73091" ry="1.48591" transform="rotate(61.6417 11.2156 23.1317)" fill="#EBEFF4"/>
<ellipse opacity="0.4" cx="20.2004" cy="17.4433" rx="0.828593" ry="0.450842" transform="rotate(61.6417 20.2004 17.4433)" fill="#CAD4DF"/>
<ellipse opacity="0.4" cx="3.13941" cy="10.1581" rx="0.828593" ry="0.450842" transform="rotate(61.6417 3.13941 10.1581)" fill="#CAD4DF"/>
<ellipse opacity="0.4" cx="20.1965" cy="23.7852" rx="0.828593" ry="0.450842" transform="rotate(61.6417 20.1965 23.7852)" fill="#CAD4DF"/>
<ellipse opacity="0.4" cx="3.1355" cy="16.5002" rx="0.828593" ry="0.450842" transform="rotate(61.6417 3.1355 16.5002)" fill="#CAD4DF"/>
<ellipse opacity="0.4" cx="20.1936" cy="30.1271" rx="0.828593" ry="0.450842" transform="rotate(61.6417 20.1936 30.1271)" fill="#CAD4DF"/>
<ellipse opacity="0.4" cx="3.13306" cy="22.8421" rx="0.828593" ry="0.450842" transform="rotate(61.6417 3.13306 22.8421)" fill="#CAD4DF"/>
<ellipse opacity="0.4" cx="20.1902" cy="36.4691" rx="0.828593" ry="0.450842" transform="rotate(61.6417 20.1902 36.4691)" fill="#CAD4DF"/>
<ellipse opacity="0.4" cx="3.13062" cy="29.184" rx="0.828593" ry="0.450842" transform="rotate(61.6417 3.13062 29.184)" fill="#CAD4DF"/>
<ellipse opacity="0.4" cx="20.1873" cy="42.8111" rx="0.828593" ry="0.450842" transform="rotate(61.6417 20.1873 42.8111)" fill="#CAD4DF"/>
<ellipse opacity="0.4" cx="3.12671" cy="35.5259" rx="0.828593" ry="0.450842" transform="rotate(61.6417 3.12671 35.5259)" fill="#CAD4DF"/>
<path d="M17.2627 38.1143C17.7662 39.1239 17.702 40.178 17.1192 40.4687C16.5363 40.7594 15.6556 40.1766 15.152 39.1671C14.7696 38.4005 12.509 32.345 11.4431 29.4746C11.3264 29.1604 11.5701 29.0388 11.751 29.321C13.4027 31.8992 16.8803 37.3477 17.2627 38.1143Z" fill="url(#paint18_linear)"/>
<path d="M10.9531 29.0319L11.3121 28.8088L11.905 30.0218L11.8071 30.4787L10.9531 29.0319Z" fill="#E0E7EF"/>
<path d="M16.9048 38.3291C17.4083 39.3387 17.3441 40.3928 16.7613 40.6835C16.1784 40.9743 15.2977 40.3915 14.7941 39.3819C14.4117 38.6153 12.1511 32.5598 11.0852 29.6895C10.9684 29.3752 11.2122 29.2536 11.3931 29.5359C13.0448 32.1141 16.5224 37.5625 16.9048 38.3291Z" fill="url(#paint19_linear)"/>
<defs>
<filter id="filter0_f" x="0.857449" y="0.641263" width="31.4018" height="47.1662" filterUnits="userSpaceOnUse" color-interpolation-filters="sRGB">
<feFlood flood-opacity="0" result="BackgroundImageFix"/>
<feBlend mode="normal" in="SourceGraphic" in2="BackgroundImageFix" result="shape"/>
<feGaussianBlur stdDeviation="2.46434" result="effect1_foregroundBlur"/>
</filter>
<filter id="filter1_f" x="9.70154" y="5.59375" width="2.73574" height="4.59773" filterUnits="userSpaceOnUse" color-interpolation-filters="sRGB">
<feFlood flood-opacity="0" result="BackgroundImageFix"/>
<feBlend mode="normal" in="SourceGraphic" in2="BackgroundImageFix" result="shape"/>
<feGaussianBlur stdDeviation="0.125306" result="effect1_foregroundBlur"/>
</filter>
<filter id="filter2_f" x="21.9447" y="37.6783" width="5.73231" height="2.95588" filterUnits="userSpaceOnUse" color-interpolation-filters="sRGB">
<feFlood flood-opacity="0" result="BackgroundImageFix"/>
<feBlend mode="normal" in="SourceGraphic" in2="BackgroundImageFix" result="shape"/>
<feGaussianBlur stdDeviation="0.125306" result="effect1_foregroundBlur"/>
</filter>
<filter id="filter3_f" x="1.01403" y="2.67882" width="27.4173" height="43.9643" filterUnits="userSpaceOnUse" color-interpolation-filters="sRGB">
<feFlood flood-opacity="0" result="BackgroundImageFix"/>
<feBlend mode="normal" in="SourceGraphic" in2="BackgroundImageFix" result="shape"/>
<feGaussianBlur stdDeviation="1.62897" result="effect1_foregroundBlur"/>
</filter>
<filter id="filter4_i" x="23.9092" y="19.3201" width="3.00488" height="1.92014" filterUnits="userSpaceOnUse" color-interpolation-filters="sRGB">
<feFlood flood-opacity="0" result="BackgroundImageFix"/>
<feBlend mode="normal" in="SourceGraphic" in2="BackgroundImageFix" result="shape"/>
<feColorMatrix in="SourceAlpha" type="matrix" values="0 0 0 0 0 0 0 0 0 0 0 0 0 0 0 0 0 0 127 0" result="hardAlpha"/>
<feOffset dx="-0.584759" dy="-0.250611"/>
<feComposite in2="hardAlpha" operator="arithmetic" k2="-1" k3="1"/>
<feColorMatrix type="matrix" values="0 0 0 0 0.0823529 0 0 0 0 0.447059 0 0 0 0 0.94902 0 0 0 0.18 0"/>
<feBlend mode="normal" in2="shape" result="effect1_innerShadow"/>
</filter>
<filter id="filter5_i" x="23.9092" y="21.0129" width="3.00488" height="1.92014" filterUnits="userSpaceOnUse" color-interpolation-filters="sRGB">
<feFlood flood-opacity="0" result="BackgroundImageFix"/>
<feBlend mode="normal" in="SourceGraphic" in2="BackgroundImageFix" result="shape"/>
<feColorMatrix in="SourceAlpha" type="matrix" values="0 0 0 0 0 0 0 0 0 0 0 0 0 0 0 0 0 0 127 0" result="hardAlpha"/>
<feOffset dx="-0.584759" dy="-0.250611"/>
<feComposite in2="hardAlpha" operator="arithmetic" k2="-1" k3="1"/>
<feColorMatrix type="matrix" values="0 0 0 0 0.0823529 0 0 0 0 0.447059 0 0 0 0 0.94902 0 0 0 0.18 0"/>
<feBlend mode="normal" in2="shape" result="effect1_innerShadow"/>
</filter>
<filter id="filter6_i" x="23.9092" y="22.7057" width="3.00488" height="1.92014" filterUnits="userSpaceOnUse" color-interpolation-filters="sRGB">
<feFlood flood-opacity="0" result="BackgroundImageFix"/>
<feBlend mode="normal" in="SourceGraphic" in2="BackgroundImageFix" result="shape"/>
<feColorMatrix in="SourceAlpha" type="matrix" values="0 0 0 0 0 0 0 0 0 0 0 0 0 0 0 0 0 0 127 0" result="hardAlpha"/>
<feOffset dx="-0.584759" dy="-0.250611"/>
<feComposite in2="hardAlpha" operator="arithmetic" k2="-1" k3="1"/>
<feColorMatrix type="matrix" values="0 0 0 0 0.0823529 0 0 0 0 0.447059 0 0 0 0 0.94902 0 0 0 0.18 0"/>
<feBlend mode="normal" in2="shape" result="effect1_innerShadow"/>
</filter>
<filter id="filter7_i" x="23.9092" y="24.3984" width="3.00488" height="1.92014" filterUnits="userSpaceOnUse" color-interpolation-filters="sRGB">
<feFlood flood-opacity="0" result="BackgroundImageFix"/>
<feBlend mode="normal" in="SourceGraphic" in2="BackgroundImageFix" result="shape"/>
<feColorMatrix in="SourceAlpha" type="matrix" values="0 0 0 0 0 0 0 0 0 0 0 0 0 0 0 0 0 0 127 0" result="hardAlpha"/>
<feOffset dx="-0.584759" dy="-0.250611"/>
<feComposite in2="hardAlpha" operator="arithmetic" k2="-1" k3="1"/>
<feColorMatrix type="matrix" values="0 0 0 0 0.0823529 0 0 0 0 0.447059 0 0 0 0 0.94902 0 0 0 0.18 0"/>
<feBlend mode="normal" in2="shape" result="effect1_innerShadow"/>
</filter>
<filter id="filter8_i" x="23.9092" y="26.0912" width="3.00488" height="1.92014" filterUnits="userSpaceOnUse" color-interpolation-filters="sRGB">
<feFlood flood-opacity="0" result="BackgroundImageFix"/>
<feBlend mode="normal" in="SourceGraphic" in2="BackgroundImageFix" result="shape"/>
<feColorMatrix in="SourceAlpha" type="matrix" values="0 0 0 0 0 0 0 0 0 0 0 0 0 0 0 0 0 0 127 0" result="hardAlpha"/>
<feOffset dx="-0.584759" dy="-0.250611"/>
<feComposite in2="hardAlpha" operator="arithmetic" k2="-1" k3="1"/>
<feColorMatrix type="matrix" values="0 0 0 0 0.0823529 0 0 0 0 0.447059 0 0 0 0 0.94902 0 0 0 0.18 0"/>
<feBlend mode="normal" in2="shape" result="effect1_innerShadow"/>
</filter>
<filter id="filter9_i" x="23.9092" y="27.7841" width="3.00488" height="1.92014" filterUnits="userSpaceOnUse" color-interpolation-filters="sRGB">
<feFlood flood-opacity="0" result="BackgroundImageFix"/>
<feBlend mode="normal" in="SourceGraphic" in2="BackgroundImageFix" result="shape"/>
<feColorMatrix in="SourceAlpha" type="matrix" values="0 0 0 0 0 0 0 0 0 0 0 0 0 0 0 0 0 0 127 0" result="hardAlpha"/>
<feOffset dx="-0.584759" dy="-0.250611"/>
<feComposite in2="hardAlpha" operator="arithmetic" k2="-1" k3="1"/>
<feColorMatrix type="matrix" values="0 0 0 0 0.0823529 0 0 0 0 0.447059 0 0 0 0 0.94902 0 0 0 0.18 0"/>
<feBlend mode="normal" in2="shape" result="effect1_innerShadow"/>
</filter>
<linearGradient id="paint0_linear" x1="29.1074" y1="12.5005" x2="29.3286" y2="16.1859" gradientUnits="userSpaceOnUse">
<stop stop-color="#EBEFF4"/>
<stop offset="1" stop-color="#D2DDE8"/>
</linearGradient>
<linearGradient id="paint1_linear" x1="18.5374" y1="58.613" x2="14.2388" y2="-13.6505" gradientUnits="userSpaceOnUse">
<stop offset="0.437974" stop-color="#FDFDFE"/>
<stop offset="1" stop-color="#E5EBF2"/>
</linearGradient>
<linearGradient id="paint2_linear" x1="21.6847" y1="4.47476" x2="26.8539" y2="29.7368" gradientUnits="userSpaceOnUse">
<stop offset="0.306231" stop-color="#13C2FB"/>
<stop offset="1" stop-color="#1599F7"/>
</linearGradient>
<linearGradient id="paint3_linear" x1="13.8771" y1="3.61677" x2="25.2024" y2="25.7955" gradientUnits="userSpaceOnUse">
<stop stop-color="#13C2FB"/>
<stop offset="0.287449" stop-color="#11BDFA"/>
<stop offset="0.561939" stop-color="#10B9FA"/>
<stop offset="1" stop-color="#1599F7"/>
</linearGradient>
<linearGradient id="paint4_linear" x1="13.8761" y1="3.61677" x2="25.2014" y2="25.7955" gradientUnits="userSpaceOnUse">
<stop stop-color="#13C2FB"/>
<stop offset="0.287449" stop-color="#11BDFA"/>
<stop offset="0.561939" stop-color="#10B9FA"/>
<stop offset="1" stop-color="#1599F7"/>
</linearGradient>
<linearGradient id="paint5_linear" x1="8.26905" y1="5.66089" x2="8.26905" y2="9.76448" gradientUnits="userSpaceOnUse">
<stop stop-color="#4ACEFF"/>
<stop offset="1" stop-color="#4ACEFF" stop-opacity="0"/>
</linearGradient>
<linearGradient id="paint6_linear" x1="27.3296" y1="38.2078" x2="8.22068" y2="5.40515" gradientUnits="userSpaceOnUse">
<stop stop-color="#128AF6"/>
<stop offset="1" stop-color="#2AB6F4"/>
</linearGradient>
<linearGradient id="paint7_linear" x1="21.6837" y1="4.47476" x2="26.8529" y2="29.7368" gradientUnits="userSpaceOnUse">
<stop offset="0.306231" stop-color="#13C2FB"/>
<stop offset="1" stop-color="#1599F7"/>
</linearGradient>
<linearGradient id="paint8_linear" x1="22.3924" y1="15.8229" x2="22.7869" y2="17.9898" gradientUnits="userSpaceOnUse">
<stop stop-color="#E7EEF4"/>
<stop offset="1" stop-color="#CAD4DF"/>
</linearGradient>
<linearGradient id="paint9_linear" x1="11.8196" y1="61.9351" x2="-2.20389" y2="-8.27268" gradientUnits="userSpaceOnUse">
<stop offset="0.295365" stop-color="#FDFDFE"/>
<stop offset="1" stop-color="#E5EBF2"/>
</linearGradient>
<linearGradient id="paint10_linear" x1="23.4972" y1="20.7043" x2="27.3413" y2="19.5769" gradientUnits="userSpaceOnUse">
<stop stop-color="#1596F7"/>
<stop offset="1" stop-color="#13C2FB"/>
</linearGradient>
<linearGradient id="paint11_linear" x1="23.9092" y1="22.3071" x2="27.3413" y2="21.2698" gradientUnits="userSpaceOnUse">
<stop stop-color="#1596F7"/>
<stop offset="1" stop-color="#13C2FB"/>
</linearGradient>
<linearGradient id="paint12_linear" x1="23.9092" y1="23.9882" x2="27.3413" y2="22.9625" gradientUnits="userSpaceOnUse">
<stop stop-color="#1090F6"/>
<stop offset="1" stop-color="#13C2FB"/>
</linearGradient>
<linearGradient id="paint13_linear" x1="23.4972" y1="25.7826" x2="28.8458" y2="24.6142" gradientUnits="userSpaceOnUse">
<stop stop-color="#108FF6"/>
<stop offset="1" stop-color="#13C2FB"/>
</linearGradient>
<linearGradient id="paint14_linear" x1="23.4495" y1="27.9279" x2="29.2233" y2="26.0814" gradientUnits="userSpaceOnUse">
<stop stop-color="#1089F5"/>
<stop offset="1" stop-color="#13C2FB"/>
</linearGradient>
<linearGradient id="paint15_linear" x1="24.8415" y1="28.5221" x2="27.7961" y2="27.274" gradientUnits="userSpaceOnUse">
<stop stop-color="#1089F5"/>
<stop offset="1" stop-color="#13C2FB"/>
</linearGradient>
<linearGradient id="paint16_linear" x1="0.860143" y1="22.016" x2="29.7726" y2="23.0141" gradientUnits="userSpaceOnUse">
<stop stop-color="#D8DFE8"/>
<stop offset="1" stop-color="#FDFDFE"/>
</linearGradient>
<linearGradient id="paint17_linear" x1="25.224" y1="22.8451" x2="3.22651" y2="23.2067" gradientUnits="userSpaceOnUse">
<stop stop-color="#F2F5F8"/>
<stop offset="0.907209" stop-color="#FDFDFE"/>
</linearGradient>
<linearGradient id="paint18_linear" x1="10.8873" y1="27.9751" x2="15.9653" y2="38.0762" gradientUnits="userSpaceOnUse">
<stop stop-color="#E0E7EF"/>
<stop offset="1" stop-color="#EEF1F5"/>
</linearGradient>
<linearGradient id="paint19_linear" x1="10.0367" y1="27.4269" x2="16.7613" y2="40.6835" gradientUnits="userSpaceOnUse">
<stop stop-color="#EBEFF4"/>
<stop offset="1" stop-color="#FDFDFE"/>
</linearGradient>
</defs>
</svg>

