<svg width="332" height="340" viewBox="0 0 332 340" fill="none" xmlns="http://www.w3.org/2000/svg">
<ellipse cx="169.025" cy="177.121" rx="81.9366" ry="82.1819" transform="rotate(105 169.025 177.121)" stroke="#EAEFF5" stroke-width="1.6425" stroke-linecap="square" stroke-dasharray="65.7 10.95 21.9 65.7 10.95 21.9"/>
<circle r="3.5945" transform="matrix(1 8.74228e-08 8.74228e-08 -1 142.776 99.5996)" stroke="#EAEFF5" stroke-width="1.6425"/>
<circle cx="169.141" cy="177.234" r="134.626" transform="rotate(90 169.141 177.234)" stroke="#FF6F89" stroke-width="1.6425" stroke-linecap="round" stroke-dasharray="1.1 6.57"/>
<ellipse cx="169.27" cy="177.121" rx="24.0413" ry="24.0413" transform="rotate(90 169.27 177.121)" stroke="#FF6F89" stroke-width="1.6425" stroke-linecap="round" stroke-dasharray="1.1 6.57"/>
<path d="M115.288 177.234C115.288 206.975 139.398 231.085 169.139 231.085C198.88 231.085 222.989 206.975 222.989 177.234C222.989 147.493 198.88 123.384 169.139 123.384" stroke="#FC4059" stroke-width="1.6425"/>
<circle cx="115.289" cy="171.36" r="6.73778" stroke="#FABC06" stroke-width="2.19"/>
<path d="M169.384 115.551L169.384 130.727" stroke="#FC4059" stroke-width="1.6425"/>
<path d="M7.58808 177.235C7.58807 266.457 79.917 338.786 169.139 338.786C258.361 338.786 330.69 266.457 330.69 177.235C330.69 88.0123 258.362 15.6833 169.139 15.6833" stroke="#FABC06" stroke-width="1.6425" stroke-miterlimit="16" stroke-dasharray="16.53 16.53"/>
<circle cx="162.775" cy="15.6831" r="6.73778" stroke="#1286F6" stroke-width="2.19"/>
<path d="M0 177.479H15.176" stroke="#FABC06" stroke-width="1.6425"/>
<path d="M169.139 280.04C112.361 280.04 66.3338 234.012 66.3338 177.234C66.3338 120.457 112.361 74.4292 169.139 74.4292C225.917 74.4292 271.944 120.457 271.944 177.234" stroke="#FABC06" stroke-width="1.6425"/>
<path d="M264.111 177.479H279.287" stroke="#FABC06" stroke-width="1.6425"/>
<circle cx="116.282" cy="171.233" r="18.1536" fill="#FC536C"/>
<path d="M122.492 169.964C123.856 169.964 124.973 168.879 124.973 167.483C124.973 166.119 123.856 165.003 122.492 165.003C121.096 165.003 120.011 166.119 120.011 167.483C120.011 168.879 121.096 169.964 122.492 169.964ZM122.492 166.491C123.019 166.491 123.484 166.956 123.484 167.483C123.484 168.042 123.019 168.476 122.492 168.476C121.934 168.476 121.5 168.042 121.5 167.483C121.5 166.956 121.934 166.491 122.492 166.491ZM108.599 169.964C109.964 169.964 111.08 168.879 111.08 167.483C111.08 166.119 109.964 165.003 108.599 165.003C107.204 165.003 106.118 166.119 106.118 167.483C106.118 168.879 107.204 169.964 108.599 169.964ZM108.599 166.491C109.126 166.491 109.591 166.956 109.591 167.483C109.591 168.042 109.126 168.476 108.599 168.476C108.041 168.476 107.607 168.042 107.607 167.483C107.607 166.956 108.041 166.491 108.599 166.491ZM120.879 173.034C120.011 171.794 118.368 171.298 116.91 171.763C116.476 171.887 116.011 171.949 115.515 171.949C115.049 171.949 114.584 171.887 114.15 171.763C112.693 171.298 111.018 171.763 110.181 173.034C109.809 173.624 109.56 174.306 109.56 175.05V176.414C109.56 177.252 110.243 177.903 111.049 177.903H119.98C120.817 177.903 121.469 177.252 121.469 176.414V175.05C121.5 174.306 121.252 173.624 120.879 173.034ZM120.011 176.414H111.08V175.05C111.08 173.903 111.979 172.972 113.096 172.941C113.871 173.282 114.708 173.437 115.546 173.437C116.352 173.437 117.189 173.282 117.964 172.941C119.081 172.972 120.011 173.903 120.011 175.05V176.414ZM122.864 170.957H122.12C121.562 170.957 121.065 171.143 120.662 171.422C121.065 171.732 121.438 172.104 121.717 172.538C121.841 172.507 121.965 172.445 122.089 172.445H122.833C123.453 172.445 123.949 172.972 123.949 173.561C123.949 173.996 124.291 174.306 124.694 174.306C125.128 174.306 125.438 173.996 125.438 173.561C125.469 172.135 124.291 170.957 122.864 170.957ZM115.546 170.957C117.437 170.957 119.019 169.406 119.019 167.483C119.019 165.592 117.437 164.01 115.546 164.01C113.623 164.01 112.072 165.592 112.072 167.483C112.072 169.406 113.623 170.957 115.546 170.957ZM115.546 165.499C116.631 165.499 117.53 166.398 117.53 167.483C117.53 168.6 116.631 169.468 115.546 169.468C114.429 169.468 113.561 168.6 113.561 167.483C113.561 166.398 114.429 165.499 115.546 165.499ZM110.398 171.422C109.995 171.143 109.498 170.957 108.971 170.957H108.227C106.77 170.957 105.622 172.135 105.622 173.561C105.622 173.996 105.932 174.306 106.366 174.306C106.77 174.306 107.111 173.996 107.111 173.561C107.111 172.972 107.607 172.445 108.227 172.445H108.971C109.095 172.445 109.219 172.507 109.343 172.538C109.623 172.104 109.995 171.732 110.398 171.422Z" fill="white"/>
<circle cx="303.215" cy="179.574" r="15.7004" fill="#F4BFFF"/>
<path d="M310.443 173.907L307.838 171.333C307.559 171.054 307.187 170.868 306.815 170.868H300.458C299.652 170.899 299 171.55 299 172.388V174.838H300.458V172.388H305.42V175.613C305.42 176.016 305.761 176.357 306.164 176.357H309.42V185.288H301.977V186.746H309.389C310.226 186.746 310.908 186.094 310.908 185.288V174.962C310.908 174.589 310.722 174.186 310.443 173.907ZM306.908 174.869V172.481L309.296 174.869H306.908ZM302.691 181.381C302.908 181.133 303.001 180.792 302.939 180.481C302.753 179.83 302.753 179.923 302.939 179.303C303.001 178.962 302.908 178.621 302.691 178.404C302.225 177.939 302.256 178.001 302.101 177.38C302.008 177.039 301.76 176.791 301.45 176.698C300.83 176.543 300.923 176.574 300.458 176.109C300.21 175.892 299.869 175.799 299.559 175.892C298.938 176.047 299.031 176.047 298.411 175.892C298.101 175.799 297.76 175.892 297.512 176.109C297.047 176.574 297.14 176.543 296.519 176.698C296.209 176.791 295.961 177.039 295.868 177.38C295.682 178.001 295.744 177.939 295.279 178.404C295.062 178.621 294.969 178.962 295.031 179.303C295.217 179.923 295.217 179.83 295.031 180.481C294.969 180.792 295.062 181.133 295.279 181.381C295.744 181.846 295.682 181.753 295.868 182.404C295.961 182.714 296.209 182.962 296.519 183.055C296.954 183.179 296.861 183.148 296.985 183.21V186.746L298.969 185.753L300.954 186.746V183.21C301.109 183.148 301.016 183.179 301.45 183.055C301.76 182.962 302.008 182.714 302.101 182.404C302.287 181.753 302.225 181.846 302.691 181.381ZM299 181.784C297.884 181.784 297.016 180.916 297.016 179.799C297.016 178.714 297.884 177.815 299 177.815C300.086 177.815 300.985 178.714 300.985 179.799C300.985 180.916 300.086 181.784 299 181.784Z" fill="#BA46DF"/>
<circle cx="162.893" cy="15.7004" r="15.7004" fill="#FABC06"/>
<path d="M162.145 10.0029V11.4914L163.045 12.4218C162.828 11.3364 163.169 10.251 163.944 9.47573C164.564 8.8245 165.401 8.5144 166.27 8.5144H166.301L164.533 10.282L164.998 13.073L167.789 13.5381L169.588 11.7705C169.588 12.6388 169.247 13.5071 168.596 14.1273C168.316 14.4375 167.975 14.6545 167.634 14.8096C167.665 14.8406 167.727 14.9026 167.789 14.9336L168.751 15.895C169.061 15.7089 169.371 15.4608 169.65 15.1817C170.828 14.0033 171.325 12.2667 170.921 10.6541C170.828 10.251 170.549 9.9719 170.177 9.84786C169.774 9.75483 169.371 9.87887 169.123 10.127L167.293 11.9566L166.27 11.8015L166.115 10.7782L167.944 8.97956C168.223 8.70046 168.316 8.29732 168.223 7.92519C168.099 7.55306 167.82 7.24296 167.417 7.14992C165.774 6.74678 164.068 7.21194 162.89 8.42136C162.58 8.73147 162.3 9.07259 162.083 9.47573H162.145V10.0029ZM158.486 21.0738C158.083 21.4769 157.37 21.4769 156.967 21.0738C156.78 20.8877 156.656 20.6086 156.656 20.3295C156.656 20.0504 156.78 19.8023 156.967 19.5852L161.153 15.4298L160.099 14.3754L155.943 18.5309C155.447 19.027 155.199 19.6783 155.199 20.3295C155.199 21.0117 155.447 21.663 155.943 22.1281C156.408 22.6243 157.06 22.8724 157.742 22.8724C158.393 22.8724 159.044 22.6243 159.54 22.1281L162.642 19.027C162.362 18.5309 162.176 17.9727 162.176 17.3835L158.486 21.0738ZM170.735 19.2751L167.107 15.6469C166.363 14.9336 165.308 14.7786 164.44 15.2127L161.153 11.9256V9.9719L157.184 6.99487L155.199 8.97956L158.176 12.9489H160.099L163.386 16.2671C162.983 17.1354 163.107 18.1898 163.82 18.903L167.448 22.5623C167.913 22.9964 168.627 22.9964 169.092 22.5623L170.735 20.9187C171.169 20.4535 171.169 19.7403 170.735 19.2751Z" fill="#8E6B04"/>
<circle cx="235.997" cy="225.203" r="15.7004" fill="#EAEFF5"/>
<path d="M243.692 222.725V218.011C243.692 217.732 243.474 216.988 242.699 216.988C242.451 216.988 242.234 217.081 242.079 217.236L239.412 219.345C238.11 220.399 236.435 220.957 234.76 220.957H228.806C227.69 220.957 226.822 221.857 226.822 222.942V225.919C226.822 227.036 227.69 227.904 228.806 227.904L228.775 228.896C228.775 230.137 229.054 231.315 229.582 232.338C229.737 232.679 230.078 232.866 230.45 232.866H233.737C234.543 232.866 235.04 231.966 234.543 231.315C234.047 230.633 233.737 229.826 233.737 228.896C233.737 228.555 233.799 228.245 233.861 227.904H234.76C236.435 227.904 238.11 228.493 239.412 229.547L242.079 231.656C242.203 231.78 242.482 231.873 242.668 231.873C243.443 231.873 243.661 231.191 243.661 230.881V226.167C244.281 225.826 244.653 225.175 244.653 224.462C244.684 223.717 244.281 223.066 243.692 222.725ZM230.76 231.377C230.419 230.602 230.264 229.764 230.264 228.896C230.264 228.462 230.326 228.121 230.357 227.904H232.373C232.28 228.245 232.249 228.586 232.249 228.896C232.249 229.795 232.466 230.633 232.838 231.377H230.76ZM234.264 226.415H228.806C228.527 226.415 228.31 226.198 228.31 225.919V222.942C228.31 222.694 228.527 222.446 228.806 222.446H234.264V226.415ZM242.203 229.858L240.342 228.4C239.04 227.346 237.427 226.694 235.753 226.508V222.384C237.427 222.198 239.04 221.547 240.342 220.492L242.203 219.035V229.858Z" fill="#252A36" fill-opacity="0.5"/>
<circle cx="59.8577" cy="254.151" r="15.7004" fill="#F4BFFF"/>
<path d="M59.6123 259.141V249.528L55.1778 251.388C55.4259 254.986 57.1935 257.684 59.6123 259.141ZM66.1246 249.032L60.1705 246.551C60.0154 246.489 59.7674 246.458 59.6123 246.458C59.4262 246.458 59.1782 246.489 59.0231 246.551L53.069 249.032C52.5108 249.28 52.1697 249.807 52.1697 250.396C52.1697 256.567 55.7049 260.816 59.0231 262.211C59.3952 262.366 59.7984 262.366 60.1705 262.211C62.8374 261.095 67.0549 257.28 67.0549 250.396C67.0549 249.807 66.6828 249.28 66.1246 249.032ZM59.6123 260.816C56.5732 259.575 53.6582 255.668 53.6582 250.396L59.6123 247.915L65.5664 250.396C65.5664 255.792 62.4963 259.606 59.6123 260.816Z" fill="#BA46DF"/>
<circle cx="85.8625" cy="71.1426" r="15.7004" fill="#252A36"/>
<path d="M83.5721 69.0491H87.6607V70.4067H83.5721V69.0491ZM83.5721 71.7802H87.6607V73.1378H83.5721V71.7802ZM89.705 66.6055L90.8709 65.4396L89.9127 64.4813L88.8426 65.5354C88.4167 65.1521 87.9269 64.846 87.3732 64.6171C86.8195 64.3881 86.2339 64.2737 85.6164 64.2737C84.9988 64.2737 84.4132 64.3881 83.8595 64.6171C83.3059 64.846 82.8161 65.1521 82.3902 65.5354L81.3201 64.4813L80.3618 65.4396L81.5277 66.6055C81.3148 66.9675 81.1471 67.3535 81.0246 67.7634C80.9022 68.1733 80.841 68.6019 80.841 69.0491H79.4834V70.4067H80.841V71.7802H79.4834V73.1378H80.841C80.841 73.7979 80.9687 74.4155 81.2243 74.9904C81.4692 75.576 81.8072 76.0845 82.2384 76.5157C82.6697 76.9469 83.1781 77.285 83.7637 77.5299C84.3387 77.7854 84.9562 77.9132 85.6164 77.9132C86.2765 77.9132 86.8941 77.7854 87.4691 77.5299C88.0547 77.285 88.5631 76.9469 88.9943 76.5157C89.4255 76.0845 89.7636 75.576 90.0085 74.9904C90.264 74.4155 90.3918 73.7979 90.3918 73.1378H91.7494V71.7802H90.3918V70.4067H91.7494V69.0491H90.3918C90.3918 68.6019 90.3306 68.1733 90.2081 67.7634C90.0857 67.3535 89.918 66.9675 89.705 66.6055ZM89.0183 71.7802V73.1378C89.0183 73.6063 88.9331 74.0481 88.7627 74.4634C88.5817 74.8786 88.3368 75.2406 88.028 75.5494C87.7193 75.8582 87.3573 76.1031 86.942 76.2841C86.5267 76.4545 86.0849 76.5396 85.6164 76.5396C85.1479 76.5396 84.706 76.4545 84.2908 76.2841C83.8755 76.1031 83.5135 75.8582 83.2047 75.5494C82.8959 75.2406 82.651 74.8786 82.47 74.4634C82.2997 74.0481 82.2145 73.6063 82.2145 73.1378V69.0491C82.2145 68.5806 82.2997 68.1387 82.47 67.7235C82.651 67.3082 82.8959 66.9462 83.2047 66.6374C83.5135 66.3287 83.8755 66.0838 84.2908 65.9028C84.706 65.7324 85.1479 65.6472 85.6164 65.6472C86.0849 65.6472 86.5267 65.7324 86.942 65.9028C87.3573 66.0838 87.7193 66.3287 88.028 66.6374C88.3368 66.9462 88.5817 67.3082 88.7627 67.7235C88.9331 68.1387 89.0183 68.5806 89.0183 69.0491V71.7802Z" fill="white"/>
<circle cx="170.252" cy="279.664" r="15.7004" fill="#FABC06"/>
<path d="M170.497 271.697C166.249 271.697 162.806 275.17 162.806 279.388C162.806 283.636 166.249 287.078 170.497 287.078C174.715 287.078 178.188 283.636 178.188 279.388C178.188 275.17 174.715 271.697 170.497 271.697ZM170.497 285.59C167.055 285.59 164.295 282.83 164.295 279.388C164.295 275.977 167.055 273.186 170.497 273.186C173.908 273.186 176.699 275.977 176.699 279.388C176.699 282.83 173.908 285.59 170.497 285.59ZM171.8 282.365C171.8 281.652 171.21 281.062 170.497 281.062C169.753 281.062 169.195 281.652 169.195 282.365C169.195 283.109 169.753 283.667 170.497 283.667C171.21 283.667 171.8 283.109 171.8 282.365ZM169.257 275.821L169.474 280.039C169.474 280.225 169.66 280.38 169.846 280.38H171.117C171.303 280.38 171.489 280.225 171.489 280.039L171.706 275.821C171.706 275.604 171.551 275.418 171.334 275.418H169.629C169.412 275.418 169.257 275.604 169.257 275.821Z" fill="#8E6B04"/>
</svg>

